<?xml version="1.0" encoding="utf-8"?>
<!-- Generator: Adobe Illustrator 16.0.0, SVG Export Plug-In . SVG Version: 6.00 Build 0)  -->
<!DOCTYPE svg PUBLIC "-//W3C//DTD SVG 1.1//EN" "http://www.w3.org/Graphics/SVG/1.1/DTD/svg11.dtd">
<svg version="1.1" id="Layer_1" xmlns="http://www.w3.org/2000/svg" xmlns:xlink="http://www.w3.org/1999/xlink" x="0px" y="0px"
	 width="600px" height="400px" viewBox="0 0 600 400" enable-background="new 0 0 600 400" xml:space="preserve">
<g id="Layer_1_2_">
	<g id="Layer_2">
	</g>
	<g id="Layer_1_1_">
		<g>
			<g>
				<path d="M45.34,162.923c2.833-1.288,5.667-2.576,8.501-3.864c3.349,5.152,6.698,10.305,10.047,15.457
					c5.143,3.555,17.265,4.094,25.504,2.319c3.882-9.303-18.07-72.992-16.229-91.968c-15.456-0.515-30.915-1.031-46.371-1.545
					c-0.515,1.03-1.03,2.061-1.545,3.091c14.167,0.515,28.338,1.03,42.506,1.545c7.749,14.376,6.189,37.004,10.047,54.872
					c2.833,10.046,5.667,20.095,8.501,30.141v0.773c-5.925,0.258-11.851,0.515-17.775,0.772c-3.349-5.409-6.698-10.82-10.047-16.229
					c-4.935-3.09-11.975-1.727-17.002,1.546c-2.32,1.484-1.298,0.133-2.318,3.091c1.03,0.773,2.061,1.545,3.091,2.318
					c-1.03,3.864-2.062,7.729-3.091,11.593c-5.061,2.559-13.544,2.581-21.64,2.318c-9.736-22.05,16.891-65.289,6.956-90.422v-1.546
					c-4.755,4.899-13.121,80.241-13.138,92.741c6.116,3.549,22.515,2.916,28.595,5.41C43.585,180.983,44.645,169.66,45.34,162.923z
					 M557.73,108.825c3.88,12.772,22.867,9.385,26.274,23.185c7.19,29.12-32.515,34.186-51.007,24.731v-9.274
					c4.33-1.506,5.027,1.345,10.047,2.318c9.654,1.871,14.656-5.705,19.321-9.274c6.741-26.526-22.772-17.501-30.914-32.459
					c-0.257-2.061-0.518-4.122-0.772-6.183c5.605-6.103,9.976-9.675,22.412-9.274c0.258-0.515,0.518-1.031,0.772-1.546
					c-2.149-2.245-3.731-2.472-8.501-2.318c-10.227,4.67-18.747,4.733-18.548,20.094c8.63,9.514,27.021,10.892,33.229,22.412
					c-0.288,13.266-14.967,15.838-24.729,10.82c-4.521,3.317-6.183,5.975-6.955,13.138c16.31,22.827,53.938,8.863,59.508-13.911
					C592.826,121.022,570.361,111.379,557.73,108.825z M94.801,175.289v1.546c19.038,1.494,22.076,0.552,20.867-21.64
					c4.549,2.1,8.647,12.718,10.047,17.775c4.199,2.563,8.601,3.391,16.229,3.091l0.773-0.773v-2.318
					c-4.122-0.258-8.244-0.515-12.365-0.773c-4.179-7.67-9.629-29.961-17.775-33.232c-0.258,11.591-0.515,23.186-0.773,34.778
					c-3.751,1.809-7.744,1.117-12.365,0c-6.46-14.385,3.265-57.58-3.091-77.284c14.675-14.562,34.047,26.436,38.642,33.232h3.864
					c2.629-5.589,1.758-17.406,1.546-25.504c0.515-0.515,1.03-1.03,1.545-1.545h3.864c5.932,13.001,2.473,54.729,1.546,71.101
					c0.515,0.258,1.03,0.515,1.545,0.772c0.515-0.515,1.031-1.03,1.546-1.545c1.707-12.045,4.883-64.957-0.773-74.192
					c-0.258-0.773-0.515-1.546-0.773-2.318c-3.994,1.083-5.225,2.256-10.82,2.318c-2.554,5.422-1.758,16.822-1.545,24.731
					c-18.979-7.969-1.618-32.656-44.052-32.459c-1.483,3.9,1.91,15.902,3.091,23.185C95.316,134.584,95.059,154.939,94.801,175.289z
					 M563.913,98.005c0.516-0.515,1.03-1.03,1.546-1.545c-1.803-1.803-3.604-3.607-5.41-5.41c0.773,2.061,1.546,4.122,2.319,6.183
					C562.883,97.49,563.398,97.747,563.913,98.005z M515.225,95.687h-3.091c-3.349,1.545-6.698,3.091-10.047,4.637v0.773
					c3.543,2.396,7.491-0.209,13.138-0.773c13.657,18.64,6.001,49.182-12.363,57.963c-24.162,0.114-30.481-31.64-35.553-50.234
					h-0.771l-1.546,0.773c1.503,17.872,15.465,59.737,38.642,54.099C524.842,157.763,537.59,109.485,515.225,95.687z
					 M284.919,100.323c0.257-0.772,0.515-1.545,0.772-2.318c-1.288-0.258-2.576-0.515-3.864-0.773
					c-3.606,4.379-7.214,8.76-10.82,13.139c0.258,0.515,0.515,1.03,0.773,1.545C276.16,108.052,280.541,104.188,284.919,100.323z
					 M326.652,101.869h1.546c4.379,3.606,8.759,7.214,13.138,10.82h3.864c-2.021-5.569-12.648-14.495-19.32-15.457l-4.638,6.183
					c-3.605,3.606-7.213,7.213-10.819,10.819c0.518,0.515,1.03,1.031,1.546,1.546C316.863,111.144,321.758,106.506,326.652,101.869z
					 M305.014,118.872c0.772,0.258,1.545,0.515,2.318,0.773c0.515-0.773,1.029-1.546,1.545-2.319
					c-6.439-6.182-12.881-12.366-19.321-18.548C288.604,106.125,299.708,114.694,305.014,118.872z M196.816,177.607
					c36.554-8.803,23.385-78.342-13.138-78.057c2.82,6.153,14.221,8.454,18.548,13.911c12.503,15.767,20.167,53.775-7.729,60.281
					c-36.282,8.462-46.604-57.554-15.457-68.01c0.258-0.515,0.515-1.031,0.773-1.546c-0.258-0.515-0.515-1.03-0.773-1.545
					C142.661,109.824,150.516,188.757,196.816,177.607z M478.129,104.188h0.772c5.439,12.283-0.32,26.073,15.457,28.595
					c7.135-5.706,10.667-15.065,6.954-27.049c-1.547-0.773-3.092-1.546-4.638-2.318c1.33,10.054,3.06,16.856-2.316,24.73
					c-1.288-0.258-2.577-0.515-3.864-0.773c-9.571-6.233-0.68-24.35-14.687-27.049c-3.091,0.515-6.183,1.031-9.271,1.546
					c-0.258,0.515-0.517,1.031-0.773,1.546C469.185,106.851,472.776,105.004,478.129,104.188z M562.368,103.415
					c0.153-2.644,0.935-1.113-0.773-3.092l-1.546,0.773c-0.771,1.03-1.545,2.061-2.318,3.091l1.548,0.773
					C560.307,104.445,561.338,103.93,562.368,103.415z M348.292,165.242c6.074-0.157,14.231,0.571,19.321-2.318
					c4.222-3.012,2.834-8.222,2.316-14.684c3.092,2.318,6.185,4.638,9.273,6.956c1.546-2.318,3.092-4.637,4.638-6.956h2.318
					c0.771,3.606,1.546,7.214,2.316,10.82c0.518,0.515,1.03,1.031,1.546,1.546c7.472,0.257,14.941,0.515,22.412,0.772
					c0.518-0.772,1.03-1.545,1.547-2.318c-0.259-4.637-0.517-9.274-0.772-13.911c8.587,4.972,8.543,15.774,20.867,18.548
					c39.512,8.895,41.175-50.042,13.911-62.6c-0.518,0.773-1.03,1.546-1.547,2.319c5.521,6.029,12.207,10.092,15.457,18.548
					c7.104,18.488-6.28,41.327-24.73,37.869c-26.443-4.955-20.809-49.923,0-56.417v-0.773c-1.613-1.293-1.522-1.233-4.637-1.546
					c-9.471,8.728-17.846,21.446-17.775,39.415c-4.559-2.844-7.329-27.75-7.729-34.005c-1.03-0.515-2.062-1.031-3.093-1.546
					c-4.637,0.258-9.273,0.515-13.911,0.773c-3.168,4.56-7.526,13.481-13.139,15.457c-4.244-14.877-9.13-18.456-26.275-17.002
					c-2.655,5.679-4.943,53.178-2.317,59.509L348.292,165.242L348.292,165.242z M352.929,109.598
					c2.062-1.03,4.122-2.062,6.185-3.091h6.956c3.862,7.728,7.729,15.458,11.593,23.185c9.228-8.46,7.066-20.821,25.503-20.867
					c4.782,13.618,3.867,29.811,7.729,45.597c-3.329,3.443-10.711,3.454-17.773,3.092c-1.546-6.182-3.091-12.366-4.638-18.548
					c-0.517-0.773-1.029-1.545-1.547-2.318h-0.771c-7.353,14.982-15.228,12.896-17.003-4.637h-2.318
					c0.518,8.758,1.03,17.521,1.546,26.276c-3.854,2.269-7.996,3.292-14.684,3.091C348.131,149.204,352.732,124.934,352.929,109.598
					z M248.596,176.062c0.258-4.637,0.515-9.274,0.773-13.911c0.515-0.258,1.031-0.515,1.546-0.773
					c6.617,7.238,11.079,11.743,25.503,11.593c7.315-12.957-8.278-53.841-10.82-68.01c-1.03-0.515-2.061-1.031-3.091-1.545
					c-0.258,1.288-0.515,2.576-0.772,3.864c-3.249,1.528-6.382,1.879-8.501,4.637c0.258,3.091,0.515,6.183,0.773,9.274
					c-0.515,0.258-1.031,0.515-1.546,0.773c-5.409-4.637-10.82-9.274-16.229-13.911c-7.735,0.011-11.643,1.457-17.002,3.091
					c-4.895,11.435,6.859,51.33,8.501,65.691C230.219,177.767,241.826,177.435,248.596,176.062z M230.821,111.143
					c8.101,1.3,24.41,15.654,25.503,23.958c0.773,0.515,1.546,1.031,2.318,1.546c4.072-5.628-1.167-15.178-1.545-23.185
					c0.515-0.515,1.031-1.031,1.545-1.546h3.864c7.633,14,10.889,37.796,13.138,55.645v0.772
					c-14.498,4.244-24.9-10.897-27.822-20.866c-0.773-0.515-1.546-1.031-2.319-1.546c-0.515,0.515-1.03,1.031-1.545,1.546
					c1.03,7.728,2.061,15.457,3.091,23.185v0.772c-4.637,1.03-9.274,2.062-13.911,3.091c-7.706-13.381-10.154-43.059-11.593-60.281
					C224.638,113.205,227.729,112.173,230.821,111.143z M291.875,135.874c-1.84-6.226-11.575-18.928-17.775-20.867
					c-0.019,6.119,10.365,18.329,16.229,21.64C290.844,136.389,291.36,136.132,291.875,135.874z M311.195,184.562
					c8.574-25.317,20.535-46.402,31.687-68.009c-1.03-0.515-2.061-1.031-3.091-1.546c-12.91,17.626-23.05,39.283-30.914,61.827
					c-3.35,11.333-6.697,22.671-10.047,34.004c-0.515,0.773-1.03,1.546-1.545,2.319c-5.41-1.804-10.82-3.607-16.229-5.41
					l-0.773,1.546v0.771c6.182,2.576,12.366,5.151,18.548,7.729C307.525,212.052,307.55,195.327,311.195,184.562z M53.068,144.375
					c1.341-7.181-5.545-24.081-11.592-27.049c0.258,9.789,0.515,19.58,0.773,29.368c1.03,0.258,2.061,0.515,3.091,0.773
					C47.916,146.437,50.492,145.405,53.068,144.375z M45.34,132.01c2.307,1,0.927-0.032,2.318,1.546
					c1.03,2.318,2.061,4.637,3.091,6.956c-1.03,1.03-2.061,2.062-3.091,3.091h-0.773C45.523,140.822,45.163,136.809,45.34,132.01z
					 M437.168,139.738c2.061-0.515,4.122-1.031,6.183-1.546c1.555-2.661,2.271-3.808,2.318-8.501
					c-2.06-1.546-4.122-3.091-6.183-4.637c-2.708,3.661-4.52,5.718-4.639,12.366C435.622,138.192,436.396,138.965,437.168,139.738z
					 M440.26,129.691c0.772,0.773,1.546,1.545,2.318,2.318v0.773c-0.772,0.773-1.546,1.545-2.318,2.318
					c-1.293-1.614-1.231-1.522-1.546-4.637L440.26,129.691z M187.542,148.239c0.772-0.258,1.545-0.515,2.318-0.772
					c0.258-2.318,0.515-4.638,0.773-6.956c-3.172-1.156-1.05-0.896-3.864,0c0.404-3.989,1.296-3.364-1.546-5.41
					c-1.03,1.546-2.061,3.091-3.091,4.637c-0.258,2.318-0.515,4.637-0.773,6.956l2.319,1.545H187.542z M185.223,141.284h2.319v3.091
					h-2.319V141.284z M295.739,142.83c-1.03-0.515-2.061-1.031-3.091-1.546c-0.228,24.094-8.684,37.013-8.501,61.054
					c1.03,0.258,2.061,0.516,3.091,0.771C291.302,182.428,296.094,165.196,295.739,142.83z M471.173,236.343
					c6.373-15.61-21.729-18.715-30.913-22.411c-0.258-0.771-0.516-1.547-0.771-2.317c1.213-10.517,18.25-22.817,30.141-19.321
					c0.516-0.257,1.03-0.516,1.546-0.773v-2.32c-2.576-0.516-5.151-1.03-7.729-1.545c-12.153,6.359-27.686,7.808-27.822,26.276
					c8.47,8.389,29.194,6.7,32.46,20.094c-4.126,4.646-8.701,8.41-16.229,5.41c-4.38,6.695-8.761,13.396-13.14,20.094
					c0.772,0.771,1.546,1.545,2.318,2.318c3.092-4.896,6.183-9.791,9.272-14.687C457.878,243.18,466.827,245.641,471.173,236.343z
					 M472.719,199.247c0.919-4.087,1.812-3.194-0.771-5.41c-0.258,1.803-0.518,3.606-0.773,5.41H472.719z M443.351,240.207v-13.139
					c-0.771-0.517-1.545-1.029-2.316-1.545c-8.129,4.68-20.521,15.718-27.822,18.547h-0.771c-0.26-3.605-0.518-7.213-0.773-10.818
					c5.645-6.191,13.052-11.652,17.003-19.32v-0.771c-7.198,3.281-28,19.266-19.321,32.459c0.518,0.516,1.03,1.029,1.548,1.545
					c1.286,0.258,2.575,0.518,3.862,0.771c7.189-7.138,14.797-10.737,23.958-16.229c0.518,0.257,1.03,0.516,1.546,0.771v6.184
					c-11.455,6.275-19.686,24.842-35.551,25.504c-0.516-0.771-1.03-1.546-1.546-2.318c-7.133-17.263,7.431-56.6,17.003-61.054
					c5.254-2.396,7.668,1.099,10.047,3.864c0.257-0.772,0.518-1.547,0.772-2.318c-1.546-1.545-3.091-3.091-4.638-4.637
					c-2.317-0.258-4.639-0.516-6.955-0.773c-12.926,10.437-20.15,27.072-20.096,50.234c-3.627-2.249-3.141-17.123-3.091-22.412
					c-3.261-2.184-10.292-5.373-15.457-3.091c-1.789,1.78-1.749,4.659-1.546,8.501c-0.516,0.258-1.03,0.516-1.545,0.771
					c-2.576-2.574-5.153-5.151-7.729-7.729c-4.508,2.291-8.17,2.062-14.685,1.545c-0.257,0.518-0.515,1.03-0.771,1.546v1.546
					c5.15,0.258,10.306,0.518,15.456,0.772c4.229,1.146,6.976,6.751,12.365,8.501h0.772v-11.594l0.771-0.771
					c2.318,0.518,4.637,1.03,6.955,1.546c5.706,4.826,1.903,27.229,1.546,35.552c-0.771,0.517-1.546,1.029-2.316,1.547
					c-7.317-4.146-13.198-12.569-16.229-20.867c-1.288-0.772-2.577-1.547-3.864-2.318h-0.771c0.516,8.243,1.03,16.487,1.546,24.73
					c-2.302,1.14-4.403,1.609-8.501,1.545c-3.938-7.096-4.658-25.413-5.41-34.004c-1.03-0.772-2.061-1.547-3.091-2.318
					c0.771,13.909,1.545,27.822,2.318,41.732c3.616,1.25,10.609-2.879,17.002-1.545c2.688-2.623,2.646-7.469,2.316-13.141
					c4.122,3.093,8.244,6.186,12.366,9.273h8.501v-10.047c4.171,2.812,1.941,8.131,6.955,10.818
					c18.042,7.122,22.177-18.378,30.914-23.186C438.928,241.402,440.165,244.072,443.351,240.207z M466.536,213.932
					c0.453-4.61,1.259-5.002,3.091-7.729c-0.771-0.518-1.545-1.03-2.318-1.546c-1.285,1.546-2.574,3.092-3.862,4.638
					c-5.964,18.245,22.663,15.538,26.274,26.275c6.751,20.062-27.134,26.479-44.052,26.275c-0.257,0.516-0.515,1.03-0.772,1.547
					v0.771c20.325,4.232,58.638-8.143,47.146-30.913C487.183,223.835,472.314,223.434,466.536,213.932z M83.981,226.296
					c0.258,1.804,0.515,3.606,0.773,5.41c-4.146,4.513-8.125,8.687-16.229,9.272c-0.515,0.772-1.031,1.547-1.546,2.318
					c1.364,1.141,3.415,1.668,5.41,2.318c8.123-1.443,13.135-7.969,17.002-13.911c-1.116-17.159-22.43-20.886-41.733-20.095
					c-5.41,1.287-10.82,2.576-16.229,3.863v1.545C49.603,215.191,75.932,210.678,83.981,226.296z M28.337,308.217
					c0.773,0.516,1.545,1.03,2.318,1.547c2.563-6.072-4.762-86.115-8.501-88.878C24.215,249.993,26.276,279.109,28.337,308.217z
					 M48.431,232.479c-0.864-2.795-0.609-2.271-2.318-3.862c-0.515,0.516-1.031,1.028-1.546,1.546
					c1.768,3.49,2.828,5.04,6.183,6.955c1.288-1.287,2.576-2.576,3.864-3.863c0.258-2.576,0.515-5.152,0.773-7.729
					c-1.546-1.287-3.091-2.576-4.637-3.863l-3.864-0.773c-2.185,1.938-2.703,1.293-3.864,4.639c2.061-0.772,4.122-1.547,6.183-2.317
					c2.468,3.082,3.141,4.508,2.318,9.272h-3.092V232.479z M330.517,223.205c-3.474,8.257,2.276,37.289,4.639,49.461
					c3.986,1.949,11.938,1.532,16.229-0.771h1.546c1.344-11.918-2.728-33.16-5.408-44.826
					C343.698,224.723,336.291,223.436,330.517,223.205z M341.336,271.12c-5.091-4.656-7.715-39.679-6.183-44.052
					c2.575,0.516,5.151,1.029,7.729,1.546c5.056,9.888,4.019,26.916,5.41,40.188C345.974,269.575,343.655,270.348,341.336,271.12z
					 M206.09,257.209c0.258,3.35,0.515,6.698,0.773,10.047c-12.367,6.123-20.61,18.557-39.415,13.139
					c-10.265-15.099-1.985-38.981,6.183-49.461c0.772-0.258,1.545-0.516,2.318-0.771l6.183,6.184
					c-0.258,2.317-0.515,4.637-0.773,6.955c-2.318,0.516-4.637,1.029-6.956,1.545c-3.898,5.896-4.942,16.264-4.637,26.276
					c0.773,0.772,1.545,1.546,2.318,2.317c6.22-1.303,9.153-5.828,10.047-12.364c-3.551,1.194-4.248,2.817-5.41,6.183
					c-0.515,0.26-1.031,0.518-1.546,0.773c-3.049-4.096-0.592-12.774,0-18.549c2.318-0.517,4.638-1.029,6.956-1.547
					c2.17-5.444,4.516-8.887,4.637-16.229c-4.835-1.354-5.743-4.328-13.138-4.639c-8.829,7.102-23.349,34.111-12.366,51.781
					c8.985,19.471,40.829-1.244,47.143-9.273c1.437-2.671,1.645-6.271,0.773-9.274C207.982,257.066,209.337,258.396,206.09,257.209z
					 M221.546,227.068c-1.288,0.516-2.576,1.029-3.864,1.546c2.057,3.577,5.5,2.146,10.047,1.546
					c5.733,12.102,2.561,38.58,2.318,54.871c0.773,0.516,1.545,1.029,2.318,1.546c6.03-13.199,1.309-42.72,0.773-57.963
					C230.359,227.252,226.346,226.893,221.546,227.068z M217.683,283.486c-5.812-12.993,3.307-38.121-2.319-52.555
					c-1.484-2.318-0.133-1.298-3.091-2.317v57.963c2.369,1.046,1.943,1.217,4.637,0.772h10.047
					C225.475,283.557,222.769,283.34,217.683,283.486z M153.537,271.895c-0.515,0.517-1.031,1.029-1.546,1.545
					c1.03,2.834,2.061,5.668,3.091,8.502c-12.364,2.062-24.732,4.121-37.096,6.184h-0.773c-1.803-14.425-3.606-28.854-5.41-43.277
					c0.258-0.518,0.515-1.031,0.773-1.547c10.736-2.184,19.451-4.549,27.822-8.502c0.772,1.288,1.545,2.577,2.318,3.864
					c-1.159,5.319-7.517,7.272-12.365,8.501v2.318c6.744-0.949,11.65-3.883,16.229-6.957c-0.773-3.09-1.546-6.183-2.319-9.271
					c-1.644-2.466-0.792-1.891-4.637-2.318c-7.937,5.873-19.572,5.732-29.368,10.047c-0.772,0.517-1.545,1.031-2.318,1.547
					c1.546,15.713,3.091,31.431,4.637,47.144c8.056,3.341,34.801-0.896,46.37-3.092c0.515-0.257,1.031-0.517,1.546-0.772
					c-1.546-4.121-3.091-8.244-4.637-12.365C155.083,272.924,154.31,272.409,153.537,271.895z M324.334,232.479
					c-3.073,3.785-7.51,3.856-13.139,3.092v7.729h-0.772c-3.349-2.575-6.698-5.153-10.047-7.729
					c-4.401,2.904-11.139,3.597-17.775,4.639c-4.684,8.121,0.059,27.577,0.773,39.415c3.798,2.426,11.385,3.344,16.229,0.771
					c3.736-2.623,1.655-11.69,0-16.229c0.515-0.516,1.031-1.03,1.545-1.546c6.646,5.491,19.396,19.919,30.914,8.501
					c-1.548-12.363-3.094-24.73-4.639-37.096C326.396,233.509,325.364,232.994,324.334,232.479z M295.739,251.8
					c-4.216,4.415,0.309,17.229,1.546,24.73c-0.773,0.516-1.546,1.03-2.318,1.546c-2.061,0.257-4.122,0.516-6.183,0.771
					c-1.803-11.592-3.606-23.188-5.41-34.777c12.963-6.295,24.013,2.146,30.141,7.729h3.093l0.771-0.771
					c-0.771-3.092-1.546-6.185-2.319-9.273c0.518-0.773,1.03-1.546,1.548-2.318h5.408c0.518,0.772,1.03,1.545,1.547,2.318
					c1.286,9.016,2.575,18.034,3.863,27.049C316.824,279.107,302.154,255.495,295.739,251.8z M246.277,234.023
					c-0.515,0.771-1.031,1.547-1.545,2.317c2.227,1.128,4.074,1.972,6.956,0.772h1.545
					C251.886,233.482,251.139,233.832,246.277,234.023z M268.689,234.797c-1.545,0.258-3.091,0.516-4.637,0.773
					c-0.258,5.149-0.515,10.305-0.773,15.455c-3.757-1.299-4.986-4.121-6.183-7.729c-0.773-0.516-1.546-1.029-2.318-1.546
					c-0.515,0.257-1.031,0.517-1.546,0.771c1.812,8.097,7.234,14.386,12.365,19.321h0.773c1.797-3.866,1.676-15.284,0-20.866
					c0.515-0.516,1.031-1.029,1.546-1.545c0.772-0.259,1.545-0.517,2.318-0.772c5.052,5.989,8.393,29.284,5.41,39.415
					c-3.091,0.516-6.183,1.029-9.274,1.546c-4.894-5.409-9.79-10.821-14.684-16.229c-2.205,2.863-1.805,10.239-1.546,15.455
					c-0.773,0.516-1.546,1.03-2.318,1.547c-1.546,0.517-3.091,1.029-4.637,1.545c-5.649-5.942-0.649-32.039-2.318-42.506
					c-0.515-0.516-1.031-1.029-1.546-1.546c-3.424,4.706-2.508,38.41-2.318,47.145c2.707,1.062,7.598,0.278,12.365-0.772
					c1.803-3.861,3.607-7.729,5.41-11.593c3.864,3.604,7.729,7.214,11.592,10.819c3.606-0.517,7.214-1.029,10.82-1.547
					c5.925-9.619,1.604-36.652-3.091-46.369C272.296,235.312,270.493,235.055,268.689,234.797z M76.253,245.617
					c4.887,7.757,20.011,8.15,25.503,16.229c23.292,34.256-39.463,44.174-61.827,48.688c4.36,6.795,33.745-0.134,39.415-2.318
					C112.453,295.458,123.929,249.025,76.253,245.617z M128.033,266.482c0.258,0.771,0.515,1.547,0.773,2.317
					c3.864-1.028,7.729-2.061,11.593-3.091c1.329-2.702,0.868-6.924,0.772-12.365l-1.545-0.771
					c-2.833,1.287-5.667,2.576-8.501,3.863c-1.03-1.804-2.061-3.605-3.091-5.41c-0.773,2.318-1.545,4.639-2.318,6.957
					c0.515,0.771,1.031,1.545,1.545,2.316c2.834-0.771,5.668-1.546,8.501-2.316c0.773,1.028,1.545,2.061,2.318,3.091
					c-0.258,0.258-0.515,0.516-0.773,0.771C135.214,264.376,130.559,264.488,128.033,266.482z M182.132,255.664
					c-0.258,0.516-0.515,1.029-0.773,1.545c3.737,2.971,15.183,1.283,19.321-0.771h1.545c-1.281-3.473-0.929-2.969-5.41-3.092
					C191.922,254.118,187.026,254.891,182.132,255.664z M67.752,279.622c1.326-3.162,0.123-5.646-0.773-8.502
					c-2.884-1.937-4.7-3.347-9.274-3.864c0.448,2.012,5.23,4.654,7.729,6.956v3.091c-2.87,3.055-3.85,4.604-9.274,5.41
					c-0.773,1.03-1.546,2.062-2.319,3.092c0.515,0.516,1.031,1.03,1.546,1.545C62.09,287.055,65.688,284.467,67.752,279.622z
					 M147.354,274.984c0.772-0.518,1.545-1.03,2.318-1.545c-2.763-1.849-17.625-2.127-21.64-3.092
					C129.664,276.188,140.337,278.473,147.354,274.984z M56.16,276.53v2.317h1.545C56.706,276.542,57.738,277.922,56.16,276.53z"/>
			</g>
		</g>
	</g>
</g>
</svg>
