<?xml version="1.0" encoding="utf-8"?>
<!-- Generator: Adobe Illustrator 16.0.0, SVG Export Plug-In . SVG Version: 6.00 Build 0)  -->
<!DOCTYPE svg PUBLIC "-//W3C//DTD SVG 1.1//EN" "http://www.w3.org/Graphics/SVG/1.1/DTD/svg11.dtd">
<svg version="1.1" xmlns="http://www.w3.org/2000/svg" xmlns:xlink="http://www.w3.org/1999/xlink" x="0px" y="0px" width="600px"
	 height="400px" viewBox="0 0 600 400" enable-background="new 0 0 600 400" xml:space="preserve">
<g id="Layer_2">
	<rect x="-1" y="-1" fill="#FFFFFF" stroke="#000000" stroke-miterlimit="10" width="600" height="400"/>
</g>
<g id="Layer_1">
	<g>
		<g>
			<path d="M464,118.5c-10.666,1.667-21.334,3.333-32,5c0-0.333,0-0.667,0-1c12.354-3.187,21.755-8.592,27-19c0-0.333,0-0.667,0-1
				c-11.332,4.666-22.668,9.334-34,14c10.274-9.905,21.114-12.076,28-26c0-0.333,0-0.667,0-1c-15.665,8.333-31.335,16.667-47,25
				c6.991-7.918,27.911-18.731,25-32c-7.21,12.214-27.604,28.304-41,34c3.333-4.666,6.667-9.334,10-14c0-1.333,0-2.667,0-4
				c-32.578,24.632-59.279,58.212-87,88c-8.861-1.707-10.383-7.217-17-10c-9.666-1.333-19.334-2.667-29-4c0,0.333,0,0.667,0,1
				c7.306,9.241,16.016,17.93,12,33c-12.249,7.214-29.694,7.332-45,12c-23.066,7.034-40.183,19.917-69,22
				c3.56,2.357,10.641,2.303,17,2c-6.977,8.134-25.217,12.23-40,12c7.597,8.062,22.865,2.009,32,0
				c-11.666,6.999-23.334,14.001-35,21c-0.667,0.333-1.333,0.667-2,1c12.889,5.098,26.816-6.602,36-10
				c-9.333,6.999-18.667,14.001-28,21c-0.333,0.667-0.667,1.333-1,2c14.363,3.451,26.937-9.039,36-15
				c-5.666,6.666-11.334,13.334-17,20c-2,2-4,4-6,6c11.9-1.165,16.14-7.318,25-11c-2.333,4.666-4.667,9.334-7,14c0,1,0,2,0,3
				c6.666-5.666,13.334-11.334,20-17c0,2.666,0,5.334,0,8c44.051-7.424,89.07,1.122,125-34c1.333,0,2.667,0,4,0
				c5.237,18.902,10.006,40.018,20,54c17.582-1.424,28.933-10.03,40-18c-2.794-23.542-27.274-35.9-36-57
				c30.496,7.523,54.142-44.637,69-59c0-0.333,0-0.667,0-1c-2.333-1.333-4.667-2.667-7-4c3.333-0.333,6.667-0.667,10-1
				c4.993-7.459,7.652-11.229,13-18c-1-1.333-2-2.667-3-4c4-2,8-4,12-6c-1.34-3.926-1.878-3.394-4-6c6.333-2.333,12.667-4.667,19-7
				c0.333-0.667,0.667-1.333,1-2c-7.666,0-15.334,0-23,0c7.999-3.333,16.001-6.667,24-10C460.666,122.5,462.334,120.5,464,118.5z"/>
		</g>
	</g>
</g>
</svg>
