<?xml version="1.0" encoding="utf-8"?>
<!-- Generator: Adobe Illustrator 16.0.0, SVG Export Plug-In . SVG Version: 6.00 Build 0)  -->
<!DOCTYPE svg PUBLIC "-//W3C//DTD SVG 1.1//EN" "http://www.w3.org/Graphics/SVG/1.1/DTD/svg11.dtd">
<svg version="1.1" id="Layer_1" xmlns="http://www.w3.org/2000/svg" xmlns:xlink="http://www.w3.org/1999/xlink" x="0px" y="0px"
	 width="600px" height="400px" viewBox="0 0 600 400" enable-background="new 0 0 600 400" xml:space="preserve">
<g id="Layer_4_1_">
	<g enable-background="new    ">
		<path d="M75.727,174.909H59.295v-5.932h39.997v5.932H82.78v48.093h-7.054V174.909z"/>
	</g>
	<g enable-background="new    ">
		<path fill="none" stroke="#000000" stroke-miterlimit="10" d="M75.727,174.909H59.295v-5.932h39.997v5.932H82.78v48.093h-7.054
			V174.909z"/>
	</g>
	<g enable-background="new    ">
		<path d="M103.307,183.166h4.938v16.944h0.112c0.785-1.402,2.02-2.637,3.535-3.479c1.458-0.842,3.198-1.402,5.049-1.402
			c3.647,0,9.482,2.244,9.482,11.614v16.158h-4.938v-15.598c0-4.376-1.627-8.079-6.284-8.079c-3.198,0-5.723,2.244-6.621,4.938
			c-0.28,0.673-0.336,1.402-0.336,2.356v16.383h-4.938V183.166z"/>
		<path d="M137.195,210.322c0.112,6.677,4.376,9.426,9.313,9.426c3.535,0,5.667-0.617,7.518-1.403l0.842,3.535
			c-1.739,0.785-4.713,1.684-9.033,1.684c-8.36,0-13.354-5.499-13.354-13.69s4.825-14.644,12.736-14.644
			c8.865,0,11.221,7.799,11.221,12.792c0,1.01-0.112,1.796-0.168,2.301H137.195z M151.67,206.787
			c0.056-3.142-1.29-8.023-6.845-8.023c-4.994,0-7.182,4.601-7.575,8.023H151.67z"/>
	</g>
	<g enable-background="new    ">
		<path fill="none" stroke="#000000" stroke-miterlimit="10" d="M103.307,183.166h4.938v16.944h0.112
			c0.785-1.402,2.02-2.637,3.535-3.479c1.458-0.842,3.198-1.402,5.049-1.402c3.647,0,9.482,2.244,9.482,11.614v16.158h-4.938
			v-15.598c0-4.376-1.627-8.079-6.284-8.079c-3.198,0-5.723,2.244-6.621,4.938c-0.28,0.673-0.336,1.402-0.336,2.356v16.383h-4.938
			V183.166z"/>
		<path fill="none" stroke="#000000" stroke-miterlimit="10" d="M137.195,210.322c0.112,6.677,4.376,9.426,9.313,9.426
			c3.535,0,5.667-0.617,7.518-1.403l0.842,3.535c-1.739,0.785-4.713,1.684-9.033,1.684c-8.36,0-13.354-5.499-13.354-13.69
			s4.825-14.644,12.736-14.644c8.865,0,11.221,7.799,11.221,12.792c0,1.01-0.112,1.796-0.168,2.301H137.195z M151.67,206.787
			c0.056-3.142-1.29-8.023-6.845-8.023c-4.994,0-7.182,4.601-7.575,8.023H151.67z"/>
	</g>
	<g enable-background="new    ">
		<path d="M186.48,168.978h29.096v5.852h-22.123v17.955h20.439v5.771h-20.439v24.447h-6.973V168.978z"/>
	</g>
	<g enable-background="new    ">
		<path fill="none" stroke="#000000" stroke-miterlimit="10" d="M186.48,168.978h29.096v5.852h-22.123v17.955h20.439v5.771h-20.439
			v24.447h-6.973V168.978z"/>
	</g>
	<g enable-background="new    ">
		<path d="M229.017,188.216c0.056,1.684-1.178,3.03-3.142,3.03c-1.739,0-2.974-1.347-2.974-3.03c0-1.739,1.291-3.086,3.086-3.086
			C227.839,185.13,229.017,186.477,229.017,188.216z M223.519,223.002v-27.155h4.938v27.155H223.519z"/>
		<path d="M236.647,183.166h4.938v39.836h-4.938V183.166z"/>
		<path d="M255.835,188.048v7.799h7.069v3.759h-7.069v14.644c0,3.366,0.954,5.274,3.703,5.274c1.291,0,2.244-0.168,2.861-0.337
			l0.225,3.703c-0.954,0.393-2.469,0.674-4.376,0.674c-2.3,0-4.152-0.729-5.33-2.076c-1.403-1.459-1.908-3.872-1.908-7.069v-14.812
			h-4.208v-3.759h4.208v-6.509L255.835,188.048z"/>
		<path d="M270.873,210.322c0.112,6.677,4.376,9.426,9.313,9.426c3.535,0,5.667-0.617,7.518-1.403l0.842,3.535
			c-1.739,0.785-4.713,1.684-9.033,1.684c-8.36,0-13.354-5.499-13.354-13.69s4.825-14.644,12.736-14.644
			c8.865,0,11.221,7.799,11.221,12.792c0,1.01-0.112,1.796-0.168,2.301H270.873z M285.348,206.787
			c0.056-3.142-1.29-8.023-6.845-8.023c-4.994,0-7.182,4.601-7.575,8.023H285.348z"/>
		<path d="M296.232,204.318c0-3.198-0.056-5.947-0.224-8.472h4.32l0.168,5.33h0.225c1.234-3.647,4.208-5.947,7.518-5.947
			c0.562,0,0.954,0.056,1.403,0.168v4.657c-0.505-0.112-1.011-0.169-1.683-0.169c-3.479,0-5.948,2.638-6.621,6.341
			c-0.112,0.673-0.225,1.458-0.225,2.3v14.476h-4.881V204.318z"/>
	</g>
	<g enable-background="new    ">
		<path fill="none" stroke="#000000" stroke-miterlimit="10" d="M229.017,188.216c0.056,1.684-1.178,3.03-3.142,3.03
			c-1.739,0-2.974-1.347-2.974-3.03c0-1.739,1.291-3.086,3.086-3.086C227.839,185.13,229.017,186.477,229.017,188.216z
			 M223.519,223.002v-27.155h4.938v27.155H223.519z"/>
		<path fill="none" stroke="#000000" stroke-miterlimit="10" d="M236.647,183.166h4.938v39.836h-4.938V183.166z"/>
		<path fill="none" stroke="#000000" stroke-miterlimit="10" d="M255.835,188.048v7.799h7.069v3.759h-7.069v14.644
			c0,3.366,0.954,5.274,3.703,5.274c1.291,0,2.244-0.168,2.861-0.337l0.225,3.703c-0.954,0.393-2.469,0.674-4.376,0.674
			c-2.3,0-4.152-0.729-5.33-2.076c-1.403-1.459-1.908-3.872-1.908-7.069v-14.812h-4.208v-3.759h4.208v-6.509L255.835,188.048z"/>
		<path fill="none" stroke="#000000" stroke-miterlimit="10" d="M270.873,210.322c0.112,6.677,4.376,9.426,9.313,9.426
			c3.535,0,5.667-0.617,7.518-1.403l0.842,3.535c-1.739,0.785-4.713,1.684-9.033,1.684c-8.36,0-13.354-5.499-13.354-13.69
			s4.825-14.644,12.736-14.644c8.865,0,11.221,7.799,11.221,12.792c0,1.01-0.112,1.796-0.168,2.301H270.873z M285.348,206.787
			c0.056-3.142-1.29-8.023-6.845-8.023c-4.994,0-7.182,4.601-7.575,8.023H285.348z"/>
		<path fill="none" stroke="#000000" stroke-miterlimit="10" d="M296.232,204.318c0-3.198-0.056-5.947-0.224-8.472h4.32l0.168,5.33
			h0.225c1.234-3.647,4.208-5.947,7.518-5.947c0.562,0,0.954,0.056,1.403,0.168v4.657c-0.505-0.112-1.011-0.169-1.683-0.169
			c-3.479,0-5.948,2.638-6.621,6.341c-0.112,0.673-0.225,1.458-0.225,2.3v14.476h-4.881V204.318z"/>
	</g>
	<g enable-background="new    ">
		<path d="M346.072,169.699c3.045-0.642,7.854-1.122,12.744-1.122c6.973,0,11.462,1.202,14.828,3.928
			c2.806,2.084,4.488,5.29,4.488,9.538c0,5.21-3.445,9.779-9.137,11.863v0.16c5.13,1.282,11.141,5.53,11.141,13.546
			c0,4.649-1.843,8.176-4.568,10.821c-3.768,3.446-9.859,5.049-18.676,5.049c-4.809,0-8.496-0.32-10.82-0.641V169.699z
			 M353.045,191.822h6.332c7.375,0,11.703-3.848,11.703-9.058c0-6.332-4.81-8.817-11.863-8.817c-3.206,0-5.049,0.24-6.172,0.481
			V191.822z M353.045,217.712c1.363,0.24,3.367,0.32,5.852,0.32c7.214,0,13.867-2.645,13.867-10.5c0-7.374-6.332-10.42-13.947-10.42
			h-5.771V217.712z"/>
	</g>
	<g enable-background="new    ">
		<path fill="none" stroke="#000000" stroke-miterlimit="10" d="M346.072,169.699c3.045-0.642,7.854-1.122,12.744-1.122
			c6.973,0,11.462,1.202,14.828,3.928c2.806,2.084,4.488,5.29,4.488,9.538c0,5.21-3.445,9.779-9.137,11.863v0.16
			c5.13,1.282,11.141,5.53,11.141,13.546c0,4.649-1.843,8.176-4.568,10.821c-3.768,3.446-9.859,5.049-18.676,5.049
			c-4.809,0-8.496-0.32-10.82-0.641V169.699z M353.045,191.822h6.332c7.375,0,11.703-3.848,11.703-9.058
			c0-6.332-4.81-8.817-11.863-8.817c-3.206,0-5.049,0.24-6.172,0.481V191.822z M353.045,217.712c1.363,0.24,3.367,0.32,5.852,0.32
			c7.214,0,13.867-2.645,13.867-10.5c0-7.374-6.332-10.42-13.947-10.42h-5.771V217.712z"/>
	</g>
	<g enable-background="new    ">
		<path d="M410.242,215.596c0,2.806,0.057,5.274,0.225,7.406h-4.376l-0.28-4.433h-0.112c-1.29,2.188-4.151,5.05-8.978,5.05
			c-4.264,0-9.369-2.356-9.369-11.895v-15.878h4.938v15.036c0,5.162,1.57,8.641,6.059,8.641c3.311,0,5.611-2.301,6.509-4.488
			c0.28-0.729,0.448-1.627,0.448-2.525v-16.663h4.938V215.596z"/>
		<path d="M418.21,223.002c0.112-1.852,0.224-4.601,0.224-7.014v-32.822h4.882v17.057h0.112c1.739-3.029,4.881-4.993,9.258-4.993
			c6.732,0,11.502,5.61,11.445,13.858c0,9.706-6.115,14.531-12.175,14.531c-3.928,0-7.069-1.515-9.089-5.105h-0.169l-0.225,4.488
			H418.21z M423.315,212.117c0,0.617,0.112,1.234,0.225,1.796c0.954,3.422,3.815,5.778,7.405,5.778
			c5.162,0,8.248-4.208,8.248-10.436c0-5.442-2.805-10.1-8.079-10.1c-3.366,0-6.509,2.301-7.519,6.06
			c-0.111,0.562-0.28,1.234-0.28,2.021V212.117z"/>
		<path d="M450.135,223.002c0.111-1.852,0.224-4.601,0.224-7.014v-32.822h4.882v17.057h0.111c1.74-3.029,4.882-4.993,9.258-4.993
			c6.732,0,11.502,5.61,11.445,13.858c0,9.706-6.115,14.531-12.174,14.531c-3.928,0-7.07-1.515-9.09-5.105h-0.168l-0.225,4.488
			H450.135z M455.24,212.117c0,0.617,0.111,1.234,0.225,1.796c0.953,3.422,3.814,5.778,7.405,5.778
			c5.162,0,8.247-4.208,8.247-10.436c0-5.442-2.805-10.1-8.078-10.1c-3.367,0-6.509,2.301-7.519,6.06
			c-0.112,0.562-0.28,1.234-0.28,2.021V212.117z"/>
		<path d="M482.283,183.166h4.938v39.836h-4.938V183.166z"/>
		<path d="M498.273,210.322c0.111,6.677,4.375,9.426,9.312,9.426c3.535,0,5.668-0.617,7.519-1.403l0.842,3.535
			c-1.739,0.785-4.713,1.684-9.033,1.684c-8.36,0-13.354-5.499-13.354-13.69s4.825-14.644,12.736-14.644
			c8.864,0,11.222,7.799,11.222,12.792c0,1.01-0.112,1.796-0.168,2.301H498.273z M512.748,206.787
			c0.057-3.142-1.29-8.023-6.845-8.023c-4.993,0-7.182,4.601-7.575,8.023H512.748z"/>
	</g>
	<g enable-background="new    ">
		<path fill="none" stroke="#000000" stroke-miterlimit="10" d="M410.242,215.596c0,2.806,0.057,5.274,0.225,7.406h-4.376
			l-0.28-4.433h-0.112c-1.29,2.188-4.151,5.05-8.978,5.05c-4.264,0-9.369-2.356-9.369-11.895v-15.878h4.938v15.036
			c0,5.162,1.57,8.641,6.059,8.641c3.311,0,5.611-2.301,6.509-4.488c0.28-0.729,0.448-1.627,0.448-2.525v-16.663h4.938V215.596z"/>
		<path fill="none" stroke="#000000" stroke-miterlimit="10" d="M418.21,223.002c0.112-1.852,0.224-4.601,0.224-7.014v-32.822h4.882
			v17.057h0.112c1.739-3.029,4.881-4.993,9.258-4.993c6.732,0,11.502,5.61,11.445,13.858c0,9.706-6.115,14.531-12.175,14.531
			c-3.928,0-7.069-1.515-9.089-5.105h-0.169l-0.225,4.488H418.21z M423.315,212.117c0,0.617,0.112,1.234,0.225,1.796
			c0.954,3.422,3.815,5.778,7.405,5.778c5.162,0,8.248-4.208,8.248-10.436c0-5.442-2.805-10.1-8.079-10.1
			c-3.366,0-6.509,2.301-7.519,6.06c-0.111,0.562-0.28,1.234-0.28,2.021V212.117z"/>
		<path fill="none" stroke="#000000" stroke-miterlimit="10" d="M450.135,223.002c0.111-1.852,0.224-4.601,0.224-7.014v-32.822
			h4.882v17.057h0.111c1.74-3.029,4.882-4.993,9.258-4.993c6.732,0,11.502,5.61,11.445,13.858c0,9.706-6.115,14.531-12.174,14.531
			c-3.928,0-7.07-1.515-9.09-5.105h-0.168l-0.225,4.488H450.135z M455.24,212.117c0,0.617,0.111,1.234,0.225,1.796
			c0.953,3.422,3.814,5.778,7.405,5.778c5.162,0,8.247-4.208,8.247-10.436c0-5.442-2.805-10.1-8.078-10.1
			c-3.367,0-6.509,2.301-7.519,6.06c-0.112,0.562-0.28,1.234-0.28,2.021V212.117z"/>
		<path fill="none" stroke="#000000" stroke-miterlimit="10" d="M482.283,183.166h4.938v39.836h-4.938V183.166z"/>
		<path fill="none" stroke="#000000" stroke-miterlimit="10" d="M498.273,210.322c0.111,6.677,4.375,9.426,9.312,9.426
			c3.535,0,5.668-0.617,7.519-1.403l0.842,3.535c-1.739,0.785-4.713,1.684-9.033,1.684c-8.36,0-13.354-5.499-13.354-13.69
			s4.825-14.644,12.736-14.644c8.864,0,11.222,7.799,11.222,12.792c0,1.01-0.112,1.796-0.168,2.301H498.273z M512.748,206.787
			c0.057-3.142-1.29-8.023-6.845-8.023c-4.993,0-7.182,4.601-7.575,8.023H512.748z"/>
	</g>
</g>
</svg>
