<?xml version="1.0" encoding="utf-8"?>
<!-- Generator: Adobe Illustrator 16.0.0, SVG Export Plug-In . SVG Version: 6.00 Build 0)  -->
<!DOCTYPE svg PUBLIC "-//W3C//DTD SVG 1.1//EN" "http://www.w3.org/Graphics/SVG/1.1/DTD/svg11.dtd">
<svg version="1.1" id="Layer_1" xmlns="http://www.w3.org/2000/svg" xmlns:xlink="http://www.w3.org/1999/xlink" x="0px" y="0px"
	 width="600px" height="400px" viewBox="0 0 600 400" enable-background="new 0 0 600 400" xml:space="preserve">
<g id="Layer_2_1_">
	<path d="M431,256.5c0,0,14.52-24.061,24.587,1.443c10.067,25.502-28.858,38.926-55.033,6.039
		C374.379,231.098,327.635,205.03,300,233.5c-27.635-28.471-74.379-2.402-100.554,30.482c-26.175,32.887-65.1,19.463-55.033-6.039
		C154.48,232.439,169,256.5,169,256.5c11.164-42.383-65.526-11.98-34.047,37c42.346,57.061,165.047,0,165.047,0
		s122.701,57.061,165.047,0C496.526,244.521,419.836,214.117,431,256.5z"/>
	<path d="M505,84.5c-25.07-19.751-145.399-13.134-163.438-5.831C323.523,85.972,300,87.388,300,87.388s-23.524-1.415-41.562-8.719
		C240.4,71.365,120.07,64.749,95,84.5c0,0-3.158,16.127,3,27c0,0,10.681,3.133,18.418,22.2c7.737,19.067,12.238,68.089,83.882,66.3
		c71.644-1.789,83.724-62.863,86.408-70.246c2.631-7.238,6.618-13.269,13.31-13.522c6.904,0.229,10.646,6.294,13.274,13.523
		c2.685,7.382,14.765,68.456,86.408,70.245c71.643,1.789,76.145-47.232,83.882-66.3C491.319,114.632,502,111.5,502,111.5
		C508.158,100.627,505,84.5,505,84.5z M137.044,156.601c-33.557-64.43,4.036-71.242,63.256-70.127
		c53.86,1.014,71.645,8.101,73.64,39.254C270.567,188.815,170.601,221.029,137.044,156.601z M462.956,156.601
		c-33.557,64.43-133.522,32.214-136.896-30.873c1.995-31.153,19.779-38.24,73.643-39.254
		C458.92,85.359,496.513,92.171,462.956,156.601z"/>
</g>
</svg>
