<?xml version="1.0" encoding="utf-8"?>
<!-- Generator: Adobe Illustrator 16.0.0, SVG Export Plug-In . SVG Version: 6.00 Build 0)  -->
<!DOCTYPE svg PUBLIC "-//W3C//DTD SVG 1.1//EN" "http://www.w3.org/Graphics/SVG/1.1/DTD/svg11.dtd">
<svg version="1.1" id="Layer_1" xmlns="http://www.w3.org/2000/svg" xmlns:xlink="http://www.w3.org/1999/xlink" x="0px" y="0px"
	 width="600px" height="400px" viewBox="0 0 600 400" enable-background="new 0 0 600 400" xml:space="preserve">
<g id="Layer_4_1_">
	<g enable-background="new    ">
		<path d="M65.125,267.033v-153.05h30.902v153.05H65.125z"/>
		<path d="M117.638,217.234l30.067-2.923c1.809,10.093,5.481,17.505,11.014,22.237c5.533,4.733,12.998,7.099,22.394,7.099
			c9.952,0,17.451-2.104,22.498-6.315c5.045-4.211,7.569-9.136,7.569-14.773c0-3.617-1.062-6.697-3.184-9.239
			c-2.124-2.539-5.83-4.75-11.119-6.629c-3.62-1.253-11.867-3.479-24.743-6.682c-16.565-4.105-28.188-9.151-34.87-15.138
			c-9.396-8.421-14.094-18.688-14.094-30.798c0-7.794,2.208-15.086,6.629-21.872c4.419-6.786,10.787-11.954,19.105-15.503
			c8.316-3.55,18.356-5.325,30.119-5.325c19.209,0,33.669,4.212,43.378,12.633c9.709,8.422,14.807,19.663,15.295,33.721
			l-30.902,1.357c-1.323-7.864-4.16-13.52-8.509-16.965c-4.351-3.445-10.875-5.168-19.575-5.168c-8.979,0-16.009,1.845-21.089,5.533
			c-3.272,2.367-4.907,5.533-4.907,9.501c0,3.619,1.53,6.717,4.594,9.291c3.897,3.272,13.363,6.682,28.396,10.231
			c15.034,3.55,26.152,7.222,33.356,11.014c7.203,3.795,12.841,8.979,16.913,15.556c4.071,6.577,6.107,14.704,6.107,24.378
			c0,8.77-2.437,16.982-7.308,24.638c-4.873,7.657-11.763,13.347-20.671,17.069c-8.91,3.723-20.011,5.586-33.304,5.586
			c-19.35,0-34.208-4.472-44.579-13.416C125.849,247.39,119.656,234.356,117.638,217.234z"/>
		<path d="M268.078,267.033v-153.05H381.56v25.892h-82.58v33.93h76.838v25.786H298.98v41.655h85.502v25.787H268.078z"/>
		<path d="M548.703,267.033h-33.617l-13.363-34.765h-61.178l-12.633,34.765h-32.781l59.613-153.05h32.676L548.703,267.033z
			 M491.805,206.481l-21.088-56.793l-20.672,56.793H491.805z"/>
	</g>
</g>
</svg>
