<?xml version="1.0" encoding="utf-8"?>
<!-- Generator: Adobe Illustrator 16.0.0, SVG Export Plug-In . SVG Version: 6.00 Build 0)  -->
<!DOCTYPE svg PUBLIC "-//W3C//DTD SVG 1.1//EN" "http://www.w3.org/Graphics/SVG/1.1/DTD/svg11.dtd">
<svg version="1.1" id="Layer_1" xmlns="http://www.w3.org/2000/svg" xmlns:xlink="http://www.w3.org/1999/xlink" x="0px" y="0px"
	 width="600px" height="400px" viewBox="0 0 600 400" enable-background="new 0 0 600 400" xml:space="preserve">
<g id="Layer_1_1_">
	<g id="Layer_2_1_">
		<path d="M64.5,67c0,0,40,3.5,95-4c0,0,7.5,23,11,27c0,0-9-11-16-13.5s-26-3-27.5,0s-6,78-1.5,86.5s6,9.5,10,11.5
			c0,0,2.167,1.333-0.333,2s-44,10.667-47.167,12.167S87.167,186,88,185.5s9.833-6.833,10.5-17.833s7-46.167,0.75-86.167
			c-1.5-5.5-15-6.75-24.75-1.25s-19.75,15.5-19.75,15.5S62.75,75,64.5,67z"/>
		<path d="M205.25,99.25c0,0-23.25,0.5-38.25,3.5s-35.75,21-35,40.5s13.5,29.75,23,29.25s23-6.75,24.25-22.75
			c0,0-6.75,10.75-15.5,6.75s-12.5-9.5-5.75-27.75s21.5-16,21.5-16s-1.25,35.5,1.25,43.5s5.75,13.5,8.75,13.5s19.75-9,21-18.75
			c0,0-4.75,6.25-7.25,3.5S192.75,129.5,205.25,99.25z"/>
		<path d="M209.25,97.75c0,0,9.25,6.25,8.75,30.5s-11.5,37.5-11.75,38.25c0,0,11.75-6.25,17.25-7.5s15-1.75,15-1.75s-4-4.25-4-10.25
			s0.75-25.25,0.75-25.25s1.25-13.25,12.25-13s9.75,11.75,9.75,11.75l0.043,31.25c0,0,0.707,11.5,29.457,18c0,0-9-6.5-9.25-13.75
			s0.25-41-2.25-45.5s-11.5-14.75-22.5-15S237,102.25,237,102.25l0.25-4.5C237.25,97.75,212.25,100.25,209.25,97.75z"/>
		<path d="M350.167,49c0,0,4.999,3.834,6.666,9.167s4.335,80,2.001,88.667S350.5,162.5,350.5,162.5s8.001-3.333,15.334-2
			s21,7.455,28,10.728s10.666,1.606,10.666,1.606s-22-5.667-25-20s-3-84.667-3-84.667s0.999-14.333,6.333-18.333
			C382.833,49.833,355.5,51.667,350.167,49z"/>
		<path d="M409.75,132c0,0,15.5,6.25,20-5s0-16.25-5-14.75s-22.25,16.75-15,36s34.5,17.5,39.25,4.5c0,0-3.839,24.602-31.75,20.508
			c-27.911-4.094-38.25-31.258-29-49.758s32.25-28.25,48.25-17.75s17.25,26,7,34.5S415.5,146.75,409.75,132z"/>
		<path d="M325.75,97c0,0,1.75,2.75,1.75,5.5c0,0-20-9.75-36.5,5.75s-9.25,52.75,6.25,56.5s25.25,0.25,32-5.75
			c7.75,33.5-35.75,87-97.25,72s-2.984-81.544,35.5-49c11.825,10,11.825,27-16,18.502c0,0,6,9.498,17,10.498s30.5-10.5,18.25-26
			s-57.75-34.5-87.25-4s11,75,78,62.199C363.645,226.74,346,134.5,349,122.5c0,0,2-20,5.5-25.5C354.5,97,336.75,99.75,325.75,97z
			 M329.75,130c-0.25,11.75-6.375,24.5-13.349,25c-6.219,0.446-12.401-3.25-13.401-21c-0.521-9.239,6.25-23.992,16.5-22.871
			S330,118.25,329.75,130z"/>
		<path d="M540.5,68.25c0,0-6.75-5.75-17.75-2.25s-27.5,5.5-33.75,4c0,0,7.25,7.25,8.5,16.5s-0.25,26.5-0.25,26.5s-11.5-3.75-18-3.5
			s-28.572,10.25-28.161,39S472.5,179.25,476.25,179s18-6,21.25-9c0,0-0.5,6.268-6.5,10.75c0,0,5.75-2.465,12.75-1.732
			c0,0,14.91,3.583,20.5,9.732c0,0,4.25,2.25,8.5,0c0,0-12.75-1.234-15-15.492C515.5,159,514,98.25,517,90.25S524.5,66,540.5,68.25z
			 M497.25,152.75c-1.458,5.875-6,12.25-14.5,12.25s-12.184-11.295-11.25-21c1.25-13,7.5-21,13.256-23.25s11.837,3.32,12.494,6.56
			C498.176,131.875,498.468,147.843,497.25,152.75z"/>
	</g>
	<g id="Layer_3_1_">
		<path d="M122.75,311.25c-1.25,0.25-2-0.5-4,0s-3.5-1.645-4.75,0.053c-1.25,1.698-4.25,2.197-4.25,2.197s-1.5-0.25-2.75,0
			s-1.5-1.25-3.25,0s-2.5,0.75-3.5,1.5s-1,1.25-2.25,1.5s-0.75-0.75-2.25,0s-1,0.332-2.75,0.041s-1.75-0.291-1.75-0.291
			S89,314.061,90,313.78c1-0.281,1-0.28,1-0.28s1-1.727,1.5-2.863c0.5-1.136,1.5-2.887,2-4.637s0-2.5,0.5-3.25s0.25-3.25,0.25-3.25
			s0.75,1.25,0.5-3.75s-0.75-5-0.5-6.5s-1,1.5,0.25-1.5s1-2.25,0.75-4.25S96,284,96,281.5s-0.5-1.5-0.25-3.75S96.5,277,96,275.5
			s-0.25-1.5-0.75-2.75s-0.25-4-0.25-4s-0.25-0.5,0-1.75s0.25-1.25,0.25-2.5s-0.25,2.75,0-3.25s0.25-6,0.25-6s0.75,0,0.75-1.75
			s1,0,0-1.75s-0.75-3-1.25-3.75s0.75-0.34,0.75-2.545s0.25,3.045,0-2.205s0-3.75-0.25-5.25s-0.5-2-0.25-2.75s0.25-0.25,0-2.75
			s0,0.5-0.25-2.5s0-1.25-0.25-3s-0.25-2.5-0.5-3.25s-0.5-2-0.75-2.75s-1.5-3-1.5-3l-1.25-1.5l-1.006-1.5c0,0-0.994-1.5,1.006-1.25
			s1-0.057,3.75-0.027c2.75,0.028,1-0.223,2.75,0.027s0.5,0,1.75,0.25s2.5-0.725,3.25-0.361c0.75,0.362,2-0.027,2.75-0.082
			c0.75-0.057,1-0.445,2.5,0c1.5,0.443,1.25,0.635,3.5-0.211s0.25-1.096,2.25-0.846s2.75-0.686,3.75-0.093s-1,0.093,1,0.593
			s-0.25-0.5,2,0.5s-0.25,0.75,2.25,1s0.75,0.5,2.5,0.25s0-0.5,1.75-0.25s1.75,0.25,1.75,0.25l5.25-1.5c0,0,0.25,0,2,0.5
			s-1,0.25,1.75,0.5s0.75,0.25,2.75,0.25s2.25-0.5,3.25,0s3,0.25,3,0.25l2-0.25l2-0.25c0,0,1.25-0.25,2.5-0.25s-0.5,0,1.25,0
			s1.75,0,1.75,0h2.5v1.25c0,0,0.25,1,0,2s-1.75,5.25-1.75,5.25s2.473,0.25,1.861,1.75c-0.612,1.5-0.861-0.5-0.611,1.5
			s-1,2.75-0.5,3.5s0-0.5,0.5,0.75s0.5,0,0.5,1.25s0-1.25,0,0s0.208,2.5,0.208,2.5l-2.208-0.5C155,231.5,155,231.5,155,231.5
			s-0.5-0.75-2.5-1.5s-0.75-0.75-2-0.75s-1.25,0-1.25,0s2.75,0,0,0s-4,0-4,0L143,229.5c0,0-1.5-0.5-2.75-0.75s0.25-0.25-1.25-0.25
			s-1.5,0.25-2.75,0s0.25-0.25-1.25-0.25s0.5-0.5-1.5,0s-0.5,0.75-2,0.5s0,0-1.5-0.25s-1.5-0.25-1.5-0.25l-1.75,0.5
			c0,0-0.25-1-1.25-0.5s0.205,0.25-1.522,0S122.25,228,122.25,228s-1,0.75-1.75,0.75s2.5,0-0.75,0s-3.25,0-3.25,0s-1,1.25-1.5,2.25
			s-1.5-0.75-0.5,1s1,1.75,1,1.75l1,1.75c0,0-0.5,1.75-0.25,2.75s0-0.75,0.25,1s1,0,0.25,1.75s-0.75,1.75-0.75,1.75s-1.25-0.5-1.5,1
			s-0.5,0-0.25,1.5s0.25,1.5,0.25,1.5s-1-1.5,0,0s0,0,1,1.5s1,1.5,1,1.5s0,0.5,1.25,0.75s-1,0.25,1.25,0.25s0.25-0.25,2.25,0
			s-4.295,0.25,2.728,0.5S131,251.5,131,251.5l3.25-0.75h1.25c0,0-1.75-0.75,1.25-0.5s3,0.25,3,0.25H141l1.25-1
			c0,0,1.25-0.75,2-0.75S145,250,145,250c-0.25,2.75-0.25,2.75-0.25,2.75l0,0l1.75,1.25c0,0,1,0.75,2,1s-0.75-1,1,0.25
			s1.75,1.25,1.75,1.25l0,0l1.25,1.25l-2.25,1.75c0,0-1,0.25-2,0.5s1-0.25-1,0.25s-2,0.5-2,0.5l-1.25,1.5l-1.5,2.314l2,2.686l-0.5,2
			c0,0-0.25,0.25-1.5-0.75s-1.25-1-1.25-1s1.5,0.5,0,0s-2-1-3.25-1s-1.25,0-1.25,0l-2.25-0.25L133,266c0,0-0.75-0.5-1.75,0
			s-2.5,0.25-2.5,0.25L127,266h-3.022c0,0,1.978-1.621,0-1.436C122,264.749,122,264.75,122,264.75s1.5,0,0,0s-3-0.186-3-0.186
			s0-0.188-1,0c-1,0.186-1,0.186-1,0.186l-0.5,1.5c-0.5,1.25-0.75,3-0.75,3s0.25,0.5,0.25,1.5s-0.5-0.25,0,1s-0.25,0,0.5,1.25
			s0.75,1.25,0.75,1.25l-1,3c0,0,0.5,1.5,0.5,2.75s-0.25,2.75-0.25,2.75c-0.25,1.75-0.25,1.75-0.25,1.75s0.25-1.75,0,0
			s-0.25,1.75-0.25,1.75l0.75,1.5l-0.5,2c0,0-0.25,0.5,0,1.25s0,2.25,0,3s0-1,0,0.75s-0.25,3-0.25,3l0.25,1.75l1,1.75
			c0,0,0,0.75,0.25,1.5s0.25,2.25,0.25,2.25l0.75,1.25c1.5,1,1.75,1.25,2.75,2.25s0.5-0.75,1,1S122.75,311.25,122.75,311.25z"/>
		<path d="M161,224c0.75,0.25,0.25-1,1.75,0s-0.25,1.25,1.5,1s-2.25-0.25,1.75-0.25s2-0.5,4,0s2.25,0.43,3,0.34s2.25-0.71,2.25-0.71
			s0.5,0.38,1.5,0s1.25-1.167,2-0.772c0.75,0.396,2,0.722,2,0.722s0,0.073,1.25,0c1.25-0.076,0.25-0.578,1.5-0.827s0.5-0.251,2.5,0
			s2,0.251,2,0.251l1.723-0.438c0,0,1.277,1.152,2.027,0.922c0.75-0.231,0.75-0.233,0.75-0.233s1.75-0.877,2.5-0.688
			s3.274,0.906,3.274,0.906H200c0,0,0.25-1.647,1-0.935s0.5,0.475,1.75,0.845s1.5,0.178,2.5,1.021c1,0.848,7,3.349,7,3.349
			s1.25,1.25,2.25,1.75s-0.5-1,1,0.5s0.5,0,1.5,1.5s1.75,2.75,1.75,2.75s-1,0.25,0,1.25s-1.282,1.853,0,2.386
			c1.282,0.535,1,0.364,1.5,1.614s0.5,0,0.5,1.25s0-0.5,0,1.25s0-0.25,0,1.75s0,2,0,2v1c0,0,1.25,1.5,0,2.5s-2,1.75-2.5,2.5
			s0-1.25-0.5,0.75s-0.25,0-0.5,2s1.25,0.25-0.25,2s0,0.75-1.5,1.75s0.25,0.25-1.5,1s-1.75,0.75-1.75,0.75l-1.75,1.75
			c0,0-1-2-2.25,0s-2.75,2.063-2.75,2.063h-2h-1.25c0,0-1,0.937,0,1.437s0-1.5,2,0s2,1.5,2,1.5s-1.25-0.5,0,0s-0.5,0.25,1.25,0.5
			s-1.5,0,1.75,0.25s3.25,0.25,3.25,0.25h1l1.25,3c0,0,1.25,1.5,1.5,2.25s1.75,2.5,1.75,2.5s-1.25,0,1,3s0.361,2.75,2.306,3.75
			c1.945,1,1.944,1,1.944,1l2.25,2.5c0,0-0.25-1.75,1,0s1.25,1.75,1.25,1.75l2.25,2.5c0,0,0.75,0.75,1.5,1.5s2,1.25,2.75,2
			s0.75,0,2,1.25s1.25,1.25,1.25,1.25s-1.75-1.25,0,0s4,2.5,4,2.5s0.75-1,1.5,0s0.75,1,0.75,1l1.75,1.5c0,0-0.5,0,1.25,1.25
			s1.75,1.25,1.75,1.25s0-1.5,0,0s-1.25,1.25-1.25,1.25l-1.75,0.017H244c0,0-1.75-0.232-2.75,0c-1,0.233-1.5,0.768-2.75,0
			c-1.25-0.767,0.75-0.767-1.25-0.767s0,0.25-2,0s-2.5-0.75-3.5-1s-2.25-0.5-2.25-0.5h-2l-3-1.5l-2-1.25l-3.25-0.5l-1.25-1.5
			c0,0-1.5-0.75-2.25-1s-2.5-1.25-2.5-1.25s-0.5-1.25-2.25-2s-1.75-0.75-1.75-0.75s-0.25,0-1-1.5s0.75,0-0.75-1.5s-0.5,0-1.5-1.5
			s0-1.5-1.25-2.5s-1.75-1.5-2.5-2.25s-1.5-1.5-1.75-2.5s-0.25-1-0.25-1l-2.5-2.5l-1.25-1.75l-0.75-2c0,0-0.25-0.75-1-1.5
			s0.25,1.25-0.75-0.75s-1.75-3.75-1.75-3.75l-0.75-1.5l-1.777-2.437c0,0-1.223-0.313-1.473-1.063S187,261,187,261l-0.75-1.5
			c0,0-2-2-1.25-2s4.945,1,4.723,1.5c0,0-1.082-1.25,0.223-0.5c1.305,0.75-0.195,1.25,1.305,0.75s1.5-0.5,1.5-0.5l3-0.25
			c3.5-1.75,3.5-1.75,3.5-1.75s-1.5,0.5,0,0s2.5-3,2.5-3c1.25-0.5,3-1.75,3-1.75v-2.5V248c0,0-1.5-1.59-2-2.545s0,0.545-0.5-0.955
			s-0.5-1.5-0.5-1.5s-0.5-1.75-1.25-2.75s1.25,2-0.75-1s-3.25-5.5-3.25-4.75c0,0-1.75,0.25-2.5,0.25s-0.75,0-0.75,0
			s-2.805-0.75-3.527-1.25C189.002,233,189,233,189,233s-1.25-0.5-2.25,0s-1.75,0.25-2.25,1s-2.5,1-2.5,1.75s-0.75,1.75,0,3
			s1,2,1,2.75s-1.25,3.955-1.25,3.955c0.5,1.295,0.75,1.545,0.75,3.295s0.25,0,0,1.75s-0.5,2.25-0.5,3.25s-0.5,1.5-0.25,2.25
			s-0.75-2.25,0.25,0.75s1.25,6.75,1.25,6.75l-0.25,1.064v2.186c0,0-0.5,0.5,0,1.5s0.5-1.25,0.5,1s0,2.25,0,2.25s-0.75,1-0.5,2.5
			s-0.25,0,0.25,1.5s0.25,1.75,0.25,3s0-1.25,0,1.25s0,2.5,0,2.5s-0.25,0.75,0.25,2.25s1-0.75,0.5,1.5s-0.5,0.5-0.5,2.25
			s-0.5,0,0,1.75s0.75,3.25,1,4s0,3,0,3s0,1,0.25,2s-1.5,0.25,0.5,2.25s4.223,3.5,4.223,3.5v1.164c0,0-0.973-0.336-2.223,0
			s0.75,0.586-1.25,0.336s-0.5,0.25-2-0.25s-1.5-0.5-1.5-0.5s2,0,0,0s-2.5-1.25-3.25-1s-0.75,0.25-0.75,0.25s1.25-1.25,0,0
			s-4.75,0.5-4.75,0.5c-2,0.5-0.25,0-2,0.5s-1.75,0.5-1.75,0.5s-0.75-0.297-1.75,0.102c-1,0.399-1.5-0.646-2.25,0
			c-0.75,0.648-2,0.094-2,0.094l-1.75,0.224H161c0,0-1.75-1.916,0-2.166s1.75-0.25,1.75-0.25s-2,0.75,0,0s2-2.75,2-2.75
			c0.25-2,0.25-0.25,0.25-2s-0.75-4.25-0.75-4.25c0.25-2-0.25-2.75,0-3.5s-0.5,1.25,0.25-0.75s0.25-0.5,0.75-2s1,0.75,0.5-1.5
			s-0.5-2.25-0.5-2.25s-0.75-1.5,0-2.5s1.75-1,0.75-2.5s-1.5-2.5-1.5-3.25s0-0.75,0-0.75V273c0,0-0.25-0.5,0-1.75s1-1.75,1-2.75
			s0.5,1.25,0-1s0.25,0.75-0.5-2.25s-0.75-3-0.75-3V261l0.25-2.75l-0.5-2c-0.5-2-0.5-2-0.5-2v-3.5l0.75-2c0,0-0.25-0.5,0-1.5
			s0-1.795,0-1.795L163.5,243c0,0-0.5,0.25-0.5-1.75s0-2.75,0-3.5s0-1.75-0.25-2.5s-0.5-2.5-0.5-2.5v-2.5l0.25-2.25
			c0,0-0.75-0.75-1-1.5S161,224,161,224z"/>
		<path d="M286.25,219.75c0,0,2.25,2.527,3,2.389c0.75-0.138,0.811,0.484,1.75,0.967c0.939,0.483-2.121-1.18,0.939,0.482
			S293.5,224,295,225.25s1.5,1.25,1.5,1.25s1.5,1,2.25,1.5s1.254,1.25,1.254,1.25s1.996-1.75,2.496,0
			c0.062,0.217,0.146,0.452,0.247,0.697c0.278,0.678,0.678,1.433,1.062,2.098c0.594,1.031,1.147,1.852,1.147,1.852l2.294,1.854
			l-3.964-4.61c0,0,0.589,0.545-0.724-1.673c-1.313-2.217-2.308-3.217-2.562-2.967s-0.254,0.25-0.254,0.25l-1.5-1.25l-1.5-0.75
			l-2.307-2.61c-1.443,0.11-2.193,1.141-2.943,0c-0.75-1.14-0.748-1.141-0.748-1.141s2.75,1.25,0,0S286.25,219.75,286.25,219.75z"/>
		<path d="M310,224.25c0,0,1,0.75,1.5,1.5s-1.5-2.5,1.25,2s2,3,2.75,4.5s0.75,1.5,0.75,1.5s0.773,1.219,1.75,2c2.5,2,1,4,2.5,2
			s1.5-2,1.5-2h2.5l3.25-1.25l6.5-3.086c0,0-1,1.086,2,1.836s3,0.75,3,0.75s1.25-0.25,2.25,0s4.25-0.25,4.25-0.25s-1.75,1.25,0,0.75
			s0-1,1.75-0.5s1.75,0.5,1.75,0.5l1.5-0.25c0,0,0.75,0.5,0,1.5s-2.25,2.828-2.25,2.828H347c0,0-0.25,0.922-0.75,1.922
			s-2,2.75-2,2.75s-1.25,1.91-1.75,2.205s-1,0.795-1.25,1.545s-1.5,2.75-1.5,2.75s-0.75-0.25-1.5,1.5s0.25,0-0.75,1.75
			s-2,3.25-2,3.25l-1,2c0,0-0.5,1-1.25,2.25s-2.166,1.096-2.708,2.923s0,3.327,0,3.327l-1.042,2c0,0-0.75,2.75-1.5,2.75
			c0,0-2.5,3.25-3,4s-0.5,0.75-0.5,0.75s-0.75,1.5-1.25,2.5s1.5-2-1.5,3s-0.5,2.75-0.5,2.75l-2.5,2.25c0,0-1.25,1.25-2,2
			s-2.312,3.25-2.312,3.25l-1.188,1.5c0,0-0.25,0.75-1,1.25s1.25-0.5-0.75,0.5s-0.75,0.5-2,1s0.5-1-1.25,0.5s-1.75,1.5-1.75,1.5
			l-2.5,2.5c0,0-1,0.75-2,1.25s-1,3.662-2,2.706s-1-0.044-2,0s-1,0.044-1,0.044s4,0.162,4.75-0.044s2.5,0,2.5,0s0.25,0.956,1.75,0
			s-1.25-0.206,1.5-0.956s5.5-1.25,5.5-1.25s-1.625,1,1.438,0.25c3.063-0.75,0.812-0.5,3.062-0.75s3.25-0.5,4.25-0.75
			s2.292,0.5,2.292,0.5S326,302,327,302s-0.75,0.5,2.25,0.25s0.25-0.5,3-0.25s1,0.25,2.75,0.25s1.75-0.25,3-0.25s1,0.25,4,0.25
			s0.75-0.25,3,0s4.916,0.5,6.083,0.25s3.417,0.5,3.417,0.25s0.75,0.25,1.5,0.25s1.5-0.5,2.5-0.25s-1,0,1,0.25s4,0.25,4,0.25h2
			l1.75-0.75c1.25-0.25,1-1.5,1.5-2.75s-1.25-1,0-2.5s0.25,0.75,1.25-1.5s1.25-3,1.5-3.75s-0.75-1,0-2s0.648-4,0.345-3
			c-0.303,1-0.263-1-0.304,1S369,290,369,290s-2,1-3.25,1s-2.5,0.5-2.5,0.5H362l-1.25,0.25l-3.5-1l-1.25-0.5
			c-1.25,0.5-1.5,1.75-1.5,1.75s-1.75-0.5-2.5-0.25s-1.75,0-2.5,0s1.5,0-0.75,0s-3.25,0.5-4.25,0.25s2,0.25-1-0.25
			s-2.75-0.25-4.25-0.75s0.25-0.5-1.5-0.5s-2.428,0.5-3.214,0.25s-1.464-1.75,0-2S336,288.5,336,288.5s0.25-1.25,1.25-2
			s1-0.75,1-0.75s0.25-0.75,1-1.75s0.75-2,1.5-2.5s0.75-0.5,0.75-0.5l0.75-2.5c2.25-4.25,2.25-4.25,2.25-4.25s-2.25,2.75,0,0
			s2.25-2.75,2.25-2.75l2-1.75c1.5-2,1.5-3.25,1.5-3.25l0.25-1.614c1.25-0.636,2-2.136,2.5-2.886s0.5-2.5,1.5-3s0.5-1,1.25-1.75
			s0.75-0.75,0.75-0.75s1-1.75,1.5-2.5s0.5-0.75,0.5-0.75l1.5-3l0.75-1.25c0,0,0-0.75,1-2s2-3.25,2-3.25s1-1.25,1.25-2
			s0.25-1.25,0.75-2s0.75-1.25,1.25-2s1-2,1-2s-0.75,0,0.75-1.75s-0.25,0.25,1.5-1.75s0.396-1.5,1.823-3.25s0.427,0.5,1.427-1.75
			s1-2.25,1-2.25l0,0c0,0-1-1.5-1.75-0.75s-2,1-2,1h-1.25c0,0-0.75-1.92-1.5-1.21s-0.75-0.524-1.75-0.157s-1.25,0.242-2.25-0.07
			c-1-0.312-2-0.438-3.5,0c-1.5,0.438,0.25,0.438-1.5,0.438s-2.75-1.44-3.5-0.721c-0.75,0.719-3.75-0.202-3.75-0.202
			c-0.75,1.173-1.25,0.673-2,1.173s-2.75-1.173-2.75-1.173s-0.5-0.173-1.25,0s-1.25-0.327-2.25-0.077s-3-0.071-3-0.071
			s-2.75-0.07-3.5,0c-0.75,0.071,2-0.429-0.75,0.071s-7.5-0.146-7.5-0.146c-4.5,0.896-6.5,1.146-6.5,1.146l-2.584-0.415
			l-1.166,0.415l-2.25-1.146l-1.812,1.146l-2.938-1.146L310,224.25z"/>
		<path d="M377.75,223.025l1.5,3.475l1.25,1.25c1.5,2.5,1.25,1,1.5,2.5s0.5-0.75,0.25,1.5S382,232,382,234s0.707,5,0.354,6.25
			c-0.353,1.25,0.304,1.75,0.102,2.75s-0.218,1.16,0.04,2.455s0,3.545,0,3.545s0.221,2.75,0.114,3.5c-0.107,0.75,0.026,3,0.026,3v3
			v4.923c0,0-0.112,0.577,0,1.827c0.114,1.25,0.388,1.25,0,2.75c-0.386,1.5,0.036-0.75,0.2,3.5s0.086,4,0,5.5s0.527,2,0.096,2.75
			c-0.431,0.75-0.432,0.75-0.432,0.75l0.587,3.5c0,0,0.587,0.25,0,1.75s-0.587,3-0.837,4.5s-0.5-1-0.25,1.5s-0.25,3.75-0.25,3.75
			s-2.152,1.75-1.201,2.75s0.549,1.75,0,2.5s-3.049,1.5-2.799,1.75s1.465,1-0.018,1.25C376.249,304,376,302.5,376.25,304
			s4-0.5,4.75,0s2.348,1.131,2.348,1.131s0.902,0.531,2.152-0.425s2.5,0,2.5,0s0.75-1.706,1.75-1.206s1.5,1.912,3.25,1.206
			s1.75-1.456,3-1.206s-0.75,0,1.25,0.25s0.25,0.5,2,0.25s6.5,0.706,6.5,0.706s-0.5,1.206,1.25,0s-0.5-1.206,1.75-1.206
			s1.5,1.912,3.25,1.206s0.25-1.456,1.75-0.706s1,0.662,2.5,0.706s3.5,0.601,4.5,0.571c1-0.028,1-0.027,1-0.027s1.75,0.309,3,0.029
			c1.25-0.28-1.25,0.221,1.25-0.279s1-0.75,2.5-0.5s-0.5-0.238,3,0.631s4.5,0.266,4.5,0.266l1.5,0.205l1.5-2.102c0,0-0.5-1.5,0-2.25
			s0.5-0.75,0.5-0.75s0-1.75,0-3.5s-0.5-2.25,0-3s0-1.75,0-1.75l-1.25,0.75l-1.25,1c0,0-1.25,1.5-2.25,1.25s1.5,0-1-0.25
			s-4-0.25-4-0.25s-3.75-0.25-5-0.25s0.25,0-1.25,0s-2.5,0-3.5,0s-2.25-0.25-3-0.5s-0.75-0.25-0.75-0.25l-3-0.5
			c0,0-2.5-0.5-3.25-0.75s-3.25,0-4.25,0s1.25,0-1,0s-2.25,0-2.25,0l-1.5-1c0,0-0.25,0-0.25-1.75s0.25-3.25,0.25-3.25
			s0.25,0,0.25-1.75s0.25,0,0-1.75s-0.75-2.5-0.75-3.5s-0.25-3-0.25-3s0.25-0.5,0.5-3s0-1,0.25-2.5s0.25-1.5,0.25-1.5
			s-3,0,2.25-0.25s3.25-0.5,5.25-0.25s-0.5,0,2,0.25S409,269.75,415,270s6,0.25,6,0.25s-2-0.25,0,0s1.5-1,3.5,0s2,3.75,2,1
			s0.75-1.5,0-2.75s0.75,1.25,0,0s-2,0.25-0.75-1.25s1.25-1.5,1.25-1.5s-2.75,2.25,1.25,0s5.25-2.154,6-2.327s1.5,1.077,0.75-0.173
			s-1.25-1.75-2-2s1.75,1-0.75-0.25s-3.25-1-3.75-1.75s-1.5-0.75-2.25-1.5c0,0-1.5-1-1-1.75s-0.25,1.25,0.5-0.75s0-1.25-0.75-1.25
			s-0.75,0-0.75,0s1.5-1.25,0,0s-3,1.5-3.75,1.75s1-0.25-0.75,0.25s-1.75,0.5-1.75,0.5s-1.5-1-2.5-0.75s-1,0.25-1,0.25
			s-0.75,0-3-0.25s2,0-2.25-0.25s-5.75,0.25-5.75,0.25c-1.5-1.5-1,0-1.5-1.5s-1.25-2-1.25-3s0-1,0-1s0.5-1.5,0.75-2.25
			s0.25,2,0.25-0.75s0-2.25,0-4s-0.25-1.5-0.25-3s-0.25-1.5,0-3s1.75-1.5,1.75-1.5s0.5-0.25,1.5,0s-0.75,0.25,1,0.25s-0.75,0,1.75,0
			s-5.25-0.75,2.5,0s7.75,0.75,7.75,0.75s-2.75,1,0,0s2.75-1,3.75-1s2,0,2,0s0,0,1.5,0s-0.25-0.25,1.5,0s0.5,0.5,1.75,0.25
			s1.75-0.75,2.5-0.25s-2.5-0.25,0.75,0.5s4.25,2.25,4.25,2.25l1.25,0.75l0.25-3.5l-0.25-2c0,0-0.25-1.5-0.25-2.25s0-3.75,0-3.75
			S436.5,227,436.5,226s0-1,0-1s-0.25,1.5,0,0s2.25-1.949-1-1.975c-3.25-0.026-3.25-0.025-3.25-0.025l-3,1.25c0,0,0,1-1.5,0
			s-3.5-1.25-3.5-1.25s-0.75-0.199-1.75,0.025c-1,0.224,1,0.475-1,0.225s-4.25-0.225-4.25-0.225h-1.5c0,0-1-0.438-1.75-0.106
			s-2.5,0.106-2.5,0.106s-2.363-0.728-3.557,0c-1.194,0.725-1.193,0.725-1.193,0.725l-2.25-0.725c0,0-0.75-0.728-3.25,0
			c-2.5,0.725-3.25,2.225-3.75,1.475s0-2.699-1.5-1.475c-1.5,1.224-2.25-0.978-3,0c-0.75,0.975-3,0.975-4.25,1.475s-2.5,0.5-2.5,0.5
			l-2.5-1.975l-1.5-0.396l-1.75-0.49H378L377.75,223.025z"/>
		<path d="M517.5,317.75v-3.25c0,0-0.5-0.75,0-1.5s-0.25-1,0-2.25s-0.023-3.25-0.023-3.25l0.199-2.369c0,0-0.223-1.381-0.199-2.131
			c0.024-0.75-0.172-0.5-0.196-2c-0.027-1.5,0-4.25,0-4.25s0.004,0.25-0.015-2.5c-0.016-2.75,0-4.75,0-4.75s0.252,0.5-0.007-1
			s1.009-2.5,0-4.5s-1.509-3.5-1.509-4.75s0-2.75,0-2.75s0.426-1.25,0.963-2s0.963-1.75,0.963-1.75v-1.5v-2c0,0,0.176-0.75,0-2.25
			s-0.176,1-0.176-1.5s0,0.5,0-2.5s0.25-1.25,0-3s-0.996-2.25-0.748-3s0-5,0-5v-3c0,0-0.498-2.75,0-3.5s1.256-2.25,1.002-3.25
			s0.051-3,0.051-3s-1.25-1.75-1.024-2.75c0.223-1,0.024-3.75,0-4.5c-0.027-0.75-0.226-2.5,0-3.25c0.223-0.75,0.274-2.5,0-3.25
			c-0.277-0.75,0-3.361,0-3.361V219l2.223-2l1.5-1.75c0,0,0.5,0.5,1.25,0s0.75-0.5,0.75-0.5l0,0c0,0-0.25-2.5-1.25-2
			s-2.5-0.633-3.5-0.066c-1,0.567-1,1.816-2,1.066s-2.25-1.229-2.25-1.229l-2.25,1.229c0,0-0.25-1.709-1.75-1.229
			c-1.5,0.479-1.25-0.649-2.5-0.086c-1.25,0.562-1.75-0.891-2.5-0.162c-0.75,0.728-3.25-0.207-3.25-0.207h-1.75h-2
			c-0.75,1.435-1.25-0.565-0.75,1.435s1.75,3,1.75,3l1.25,1.5l1,1.75c0,0,1,1.526,1,2.39c0,0.861,0.25,1.11-0.25,2.61
			s-0.5,0.25-0.5,1.5s1,9,1,9l0.25,2.25c0,0-0.25,1,0,1.75s0,2,0,2v1.5l-0.75,2.75l0.25,2c0,0-0.25,1.25,0,2s0,1.25,0.25,3.25
			s-0.25-2.5,0.25,2s1,6,0.75,7s-0.25,1-0.25,1s-0.75,2.738-1.5,1.119s-2-3.869-2-3.869s-0.5-1.5-1.25-2.25s-1.451-2-1.451-2
			l-3.299-2.25c0,0-1-1.5-2-2s-1.5-1.75-2.75-2.75s-0.75-1.5-2.25-2.75s0.5,0.5-1.5-1.25s-2.75-2.5-3.5-3s-2-2.25-2.75-2.75
			s-1.25-1.5-2.75-3s-1.5-2-2.75-3.25s-1.5-1.75-2.5-2.75s-2.75-3.5-3.5-3.5s-3-1.25-3.75-2s0-0.224-2.5-2.36
			c-2.5-2.139-0.75-0.89-2.5-2.14s-1.75-1.25-1.75-1.25l-2.5-2c0,0-2-2.25-2.25-1.5s-1.5,0.25-2.25,0.5s-2.75,0.5-2.75,0.5l-2,0.25
			v4.25v4V227c1.5,0.75,2.25,3.5,2.25,3.5l-0.75,2c0,0-2.5,1.5-1.5,2.25s1.25,4.75,1.25,4.75l-1.483,1.25c0,0-0.986,2,0,3
			c0.983,1,0.983,3,0.983,3l0.25,3V257c0,0,0.25,0.5,1,1.5s0.75,1,0.75,1s0.25,0.25,1,1.25s1,3.328,1,3.328l-0.25,0.829
			c0,0-0.25,1.343-1,1.843s-0.75,0.5-0.75,0.5l-0.75,3.25c0,0-0.25,0.5-0.75,1.25s-0.5-1.25-0.5,0.75s0,2,0,2l0.75,3
			c0,0,1,1.25,0.75,2.5s0-0.75-0.25,1.25s0,6,0,6l-0.5,2.5c0,0,0.25-0.25-0.25,1.75s-0.5,0.5-0.5,2s0.5,3.25,0.5,3.25
			s-0.75,0.75-0.75,2s-1.85,2.5-1.175,3.25s0.675,0.75,0.675,0.75s1.104,1.951-0.823,2.852c-1.929,0.899-1.93,0.898-1.93,0.898v1.5
			l4.75-0.5h1.5c0,0,1.25-0.25,2.25,0.25s4.5-0.5,4.5-0.5l2.5,0.5c0,0,1-0.25,2-0.25s2,0.75,2.75,0.75s0.75,0,0.75,0l1.501,0.5
			l0.749,0.25l-1.5-3.398l-1.25-1.852l-0.75-1.25c0,0-0.75-1.75-0.75-2.75s-0.5-2.25-0.25-3s-0.25-2.25,0-3.75s0.25-1.5,0.25-1.5
			s0-2.5,0.25-3.25s0-0.75,0-2s0-2.5,0-3.5S461,279,461,279l-0.75-3.25c0,0-0.25-2,0-3s0.5-2,0.75-2.75s0-2.25,0-2.25v-2.843
			L460.5,261l0.5-1.5c0,0-0.5-2.25-0.5-3s-0.25-2.5-0.25-2.5s0.5-3.75,1-2.75s2.75,2.25,2.75,2.25l2,1.5l2.25,2.75L469,259l1.5,2.5
			c0,0,1,0.25,1.75,0.75s2,1.619,2,1.619s0.75,0.195,1.5,1.038s0.75,0.843,0.75,0.843l2,1.75l1.25,1l2.5,0.5c0,0,1.25,0.5,2,1.25
			S485,271,485,271l3.25,3.75c0,0,1.25,1.5,1.5,2.25s0.25,2.25,0.25,2.25l1.25,2.25l1.5,1l1.75,1.75l1.75,0.75l1,1.25
			c0,0,0.75,1,1.75,2s1,1,1,1l1.5,2.25c0,0,1.25,1.25,2,2s2.25,3,2.25,3s0.5,0.75,1,1.75s2,3,2,3l1.5,2l3,4.25l1.25,2.75
			L517.5,317.75z"/>
		<path d="M314.25,264.886c-0.25-1.364,0-1.386,0-1.386s0-2,0-4.25c0-0.34,0-0.568,0-0.729c0-0.013,0-0.084,0-0.271
			c0-0.014,0-0.027,0-0.041c0-1.006,0-2.709,0-2.709v-2.25L313,250.5l-1.5-2c0,0,0.75-2.25,0-3.5s0,0-0.75-1.75s0,0-1.5-0.75
			s-1.5-0.25-1.5-0.25l-2.25-1.75c0,0,0,0-0.75-0.75s1.25-1,0-2.25c0,0-1.25-1-2.592-2.195L300.5,233c0,0,0,0-0.5-0.75
			s-1-1.25-2.5-3s0,0-2-1.25s0,0-1.75-1s0,0-0.75-0.5s-1.25-0.75-1.25-0.75s-1.984-1-2.496-0.743
			c-0.512,0.257-2.254-0.757-3.004-1.901c-0.75-1.144-2,0-2,0s-1.5-0.104-2.25,0c-0.75,0.105-1-0.104-2,0c-1,0.105-1.25,0-1.25,0
			s-1-0.354-2.5-0.604s0,0-1.75,0s0,0-2.389-0.25c-2.389-0.25-1.111,0-1.111,0s0,0-1.25,0.549c-1.25,0.551-1.25,0.451-2.5,0.102
			c-1.25-0.353-1,0.353-2,0.207s-1.5,0.896-2.25,0s-2.5,1.396-2.5,1.396h-2c0,0-1.75,0.25-3.25,1.5s-1-0.25-1.75,0s-1.25,0.25-3,1.5
			s0,0-2,1.75s-2.75,1.5-3.5,1.5s-1.293,1.541-1.293,1.541l-2.201,1.188c0,0,8.748,1.053,13.988,0.709c0,0-0.496-1.942,1.213-1.984
			c1.25-0.75,0.043,0.549,1.293,0.549s0,0,1.25-0.25s1.5,0,1.5,0l3.5-1l2-0.5h2l1.5,0.25l2.361,0.084c0,0,0.639-0.334,2.389-0.084
			s0,0,0.5,1.25s2.25-0.5,3-0.25s2.5,0.75,2.5,0.75s0,0,0.5,1s1.25,0,1.25,0s0,0,1,0.5s1.5,1,1.5,1s0,0,1.5,1.75s0,0,2.25,2.75
			c0,0,1.063,1.301,0.997,1.221C289.563,241.3,288.5,240,288.5,240s0,0,1,1.25s1,1.75,1.75,2.5s1,1.705,1,1.705s0.75,1.045,2,3.545
			s0,0,1.5,3.25s0,0,0.25,2.25l0.75,5v1.25v1.5c0,0,0.25,1.5,0.25,3.5s0,0-0.25,1.5S296.5,268.5,296,270s0,1.25-0.25,2.25
			s-0.5,1.75-1.25,3.25s0,0-0.5,1.5s-1.5,1.5-2.75,2.25s-1,1.5-2.25,2.25s-0.5,1.25-1.5,2.75s0,0-3,2.75s0,0-2.75,1.25
			s-1.5,0.5-3.5,0.5s0,0-1.75,0.5s0,0-3.75-0.25s0,0-3.5,0s0,0-1.5-0.25s-1.5,0.25-2.75-0.25l-1.75-1.25l-6.5-3L253,282l-0.75-1.5
			c0,0-1.75-3.25-2.25-4s-1.75-0.75-3.75-2.5s0,0-0.75-1s-0.25-1.75-0.25-1.75s0,0-0.5-1s-0.5-1.5-1.25-3.75s0,0,0-2s0,0,0.25-2
			s0,0,1-2s0,0,0.25-1s0.25-1.25,0.25-1.25s1.25-1.5,1-3.5l-0.75-2.25c0,0,0,0,4-1c0,0,0,0,2-1.75s1.75-1,1.75-1s0,0,2.25-1.5
			s1.25,0,4.25,0.25c0,0,0,0,1.5-0.25s0,0,1.25,0s1.25,1,1.25,1l1.5,1.25L266,251l0.75,1.25c0,0,2.5,0.25,2.75-1.25
			c0,0,0,0-0.5-0.75s-0.75-1.5-0.75-1.5s-0.75-1.25-1.5-2s-1.439-0.953-2.689-2.703c0,0-5.644,0.923-17.436,0.006
			c-1.5,0.75-0.125,0.947-2.125,1.947s0,0-3,1.25s0,0-0.75,1s-1.5,0.75-2.25,1.25s-2.25,3-2.25,3l-1.75,2c0,0,0,0-0.75,1.75
			s0,1.25-0.5,2.5s-2,2.75-2,2.75v3.064c0,0,0.25,0.686,1.278,3.436c1.028,2.75-0.028,2,0,2.75c0.028,0.75,0,3.25,0,3.25v2.5
			l1.222,3.25l1,3c0,0,0.75,2,1,2.75s1,1.25,1.75,1.75s2,1.5,3.25,2.25s1.5,2,1.5,2s1.75,1.5,2.5,2.25s2,1.75,2,1.75l3.75,3.25
			c0,0,1.75,0.75,2.75,1s1,1.5,2.5,2.5s0,0,1,0s1.25,0.75,2.5,1s3.75,1.456,3.75,1.456h2c0,0,1-0.456,1.75-0.073s1-0.883,2.75-0.271
			c1.75,0.613,2.611,0,2.611,0l2.389-0.108c0,0,1.75,0.25,3.25,0s0,0,1.5-0.354s1,0.354,2.5-0.146s1.75,0.5,2.75,0s2.5,0,2.5,0
			s0,0,1.5-1.5s1.25-2.25,1.25-2.25l1.5-1.5c0,0,0,0,1.75-1.75s0,0,1.25-0.75s2,0,2.5-2s2,0,2,0s0,0,1.75-0.75s0,0,1-0.5
			s1.5-1.25,1.5-1.25l2.5-2.5c0,0,1.5-1.75,2.25-2.25s0.75-1.5,1.5-2.25s-0.5-3-0.5-3s1.25-0.75,1.75-1.75s1-1.25,2.25-2.75
			s0,0,0.25-1.25s0.25-1.25,0-3.5s1-2.5,1.25-3.25S314.5,266.25,314.25,264.886z"/>
		<path d="M235.666,243c0,0-0.062,1.436-0.803,2.637c-0.741,1.201,0.387-0.637-0.363,0.613s0,0-1.25,1.75s0,0-0.5,1.25
			s0,1.25,0,1.25l-1.5,1c0,0,1.5-1,2.75-1.75l1.75-2l1-2.295l0.837-0.473l2.99-1.157C237.658,243.335,235.666,243,235.666,243z"/>
	</g>
	<g id="Layer_4_1_">
		<g enable-background="new    ">
			<path d="M187.48,67.806h-0.801l0.122-5.676h22.912l0.122,5.676h-0.749c-0.267-1.556-0.633-2.679-1.097-3.369
				c-0.464-0.69-0.964-1.114-1.498-1.271c-0.534-0.157-1.445-0.235-2.733-0.235h-3.795v16.662c0,1.845,0.043,3.059,0.131,3.639
				c0.087,0.58,0.322,1.01,0.705,1.288c0.383,0.278,1.103,0.418,2.159,0.418h1.149v0.801h-11.769v-0.801h1.219
				c1.01,0,1.708-0.128,2.098-0.383c0.389-0.256,0.638-0.653,0.749-1.193c0.11-0.539,0.166-1.796,0.166-3.769V62.931h-3.5
				c-1.521,0-2.542,0.072-3.064,0.218c-0.522,0.146-1.013,0.583-1.471,1.314C188.075,65.194,187.725,66.309,187.48,67.806z"/>
			<path d="M231.111,73.899h-12.327v5.693c0,1.856,0.046,3.072,0.139,3.647c0.093,0.574,0.328,1.001,0.705,1.279
				c0.377,0.278,1.094,0.418,2.15,0.418h0.609v0.801h-10.621v-0.801h0.609c1.01,0,1.709-0.128,2.098-0.383
				c0.389-0.256,0.638-0.653,0.749-1.193c0.11-0.539,0.166-1.796,0.166-3.769V68.015c0-1.881-0.056-3.094-0.166-3.639
				c-0.11-0.546-0.343-0.923-0.696-1.132c-0.354-0.209-1.129-0.313-2.325-0.313h-0.435V62.13h10.621v0.801h-0.436
				c-1.149,0-1.904,0.096-2.263,0.287c-0.36,0.191-0.601,0.549-0.723,1.071c-0.122,0.521-0.183,1.764-0.183,3.726v4.684h12.327
				v-4.684c0-1.881-0.052-3.094-0.157-3.639c-0.104-0.546-0.334-0.923-0.688-1.132s-1.129-0.313-2.324-0.313h-0.627V62.13h10.742
				v0.801h-0.348c-1.161,0-1.921,0.096-2.281,0.287s-0.601,0.549-0.722,1.071c-0.122,0.521-0.183,1.764-0.183,3.726v11.578
				c0,1.856,0.043,3.072,0.131,3.647c0.087,0.574,0.322,1.001,0.705,1.279c0.383,0.278,1.103,0.418,2.159,0.418h0.54v0.801h-10.742
				v-0.801h0.818c0.998,0,1.691-0.128,2.081-0.383c0.389-0.256,0.636-0.653,0.74-1.193c0.104-0.539,0.157-1.796,0.157-3.769V73.899z
				"/>
			<path d="M259.612,78.391h0.835l-0.505,7.348h-19.552v-0.801h0.487c1.172,0,1.93-0.157,2.272-0.47
				c0.342-0.313,0.56-0.711,0.653-1.193c0.093-0.481,0.14-1.709,0.14-3.682V68.015c0-1.799-0.05-2.983-0.148-3.552
				c-0.099-0.568-0.325-0.967-0.679-1.192c-0.354-0.227-1.1-0.34-2.237-0.34V62.13h16.871l0.557,5.885h-0.818
				c-0.372-1.648-0.827-2.817-1.367-3.509c-0.54-0.69-1.181-1.125-1.924-1.306c-0.743-0.18-1.938-0.27-3.586-0.27h-3.273v9.906
				h2.507c1.149,0,1.953-0.099,2.412-0.296c0.458-0.197,0.76-0.496,0.905-0.896c0.145-0.4,0.218-1.181,0.218-2.342h0.818v8.078
				h-0.818c0-1.312-0.111-2.19-0.331-2.638c-0.221-0.446-0.542-0.736-0.966-0.87c-0.424-0.133-1.14-0.2-2.15-0.2h-2.594v5.589
				c0,2.797,0.18,4.442,0.54,4.936c0.36,0.494,1.329,0.74,2.908,0.74h1.758c1.242,0,2.263-0.159,3.064-0.479
				c0.801-0.319,1.564-0.976,2.289-1.968C258.623,81.499,259.194,80.132,259.612,78.391z"/>
		</g>
		<g enable-background="new    ">
			<path d="M187.48,327.719h-0.801l0.122-5.676h22.912l0.122,5.676h-0.749c-0.267-1.556-0.633-2.679-1.097-3.369
				c-0.464-0.69-0.964-1.114-1.498-1.271c-0.534-0.157-1.445-0.235-2.733-0.235h-3.795v16.662c0,1.845,0.043,3.059,0.131,3.639
				c0.087,0.58,0.322,1.01,0.705,1.288c0.383,0.278,1.103,0.418,2.159,0.418h1.149v0.801h-11.769v-0.801h1.219
				c1.01,0,1.708-0.128,2.098-0.383c0.389-0.256,0.638-0.653,0.749-1.193c0.11-0.539,0.166-1.796,0.166-3.769v-16.662h-3.5
				c-1.521,0-2.542,0.072-3.064,0.218c-0.522,0.146-1.013,0.583-1.471,1.314C188.075,325.107,187.725,326.222,187.48,327.719z"/>
			<path d="M231.111,333.812h-12.327v5.693c0,1.856,0.046,3.072,0.139,3.647c0.093,0.574,0.328,1.001,0.705,1.279
				c0.377,0.278,1.094,0.418,2.15,0.418h0.609v0.801h-10.621v-0.801h0.609c1.01,0,1.709-0.128,2.098-0.383
				c0.389-0.256,0.638-0.653,0.749-1.193c0.11-0.539,0.166-1.796,0.166-3.769v-11.578c0-1.881-0.056-3.094-0.166-3.639
				c-0.11-0.546-0.343-0.923-0.696-1.132c-0.354-0.209-1.129-0.313-2.325-0.313h-0.435v-0.801h10.621v0.801h-0.436
				c-1.149,0-1.904,0.096-2.263,0.287c-0.36,0.191-0.601,0.549-0.723,1.071c-0.122,0.521-0.183,1.764-0.183,3.726v4.684h12.327
				v-4.684c0-1.881-0.052-3.094-0.157-3.639c-0.104-0.546-0.334-0.923-0.688-1.132s-1.129-0.313-2.324-0.313h-0.627v-0.801h10.742
				v0.801h-0.348c-1.161,0-1.921,0.096-2.281,0.287s-0.601,0.549-0.722,1.071c-0.122,0.521-0.183,1.764-0.183,3.726v11.578
				c0,1.856,0.043,3.072,0.131,3.647c0.087,0.574,0.322,1.001,0.705,1.279c0.383,0.278,1.103,0.418,2.159,0.418h0.54v0.801h-10.742
				v-0.801h0.818c0.998,0,1.691-0.128,2.081-0.383c0.389-0.256,0.636-0.653,0.74-1.193c0.104-0.539,0.157-1.796,0.157-3.769V333.812
				z"/>
			<path d="M259.612,338.304h0.835l-0.505,7.348h-19.552v-0.801h0.487c1.172,0,1.93-0.157,2.272-0.47
				c0.342-0.313,0.56-0.711,0.653-1.193c0.093-0.481,0.14-1.709,0.14-3.682v-11.578c0-1.799-0.05-2.983-0.148-3.552
				c-0.099-0.568-0.325-0.967-0.679-1.192c-0.354-0.227-1.1-0.34-2.237-0.34v-0.801h16.871l0.557,5.885h-0.818
				c-0.372-1.648-0.827-2.817-1.367-3.509c-0.54-0.69-1.181-1.125-1.924-1.306c-0.743-0.18-1.938-0.27-3.586-0.27h-3.273v9.906
				h2.507c1.149,0,1.953-0.099,2.412-0.296c0.458-0.197,0.76-0.496,0.905-0.896c0.145-0.4,0.218-1.181,0.218-2.342h0.818v8.078
				h-0.818c0-1.312-0.111-2.19-0.331-2.638c-0.221-0.446-0.542-0.736-0.966-0.87c-0.424-0.133-1.14-0.2-2.15-0.2h-2.594v5.589
				c0,2.797,0.18,4.442,0.54,4.936c0.36,0.494,1.329,0.74,2.908,0.74h1.758c1.242,0,2.263-0.159,3.064-0.479
				c0.801-0.319,1.564-0.976,2.289-1.968C258.623,341.412,259.194,340.045,259.612,338.304z"/>
			<path d="M263.373,333.69c0-3.645,1.219-6.569,3.656-8.775c2.438-2.205,5.478-3.308,9.123-3.308c3.679,0,6.752,1.091,9.219,3.273
				s3.7,5.159,3.7,8.932c0,3.656-1.181,6.616-3.543,8.879c-2.362,2.264-5.47,3.396-9.323,3.396c-3.75,0-6.825-1.132-9.228-3.396
				C264.574,340.429,263.373,337.428,263.373,333.69z M267.36,333.812c0,3.795,0.757,6.645,2.272,8.548
				c1.515,1.904,3.787,2.855,6.816,2.855c2.658,0,4.759-0.951,6.303-2.855c1.543-1.903,2.315-4.741,2.315-8.514
				c0-3.667-0.76-6.479-2.281-8.435c-1.521-1.956-3.726-2.934-6.616-2.934c-2.844,0-5.023,0.954-6.538,2.863
				C268.117,327.252,267.36,330.075,267.36,333.812z"/>
			<path d="M316.806,345.651h-6.354c-1.127-0.789-2.85-2.855-5.172-6.198c-0.742-1.067-1.514-2.092-2.314-3.073
				c-0.802-0.98-1.354-1.578-1.654-1.793c-0.303-0.215-0.772-0.322-1.411-0.322h-0.94v5.241c0,1.856,0.043,3.072,0.13,3.647
				c0.087,0.574,0.319,1.001,0.696,1.279c0.377,0.278,1.1,0.418,2.168,0.418h1.131v0.801h-11.299v-0.801h0.766
				c1.01,0,1.709-0.128,2.098-0.383c0.389-0.256,0.635-0.653,0.74-1.193c0.104-0.539,0.157-1.796,0.157-3.769v-11.578
				c0-1.881-0.052-3.094-0.157-3.639c-0.104-0.546-0.337-0.923-0.696-1.132c-0.36-0.209-1.138-0.313-2.333-0.313h-0.4v-0.801
				l3.377-0.174c2.251-0.104,4.039-0.157,5.363-0.157c2.252,0,4.082,0.209,5.492,0.627s2.551,1.103,3.422,2.055
				c0.87,0.951,1.306,2.089,1.306,3.412c0,1.544-0.569,2.861-1.706,3.952c-1.139,1.091-2.81,1.771-5.015,2.037
				c0.986,0.476,2.577,2.193,4.771,5.153c1.787,2.402,3.191,3.976,4.213,4.719c1.021,0.742,2.229,1.138,3.622,1.184V345.651z
				 M298.96,333.464c0.87-0.022,1.77-0.058,2.698-0.104c0.929-0.046,1.735-0.174,2.42-0.383c0.686-0.209,1.239-0.514,1.663-0.914
				c0.423-0.4,0.757-0.926,1.001-1.575c0.244-0.65,0.365-1.451,0.365-2.403c0-1.659-0.414-2.988-1.244-3.986
				c-0.83-0.999-2.638-1.498-5.424-1.498c-0.429,0-0.922,0.023-1.479,0.07V333.464z"/>
			<path d="M325.667,335.327l4.649-7.817c0.766-1.276,1.148-2.182,1.148-2.716c0-0.487-0.203-0.935-0.609-1.341
				s-1.132-0.609-2.176-0.609v-0.801h7.713v0.801c-1.068,0.151-1.931,0.549-2.586,1.192c-0.656,0.645-1.494,1.813-2.516,3.509
				l-5.293,8.827v3.134c0,2.008,0.061,3.287,0.183,3.839c0.122,0.551,0.384,0.939,0.784,1.166s1.186,0.34,2.358,0.34v0.801H319.26
				v-0.801h0.383c1.01,0,1.709-0.128,2.099-0.383c0.389-0.256,0.636-0.653,0.739-1.193c0.105-0.539,0.157-1.796,0.157-3.769v-2.908
				l-5.885-9.662c-1.196-1.95-1.991-3.114-2.386-3.491s-1.103-0.577-2.123-0.601v-0.801h9.575v0.801
				c-1.788,0-2.681,0.406-2.681,1.219c0,0.325,0.295,0.975,0.888,1.95L325.667,335.327z"/>
		</g>
	</g>
</g>
</svg>
