<?xml version="1.0" encoding="utf-8"?>
<!-- Generator: Adobe Illustrator 16.0.0, SVG Export Plug-In . SVG Version: 6.00 Build 0)  -->
<!DOCTYPE svg PUBLIC "-//W3C//DTD SVG 1.1//EN" "http://www.w3.org/Graphics/SVG/1.1/DTD/svg11.dtd">
<svg version="1.1" id="Layer_1" xmlns="http://www.w3.org/2000/svg" xmlns:xlink="http://www.w3.org/1999/xlink" x="0px" y="0px"
	 width="600px" height="400px" viewBox="0 0 600 400" enable-background="new 0 0 600 400" xml:space="preserve">
<g id="Layer_1_2_">
	<g id="Layer_1_1_">
	</g>
	<g id="Layer_2">
		<path fill="none" stroke="#000000" stroke-width="2" stroke-miterlimit="10" d="M112.608,10.947
			c-3.683,6.645-8.342,4.259-13.64,6.82c-5.298,2.561-8.283,5.614-15.004,5.456c-6.722-0.159-13.086-6.462-19.097-4.092
			c-6.009,2.371-14.169,13.167-21.824,16.368c-7.654,3.202-6.749,2.67-9.548-1.364c-2.799-4.034-3.007-5.314-8.184-5.456
			C20.135,28.537,4.07,17.176,0.759,15.039c-3.311-2.137-3.269-7.585-9.548-8.184c-6.28-0.598-24.432,0.175-25.916,5.457
			c-1.485,5.28-7.09,6.786-4.092,8.184c2.999,1.397,26.147,16.053,25.916,23.188c-0.23,7.135-6.006,11.936-2.728,13.64
			c3.279,1.703,6.068-1.338,5.456,4.092c-0.613,5.43-5.977,8.552-8.184,15.004C-20.545,82.872,0.91,93.347,4.851,88.696
			c3.94-4.651,2.669,3.429,5.456,8.184c2.787,4.756,5.798,2.622,2.728,8.184c-3.07,5.562-3.961,6.889-1.364,9.548
			c2.597,2.659-1.042,5.492,1.364,9.548c2.405,4.056,7.704,16.105,8.184,27.28c0.48,11.175,4.936,9.851,8.184,13.64
			c3.248,3.79,16.971,14.468,16.368,19.097c-0.603,4.628-5.646,9.369-1.364,12.275c4.281,2.907,17.864,4.463,20.46,9.549
			c2.597,5.085,4.014,11.656,5.457,10.911c1.443-0.744,2.048-4.321,4.092-2.729c2.044,1.594,2.269,1.492-1.365,6.818
			c-3.632,5.327-14.68,15.202-9.548,31.373c5.133,16.17,4.606,9.152,5.456,13.641c0.85,4.486-2.034,7.19,1.364,8.185
			c3.398,0.993,5.949-3.345,5.456,1.364c-0.494,4.709-0.259,6.187-4.092,8.185c-3.833,1.997-5.515,3.433-5.456,6.819
			c0.059,3.386,4.615,0.889,2.728,4.092c-1.888,3.204-3.548,1.861-5.456,2.729c-1.907,0.868-1.232,0.291,1.364,2.729
			c2.597,2.438,2.078,1.444,2.729,4.093c0.65,2.646,1.677,3.991,2.728,1.364c1.05-2.627,2.728-5.457,2.728-5.457
			s-1.453-3.188,0-5.456c1.453-2.27,0.865,0.339,4.092-4.091c3.228-4.433,4.174-3.737,4.092-6.82
			c-0.083-3.084-0.319-3.14,1.364-5.456s1.044-3.122,1.364-5.456c0.319-2.334-0.33-3.112,1.364-4.092
			c1.693-0.979,1.406-1.358,4.092-1.364s5.87-0.378,6.82-1.363c0.95-0.986,0.985-0.168,2.728-2.729
			c1.743-2.561,2.921-2.102,4.092-5.457c1.17-3.355,0.764-1.299,2.728-5.455c1.964-4.154,0.754-2.85,2.728-5.457
			c1.973-2.605-0.429-3.229,2.728-4.091c3.158-0.862,2.681-4.994,4.093-1.364c1.411,3.629,4.092,4.092,4.092,4.092l2.728,1.363
			c0,0,2.64-1.292,4.092-1.363c1.451-0.07,4.092-1.363,4.092-1.363s1.437,1.068,4.092-2.729c2.654-3.798,2.399-5.135,4.091-9.548
			s0.635-3.765,2.729-5.456c2.094-1.691-1.732-1.025,4.092-2.729c5.825-1.7,6.821-1.363,6.821-1.363s2.138-0.445,4.091,0
			c1.953,0.445,5.048,0.736,5.456-1.364c0.408-2.101,2.691-4.129,4.092-4.092c1.401,0.037,2.089-0.037,4.092,0
			s6.82-1.363,6.82-1.363s0.104-1.003,2.729-1.364c2.624-0.36,4.376-0.793,5.455-2.728c1.08-1.935,2.812-2.731,2.729-4.093
			c-0.084-1.359,0-5.455,0-5.455l-1.364-4.093c0,0,1.067-2.69,0-4.093c-1.067-1.401-2.847-0.504-1.365-2.728
			c2.348-3.518,5.457-8.184,5.457-8.184c4.303-3.127,5.109-4.005,6.82-5.456c1.711-1.451,2.729-2.728,2.729-2.728
			c2.738-4.3,5.456-6.821,5.456-6.821c4.302-5.081,5.456-5.456,5.456-5.456s2.121-3.756,4.092-4.092
			c1.972-0.336,2.682-0.812,5.456-4.092c2.774-3.281,3.063-4.131,4.092-2.728c1.029,1.402-1.069,6.757,5.456,8.184
			c6.525,1.428,13.705,2.1,15.004-1.364c1.299-3.464,4.909-1.968,6.82-6.82c1.911-4.852,2.352-9.171,5.456-8.185
			c3.104,0.987,3.506,0.186,5.456,0c1.949-0.186,3.084-2.534,6.82-2.728c3.735-0.194,6.374,0.585,8.185,0
			c1.81-0.585,3.614-0.971,6.818-1.364c3.205-0.394,11.189-2.701,10.912-5.457c-0.274-2.755,0.256-5.412,2.729-6.82
			c2.473-1.407,9.957-5.22,12.276-2.728c2.321,2.493,5.833,6.847,8.187,6.82c2.35-0.027,5.021,0.426,8.185-1.364
			c3.161-1.791,5.771-2.11,8.185-1.364c2.411,0.747,6.124,0.826,9.548-1.364c3.425-2.189,5.503-3.64,9.549-5.456
			c4.045-1.815,6.443-2.468,9.548-2.728c3.104-0.261,3.877-2.443,8.187-5.456c4.306-3.013,9.703-3.982,9.547-6.82
			c-0.157-2.838-4.105-6.877-5.456-9.548c-1.353-2.671,6.748-14.412,10.912-19.096c4.165-4.685,7.116-4.258,8.185-8.184
			c1.066-3.927,7.47-2.286,9.548-6.82c2.079-4.534,0.658-6.354,0-9.548c-0.657-3.194,1.021-5.747,4.093-8.184
			c3.071-2.438,8.952-6.911,13.642-5.457c4.688,1.454,9.304,0.117,12.274-1.364c2.974-1.481,3.246-1.264,5.455,1.364
			c2.21,2.627,5.945-1.08,8.187,2.729c2.239,3.808,3.606,6.688,2.728,9.547c-0.88,2.86,0,5.457,0,5.457s2.404,1.015,5.456,2.728
			c3.052,1.712,2.776-0.93,5.457,0c2.679,0.931,2.383,0.608,2.729,4.092c0.344,3.483,0.418,1.581,2.728,2.728
			c2.312,1.147,4.691-1.163,5.456,2.728c0.766,3.891,2.717,3.104,5.456,6.82c2.739,3.717,1.953,4.06,0,6.82
			c-1.953,2.76-1.547,4.625-2.729,6.82c-1.184,2.193-1.919,0.517-4.093,4.092c-2.175,3.574-4.063,4.201-2.729,6.819
			c1.336,2.619,3.719,4.769,4.092,6.82c0.374,2.052,2.345,7.272,2.729,9.548c0.384,2.277,0.026,2.772-2.729,5.457
			s-26.771,25.995-27.28,40.919c-0.508,14.926-8.8,18.552-10.911,23.188c-2.111,4.636-1.817,8.18,2.729,13.64
			c4.547,5.461,12.544,9.726,16.367,9.549c3.824-0.18,5.874,0.545,10.913,4.093c5.036,3.547,8.553,5.418,13.64,4.092
			c5.087-1.327,6.166,0.188,12.275-5.457c6.108-5.642,10.619-6.398,12.275-12.274c1.655-5.875-0.896-1.9,2.729-6.82
			c3.623-4.918,13.448-13.345,19.096-17.731c5.648-4.386,7.922,0.12,16.368-5.456c8.445-5.576,16.437-8.414,20.46-13.64
			c4.021-5.227,11.121-8.797,15.003-8.184c3.883,0.612,6.259,0.511,4.093,8.184c-2.165,7.673,1.755,9.061,2.729,12.276
			c0.973,3.216,2.517,4.936,4.092,9.548c1.576,4.612,0.411,5.876-4.092,10.912c-4.503,5.036-12.949,18.245-20.46,28.645
			c-7.513,10.399-16.159,23.035-25.917,30.009c-9.756,6.976-4.655,12.081-8.186,16.368c-3.525,4.287-1.908,1.561-5.456,2.729
			c-3.547,1.166-7.321,6.577-10.911,12.276c-3.589,5.698-10.021,12.548-10.91,20.459c-0.893,7.911-18.879,24.353-24.555,30.01
			c-5.675,5.656-4.055,10.278-6.817,15.003c-2.768,4.725-1.076-3.561-9.55,1.364c-8.473,4.925-9.802,2.844-15.005,8.185
			c-5.202,5.34-11.507,12.926-15.005,17.731c-3.495,4.808-7.745,12.31-13.64,13.642c-5.896,1.328-9.25,2.918-15.004,8.182
			c-5.753,5.268-5.912,7.578-9.549,9.551c-3.638,1.971-3.014-5.831,0-8.186c3.014-2.354,10.979-5.416,12.275-8.184
			c1.297-2.771,4.92-8.501,5.456-10.913c0.536-2.41-3.231-4.606-5.456-2.728c-2.224,1.878-3.976,9.007-8.184,9.549
			c-4.21,0.539-2.394-5.2-6.821-5.457c-4.428-0.258-6.061-4.434-9.548,0c-3.486,4.434-10.113,13.439-12.274,17.732
			c-2.162,4.289-18.037,22.931-19.098,23.188c-1.058,0.257-77.748-10.913-77.748-10.913s6.935-8.741,10.913-13.64
			c3.977-4.897,30.224-19.588,30.007-23.188c-0.216-3.602-0.937-3.401-2.728-5.457c-1.79-2.054-1.699-0.69-4.093,1.364
			s0.479,0.273-5.458,2.729c-5.932,2.452-4.969,4.156-6.819,5.455c-1.85,1.297-3.575-0.914-6.821,1.363
			c-3.243,2.28-13.042,13.998-19.095,23.188c-6.053,9.188-321.905,8.184-321.905,8.184s0.572-7.975,1.363-10.911
			c0.793-2.938,3.1-4.84,2.729-6.818c-0.371-1.979-1.364-6.818-1.364-6.818s8.325-4.053,9.548-1.364
			c1.224,2.687-1.604,5.854-1.364,9.547s4.795-0.175,6.82,0c2.025,0.175,16.619-10.272,17.732-10.911
			c1.113-0.641,6.27,2.161,6.82,6.82c0.551,4.656,2.157,3.15,4.092,1.361c1.935-1.787,1.155-4.832,5.456-4.09
			c4.302,0.738,13.64-1.363,13.64-1.363l1.364-5.457c0,0,2.438-3.244,6.82-2.729c4.382,0.516,6.901-0.509,8.185-1.363
			c1.283-0.856,1.054-3.803,1.364-5.457s1.364-5.455,1.364-5.455s2.15,0.455,2.728-1.364c0.578-1.819,0.243-4.541,0-5.456
			c-0.243-0.915-0.875-3.581,0-5.456c0.876-1.875,3.022-5.082,5.457-5.456c2.433-0.374,3.404-2.354,5.456-1.363
			c2.052,0.989,6.483-0.552,8.184-2.729c1.702-2.177,0.737-1.339,4.092-2.729c3.355-1.389,5.99-1.944,5.456-4.092
			c-0.534-2.146-1.448-3.503-1.364-4.092c0.083-0.592-0.49,0.548,1.364-1.365c1.853-1.912,2.292-1.869,1.364-4.092
			c-0.929-2.225-1.012-0.963,0-4.092c1.012-3.129,2.687-1.475,1.364-4.092c-1.323-2.619-3.984-5.916-2.728-8.187
			c1.256-2.27,0.203-3.153,1.364-4.092s2.761-3.219,1.364-4.094c-1.397-0.872-1.182-1.661-1.364,0
			c-0.183,1.663-1.991,5.86-2.728,6.819c-0.737,0.961-0.158,0.988,0,2.729c0.158,1.739,3.582,6.942,2.728,8.185
			c-0.854,1.239-1.319,2.084-2.728,1.363s-7.615,2.414-9.548,4.092c-1.933,1.68-1.093,6.856-1.364,8.187
			c-0.271,1.325-5.311,6.268-6.82,6.817c-1.509,0.553-3.881,3.308-5.456,4.094c-1.574,0.785-4.339,5.315-5.456,6.818
			c-1.118,1.504-2.655,4.037-1.364,5.456s1.81,2.288,1.364,4.093c-0.446,1.803-1.802,4.59-2.728,4.092
			c-0.927-0.498-1.023-0.844-2.728,0c-1.706,0.846-8.213,4.621-9.548,5.455c-1.334,0.836-6.336,2.117-6.819,1.365
			c-0.485-0.754-4.842,4.502-8.184,5.456c-3.343,0.953-7.845-0.093-9.548,1.363c-1.703,1.456-9.6,2.542-10.912,1.364
			s-1.426-1.616-4.092,1.363c-2.667,2.979-8.146,7.344-9.548,8.186c-1.401,0.838-3.467,3.497-5.456,2.727
			c-1.988-0.768-0.963-0.731-1.364-2.727c-0.401-1.997,0.177-4.217,0-5.456c-0.177-1.241-3.722-3.322-5.457-2.729
			c-1.734,0.592-5.041,2.028-6.82,2.729c-1.779,0.698-4.283,0.235-5.456,1.364c-1.173,1.125-0.544,3.059,0,2.728
			c0.543-0.335,3.91-1.127,4.091-1.364c0.183-0.235,1.801,0.877,1.364,1.364c-0.437,0.486-1.471,4.455-1.364,5.455
			c0.108,1.001-1.683,2.483-2.727,4.093c-1.045,1.608-4.092,4.092-4.092,4.092l-2.728-16.367l-4.1-390.105l180.048,5.456
			C112.608-1.329,116.292,4.302,112.608,10.947z"/>
	</g>
</g>
</svg>
