<?xml version="1.0" encoding="utf-8"?>
<!-- Generator: Adobe Illustrator 16.0.0, SVG Export Plug-In . SVG Version: 6.00 Build 0)  -->
<!DOCTYPE svg PUBLIC "-//W3C//DTD SVG 1.1//EN" "http://www.w3.org/Graphics/SVG/1.1/DTD/svg11.dtd">
<svg version="1.1" id="Layer_1" xmlns="http://www.w3.org/2000/svg" xmlns:xlink="http://www.w3.org/1999/xlink" x="0px" y="0px"
	 width="600px" height="400px" viewBox="0 0 600 400" enable-background="new 0 0 600 400" xml:space="preserve">
<g id="Layer_1_1_">
	<g id="Layer_2">
	</g>
	<g enable-background="new    ">
		<path d="M16.287,174.438c2.664-0.561,6.868-0.981,11.144-0.981c6.097,0,10.022,1.052,12.965,3.435
			c2.453,1.822,3.925,4.625,3.925,8.34c0,4.556-3.014,8.55-7.99,10.372v0.141c4.485,1.121,9.742,4.835,9.742,11.844
			c0,4.064-1.612,7.148-3.995,9.461c-3.294,3.014-8.62,4.416-16.33,4.416c-4.205,0-7.429-0.28-9.461-0.562V174.438z M22.385,193.78
			h5.537c6.447,0,10.232-3.364,10.232-7.919c0-5.537-4.205-7.71-10.372-7.71c-2.804,0-4.416,0.211-5.396,0.421V193.78z
			 M22.385,216.417c1.191,0.211,2.943,0.281,5.116,0.281c6.308,0,12.125-2.313,12.125-9.182c0-6.447-5.537-9.11-12.194-9.11h-5.046
			V216.417z"/>
		<path d="M57.772,205.204c0.14,8.34,5.466,11.774,11.634,11.774c4.415,0,7.079-0.771,9.391-1.753l1.051,4.416
			c-2.172,0.98-5.887,2.103-11.283,2.103c-10.443,0-16.68-6.868-16.68-17.101s6.027-18.292,15.909-18.292
			c11.073,0,14.017,9.741,14.017,15.979c0,1.261-0.14,2.242-0.21,2.873H57.772z M75.854,200.789
			c0.07-3.925-1.612-10.022-8.55-10.022c-6.237,0-8.971,5.747-9.461,10.022H75.854z"/>
		<path d="M89.447,171.283h6.167v49.76h-6.167V171.283z"/>
		<path d="M113.413,177.381v9.741h8.831v4.696h-8.831v18.292c0,4.204,1.191,6.588,4.625,6.588c1.612,0,2.803-0.211,3.574-0.421
			l0.28,4.625c-1.191,0.491-3.083,0.842-5.466,0.842c-2.874,0-5.186-0.911-6.658-2.594c-1.752-1.822-2.383-4.836-2.383-8.83v-18.502
			h-5.256v-4.696h5.256v-8.129L113.413,177.381z"/>
		<path d="M143.126,199.808v4.556h-17.311v-4.556H143.126z"/>
		<path d="M150.553,174.438c2.664-0.561,6.868-0.981,11.144-0.981c6.097,0,10.022,1.052,12.965,3.435
			c2.453,1.822,3.925,4.625,3.925,8.34c0,4.556-3.014,8.55-7.99,10.372v0.141c4.485,1.121,9.742,4.835,9.742,11.844
			c0,4.064-1.612,7.148-3.995,9.461c-3.294,3.014-8.62,4.416-16.33,4.416c-4.205,0-7.429-0.28-9.461-0.562V174.438z M156.65,193.78
			h5.537c6.447,0,10.232-3.364,10.232-7.919c0-5.537-4.205-7.71-10.372-7.71c-2.804,0-4.416,0.211-5.396,0.421V193.78z
			 M156.65,216.417c1.191,0.211,2.943,0.281,5.116,0.281c6.308,0,12.125-2.313,12.125-9.182c0-6.447-5.537-9.11-12.194-9.11h-5.046
			V216.417z"/>
		<path d="M216.708,211.792c0,3.504,0.07,6.588,0.28,9.251h-5.466l-0.351-5.536h-0.14c-1.612,2.732-5.186,6.307-11.213,6.307
			c-5.326,0-11.704-2.943-11.704-14.857v-19.834h6.167v18.783c0,6.447,1.962,10.793,7.569,10.793c4.135,0,7.008-2.874,8.13-5.607
			c0.351-0.911,0.561-2.032,0.561-3.153v-20.815h6.167V211.792z"/>
		<path d="M226.095,214.735c1.822,1.191,5.046,2.453,8.13,2.453c4.485,0,6.588-2.243,6.588-5.046c0-2.943-1.752-4.556-6.308-6.237
			c-6.097-2.173-8.971-5.537-8.971-9.602c0-5.467,4.416-9.952,11.704-9.952c3.434,0,6.448,0.981,8.34,2.103l-1.542,4.485
			c-1.332-0.841-3.784-1.962-6.938-1.962c-3.645,0-5.677,2.103-5.677,4.625c0,2.804,2.032,4.064,6.448,5.747
			c5.887,2.242,8.9,5.187,8.9,10.232c0,5.957-4.625,10.162-12.685,10.162c-3.714,0-7.148-0.911-9.531-2.313L226.095,214.735z"/>
		<path d="M262.115,177.381v9.741h8.831v4.696h-8.831v18.292c0,4.204,1.191,6.588,4.625,6.588c1.612,0,2.803-0.211,3.574-0.421
			l0.28,4.625c-1.191,0.491-3.083,0.842-5.466,0.842c-2.874,0-5.186-0.911-6.658-2.594c-1.752-1.822-2.383-4.836-2.383-8.83v-18.502
			h-5.256v-4.696h5.256v-8.129L262.115,177.381z"/>
		<path d="M284.75,177.591c0.07,2.103-1.472,3.785-3.925,3.785c-2.172,0-3.714-1.683-3.714-3.785c0-2.172,1.612-3.854,3.854-3.854
			C283.278,173.736,284.75,175.419,284.75,177.591z M277.881,221.043v-33.921h6.167v33.921H277.881z"/>
		<path d="M294.279,196.304c0-3.505-0.07-6.378-0.28-9.182h5.466l0.351,5.607h0.14c1.682-3.225,5.607-6.378,11.213-6.378
			c4.695,0,11.984,2.804,11.984,14.438v20.254h-6.167v-19.554c0-5.466-2.033-10.021-7.85-10.021c-4.064,0-7.219,2.873-8.27,6.308
			c-0.281,0.771-0.421,1.822-0.421,2.873v20.395h-6.167V196.304z"/>
		<path d="M338.639,173.036c-1.611,5.887-4.625,13.386-6.588,16.609l-3.925,0.49c1.542-4.135,3.364-11.423,4.135-16.47
			L338.639,173.036z"/>
		<path d="M369.26,174.438c2.663-0.561,6.867-0.981,11.143-0.981c6.098,0,10.022,1.052,12.966,3.435
			c2.453,1.822,3.925,4.625,3.925,8.34c0,4.556-3.014,8.55-7.99,10.372v0.141c4.486,1.121,9.742,4.835,9.742,11.844
			c0,4.064-1.611,7.148-3.994,9.461c-3.295,3.014-8.621,4.416-16.33,4.416c-4.205,0-7.429-0.28-9.461-0.562V174.438z
			 M375.357,193.78h5.536c6.447,0,10.231-3.364,10.231-7.919c0-5.537-4.205-7.71-10.372-7.71c-2.804,0-4.415,0.211-5.396,0.421
			V193.78z M375.357,216.417c1.191,0.211,2.943,0.281,5.115,0.281c6.308,0,12.125-2.313,12.125-9.182
			c0-6.447-5.537-9.11-12.195-9.11h-5.045V216.417z"/>
		<path d="M435.414,211.792c0,3.504,0.07,6.588,0.28,9.251h-5.466l-0.352-5.536h-0.14c-1.612,2.732-5.187,6.307-11.214,6.307
			c-5.326,0-11.703-2.943-11.703-14.857v-19.834h6.167v18.783c0,6.447,1.962,10.793,7.569,10.793c4.135,0,7.008-2.874,8.129-5.607
			c0.352-0.911,0.561-2.032,0.561-3.153v-20.815h6.168V211.792z"/>
		<path d="M445.643,197.705c0-3.995-0.07-7.429-0.28-10.583h5.396l0.21,6.658h0.28c1.542-4.556,5.257-7.429,9.392-7.429
			c0.701,0,1.191,0.07,1.752,0.21v5.817c-0.631-0.141-1.262-0.21-2.103-0.21c-4.345,0-7.429,3.294-8.271,7.919
			c-0.14,0.841-0.279,1.822-0.279,2.873v18.082h-6.098V197.705z"/>
		<path d="M497.222,187.122c-0.14,2.453-0.28,5.187-0.28,9.321v19.693c0,7.779-1.542,12.545-4.836,15.489
			c-3.293,3.083-8.06,4.064-12.334,4.064c-4.065,0-8.551-0.981-11.284-2.804l1.542-4.695c2.242,1.401,5.747,2.663,9.952,2.663
			c6.308,0,10.933-3.294,10.933-11.844v-3.785h-0.141c-1.892,3.154-5.536,5.677-10.792,5.677c-8.41,0-14.438-7.148-14.438-16.539
			c0-11.494,7.499-18.012,15.278-18.012c5.887,0,9.111,3.084,10.582,5.887h0.141l0.28-5.116H497.222z M490.844,200.509
			c0-1.052-0.07-1.963-0.35-2.804c-1.121-3.574-4.135-6.518-8.621-6.518c-5.887,0-10.092,4.976-10.092,12.825
			c0,6.658,3.364,12.194,10.021,12.194c3.785,0,7.219-2.383,8.551-6.308c0.351-1.051,0.49-2.242,0.49-3.294V200.509z"/>
		<path d="M510.604,205.204c0.141,8.34,5.467,11.774,11.634,11.774c4.415,0,7.078-0.771,9.392-1.753l1.051,4.416
			c-2.173,0.98-5.887,2.103-11.283,2.103c-10.443,0-16.68-6.868-16.68-17.101s6.027-18.292,15.908-18.292
			c11.073,0,14.018,9.741,14.018,15.979c0,1.261-0.141,2.242-0.211,2.873H510.604z M528.685,200.789
			c0.07-3.925-1.611-10.022-8.55-10.022c-6.237,0-8.971,5.747-9.461,10.022H528.685z"/>
		<path d="M542.277,197.705c0-3.995-0.07-7.429-0.28-10.583h5.396l0.21,6.658h0.28c1.542-4.556,5.257-7.429,9.392-7.429
			c0.7,0,1.191,0.07,1.752,0.21v5.817c-0.631-0.141-1.262-0.21-2.103-0.21c-4.346,0-7.429,3.294-8.27,7.919
			c-0.141,0.841-0.28,1.822-0.28,2.873v18.082h-6.098V197.705z"/>
		<path d="M564.352,214.735c1.822,1.191,5.046,2.453,8.13,2.453c4.485,0,6.587-2.243,6.587-5.046c0-2.943-1.752-4.556-6.307-6.237
			c-6.098-2.173-8.971-5.537-8.971-9.602c0-5.467,4.415-9.952,11.703-9.952c3.435,0,6.448,0.981,8.341,2.103l-1.542,4.485
			c-1.332-0.841-3.785-1.962-6.938-1.962c-3.645,0-5.677,2.103-5.677,4.625c0,2.804,2.032,4.064,6.447,5.747
			c5.888,2.242,8.901,5.187,8.901,10.232c0,5.957-4.626,10.162-12.686,10.162c-3.715,0-7.148-0.911-9.531-2.313L564.352,214.735z"/>
	</g>
</g>
</svg>
