<?xml version="1.0" encoding="utf-8"?>
<!-- Generator: Adobe Illustrator 16.0.0, SVG Export Plug-In . SVG Version: 6.00 Build 0)  -->
<!DOCTYPE svg PUBLIC "-//W3C//DTD SVG 1.1//EN" "http://www.w3.org/Graphics/SVG/1.1/DTD/svg11.dtd">
<svg version="1.1" id="Layer_1" xmlns="http://www.w3.org/2000/svg" xmlns:xlink="http://www.w3.org/1999/xlink" x="0px" y="0px"
	 width="600px" height="400px" viewBox="0 0 600 400" enable-background="new 0 0 600 400" xml:space="preserve">
<g id="Layer_2_1_">
	<g enable-background="new    ">
		<path d="M159.816,165.169c4.022-0.883,9.516-1.472,14.42-1.472c6.573,0,12.263,1.57,15.794,4.808
			c3.041,2.648,4.905,6.474,4.905,10.986c0,9.614-7.357,16.775-15.696,19.13l-0.098,0.196c4.61,1.569,6.867,6.474,7.357,13.341
			c0.687,9.222,1.177,15.5,2.06,18.148h-8.437c-0.393-1.373-1.079-8.339-1.57-15.99c-0.49-9.025-3.826-12.851-10.398-12.851h-7.259
			l-5.396,28.841h-8.142L159.816,165.169z M162.17,195.188h7.259c10.3,0,16.971-6.769,16.971-14.715
			c0-7.063-5.297-10.202-12.753-10.202c-3.237,0-5.396,0.294-6.867,0.687L162.17,195.188z"/>
		<path d="M218.281,164.188l-7.455,39.141c-0.491,2.747-0.785,5.592-0.785,8.339c0,8.437,4.905,12.753,12.263,12.753
			c9.025,0,15.696-6.082,18.442-20.896l7.554-39.337h8.142l-7.554,39.533c-3.826,19.718-13.636,27.664-27.664,27.664
			c-10.889,0-19.326-5.886-19.326-19.521c0-2.845,0.294-6.082,0.883-9.123l7.357-38.553H218.281z"/>
		<path d="M258.597,230.307l12.557-66.118h8.927l15.205,37.474c2.845,7.455,4.415,12.753,5.788,18.442l0.196-0.099
			c0.393-5.983,1.079-11.478,2.747-20.698l6.671-35.119h7.75l-12.655,66.118h-8.044l-15.009-37.376
			c-3.237-8.142-4.708-12.851-6.18-19.031l-0.294,0.099c-0.687,6.18-1.766,12.753-3.433,21.777l-6.573,34.531H258.597z"/>
		<path d="M320.592,230.307l12.557-66.118h8.928l15.205,37.474c2.844,7.455,4.414,12.753,5.787,18.442l0.196-0.099
			c0.393-5.983,1.079-11.478,2.747-20.698l6.67-35.119h7.75l-12.654,66.118h-8.044l-15.009-37.376
			c-3.238-8.142-4.709-12.851-6.181-19.031l-0.294,0.099c-0.688,6.18-1.766,12.753-3.434,21.777l-6.572,34.531H320.592z"/>
		<path d="M420.649,199.209h-24.034l-4.513,24.133h27.075l-1.373,6.965h-35.218l12.557-66.118h33.746l-1.374,6.965h-25.505
			l-4.022,21.189h24.034L420.649,199.209z"/>
		<path d="M441.149,165.169c4.022-0.883,9.516-1.472,14.421-1.472c6.572,0,12.262,1.57,15.793,4.808
			c3.041,2.648,4.906,6.474,4.906,10.986c0,9.614-7.357,16.775-15.696,19.13l-0.099,0.196c4.611,1.569,6.867,6.474,7.357,13.341
			c0.688,9.222,1.178,15.5,2.061,18.148h-8.437c-0.393-1.373-1.079-8.339-1.569-15.99c-0.49-9.025-3.826-12.851-10.398-12.851h-7.26
			l-5.396,28.841h-8.142L441.149,165.169z M443.504,195.188h7.26c10.3,0,16.971-6.769,16.971-14.715
			c0-7.063-5.297-10.202-12.753-10.202c-3.237,0-5.396,0.294-6.866,0.687L443.504,195.188z"/>
	</g>
	<g enable-background="new    ">
		<path d="M111.893,230.496v9.592h-3.462v-23.346h3.462v9.638h28.07v4.116H111.893z"/>
		<path d="M108.431,209.166h13.193v-15.251h-13.193v-4.117h31.532v4.117H125.18v15.251h14.783v4.07h-31.532V209.166z"/>
		<path d="M125.18,166.409v12.257h11.368v-13.661h3.415v17.731h-31.532v-17.029h3.415v12.959h9.965v-12.257H125.18z"/>
	</g>
</g>
</svg>
