<?xml version="1.0" encoding="utf-8"?>
<!-- Generator: Adobe Illustrator 16.0.0, SVG Export Plug-In . SVG Version: 6.00 Build 0)  -->
<!DOCTYPE svg PUBLIC "-//W3C//DTD SVG 1.1//EN" "http://www.w3.org/Graphics/SVG/1.1/DTD/svg11.dtd">
<svg version="1.1" id="Layer_1" xmlns="http://www.w3.org/2000/svg" xmlns:xlink="http://www.w3.org/1999/xlink" x="0px" y="0px"
	 width="600px" height="400px" viewBox="0 0 600 400" enable-background="new 0 0 600 400" xml:space="preserve">
<g id="Layer_2">
	<path fill="#282828" d="M478.113,79.148c-6.26-3.853-29.365-5.402-39.006-6.26c-9.644-0.859-139.654-2.408-150.73-2.89
		c-11.077-0.481-149.724,2.765-154.1,2.89c-16.854,0.481-24.801,6.742-24.559,17.336c0.094,4.116-0.017,190.699,0,196.959
		c0.017,6.26,2.408,25.522,7.223,32.265c4.816,6.741,16.373,7.751,24.525,7.95c12.124,0.295,80.456,2.645,142.082,3.386
		c61.625,0.741,102.105,0.702,156.522-4.112c13.275-0.66,34.733-7.878,36.117-8.668c6.74-3.854,8.261-9.173,9.224-16.878
		s1.356-201.271,1.37-207.049C486.795,88.298,484.374,83,478.113,79.148z M393.84,203.391c-0.48,52.49-6.742,81.866-11.558,86.683
		c-4.816,4.815-52.973,18.78-122.798,18.78s-114.612-10.112-122.798-18.299c-8.186-8.188-9.149-71.271-9.149-94.387
		s1.444-82.347,9.149-88.607c5.015-4.074,62.122-13.002,121.835-13.002c59.713,0,121.834,8.668,125.688,13.002
		S394.321,150.9,393.84,203.391z"/>
	<path fill="#494949" d="M486,74.5c-6.5-4-30.489-5.608-40.5-6.5s-145-2.5-156.5-3s-155.456,2.87-160,3c-17.5,0.5-25.751,7-25.5,18
		c0.098,4.274-0.018,198,0,204.5S106,317,111,324s16.999,8.048,25.464,8.254C149.051,332.561,220,335,283.985,335.77
		C347.97,336.54,390,336.5,446.5,331.5c13.785-0.686,36.064-8.18,37.5-9c7-4,8.577-9.523,9.577-17.523S494.986,95.999,495,90
		S492.5,78.5,486,74.5z M398.5,203.5c-0.5,54.5-7,85-12,90S331.5,313,259,313s-119-10.5-127.5-19s-9.5-74-9.5-98s1.5-85.5,9.5-92
		c5.207-4.23,64.5-13.5,126.5-13.5s126.5,9,130.5,13.5S399,149,398.5,203.5z"/>
	<circle fill="#7C7C7C" cx="465" cy="144" r="18.5"/>
	<circle fill="#262626" cx="465" cy="144" r="8"/>
	<path fill="#262626" d="M471.002,163.851c0.24,1.289-0.609,2.53-1.898,2.77l0,0c-1.289,0.241-2.529-0.61-2.771-1.899l-7.335-39.322
		c-0.24-1.289,0.609-2.529,1.899-2.77l0,0c1.288-0.241,2.528,0.61,2.771,1.899L471.002,163.851z"/>
	<g>
		<rect x="429" y="215" fill="#262626" width="62.5" height="4"/>
	</g>
	<g>
		<rect x="429" y="222.834" fill="#262626" width="62.5" height="4"/>
	</g>
	<g>
		<rect x="429" y="230.668" fill="#262626" width="62.5" height="4"/>
	</g>
	<g>
		<rect x="429" y="238.502" fill="#262626" width="62.5" height="4"/>
	</g>
	<g>
		<rect x="429" y="246.336" fill="#262626" width="62.5" height="4"/>
	</g>
	<g>
		<rect x="429" y="254.253" fill="#262626" width="62.5" height="4"/>
	</g>
	<g>
		<rect x="429" y="262.087" fill="#262626" width="62.5" height="4"/>
	</g>
	<g>
		<rect x="429" y="269.921" fill="#262626" width="62.5" height="4"/>
	</g>
	<g>
		<rect x="429" y="277.838" fill="#262626" width="62.5" height="4"/>
	</g>
	<g>
		<rect x="429" y="285.672" fill="#262626" width="61.5" height="4"/>
	</g>
	<g>
		<polygon fill="#262626" points="489,297.387 429,297.506 429,293.506 489,293.387 		"/>
	</g>
	<g>
		<rect x="429" y="301.34" fill="#262626" width="59.5" height="4"/>
	</g>
	<g>
		<rect x="429" y="309.174" fill="#262626" width="56.5" height="4"/>
	</g>
</g>
</svg>
