<?xml version="1.0" encoding="utf-8"?>
<!-- Generator: Adobe Illustrator 16.0.0, SVG Export Plug-In . SVG Version: 6.00 Build 0)  -->
<!DOCTYPE svg PUBLIC "-//W3C//DTD SVG 1.1//EN" "http://www.w3.org/Graphics/SVG/1.1/DTD/svg11.dtd">
<svg version="1.1" id="Layer_4_1_" xmlns="http://www.w3.org/2000/svg" xmlns:xlink="http://www.w3.org/1999/xlink" x="0px" y="0px"
	 width="600px" height="400px" viewBox="0 0 600 400" enable-background="new 0 0 600 400" xml:space="preserve">
<g enable-background="new    ">
	<path d="M46.97,134.161h31.216l26.517,78.717l25.891-78.717h30.38l-39.15,106.696l-6.995,19.313
		c-2.576,6.473-5.029,11.414-7.36,14.825c-2.333,3.409-5.011,6.176-8.039,8.3c-3.028,2.122-6.752,3.774-11.171,4.959
		c-4.42,1.183-9.414,1.774-14.981,1.774c-5.638,0-11.171-0.592-16.6-1.774l-2.61-22.968c4.594,0.903,8.734,1.356,12.424,1.356
		c6.82,0,11.866-2.001,15.138-6.003c3.271-4.003,5.776-9.101,7.517-15.294L46.97,134.161z"/>
	<path d="M189.534,245.033l-35.079-110.872h28.501l20.776,72.662l19.105-72.662h28.292l18.479,72.662l21.193-72.662h28.919
		l-35.6,110.872h-28.188l-19.105-71.305l-18.792,71.305H189.534z"/>
</g>
<g enable-background="new    ">
	<path d="M415.808,166.942l-28.919,5.22c-0.975-5.776-3.184-10.127-6.629-13.05s-7.918-4.385-13.416-4.385
		c-7.307,0-13.137,2.523-17.486,7.569c-4.351,5.047-6.525,13.485-6.525,25.316c0,13.154,2.209,22.446,6.63,27.875
		c4.419,5.429,10.353,8.143,17.8,8.143c5.568,0,10.127-1.582,13.677-4.75c3.55-3.166,6.056-8.612,7.517-16.338l28.814,4.906
		c-2.994,13.225-8.735,23.213-17.227,29.963c-8.492,6.752-19.871,10.127-34.139,10.127c-16.217,0-29.145-5.116-38.783-15.347
		c-9.641-10.231-14.46-24.394-14.46-42.491c0-18.304,4.837-32.555,14.511-42.751c9.674-10.195,22.76-15.295,39.255-15.295
		c13.502,0,24.237,2.907,32.208,8.718C406.603,146.185,412.326,155.041,415.808,166.942z"/>
	<path d="M459.969,167.986l-26.621-4.803c2.991-10.717,8.143-18.651,15.451-23.803c7.307-5.149,18.165-7.726,32.572-7.726
		c13.084,0,22.827,1.55,29.231,4.646c6.403,3.098,10.909,7.031,13.521,11.798c2.609,4.768,3.914,13.52,3.914,26.256l-0.312,34.243
		c0,9.745,0.469,16.931,1.409,21.559c0.939,4.63,2.696,9.589,5.272,14.877h-29.023c-0.767-1.947-1.707-4.837-2.818-8.665
		c-0.488-1.739-0.836-2.888-1.045-3.445c-5.011,4.872-10.371,8.526-16.077,10.962c-5.708,2.436-11.798,3.654-18.271,3.654
		c-11.415,0-20.41-3.097-26.986-9.292c-6.578-6.193-9.866-14.023-9.866-23.489c0-6.265,1.496-11.85,4.489-16.757
		c2.992-4.906,7.186-8.665,12.58-11.274c5.393-2.61,13.171-4.89,23.334-6.839c13.71-2.574,23.211-4.975,28.5-7.203v-2.924
		c0-5.637-1.393-9.656-4.176-12.058c-2.784-2.401-8.039-3.602-15.764-3.602c-5.221,0-9.292,1.027-12.215,3.079
		C464.145,159.234,461.777,162.837,459.969,167.986z M499.223,191.789c-3.758,1.253-9.709,2.751-17.852,4.489
		c-8.144,1.741-13.468,3.445-15.974,5.116c-3.828,2.714-5.741,6.159-5.741,10.335c0,4.107,1.529,7.657,4.593,10.649
		c3.062,2.993,6.959,4.489,11.692,4.489c5.289,0,10.336-1.739,15.139-5.221c3.549-2.644,5.881-5.881,6.994-9.709
		c0.766-2.506,1.148-7.272,1.148-14.303V191.789z"/>
</g>
<g enable-background="new    ">
	<path d="M213.013,275.27l4.411,1.398c-0.676,2.459-1.801,4.285-3.373,5.479c-1.573,1.193-3.568,1.79-5.986,1.79
		c-2.992,0-5.451-1.021-7.377-3.065s-2.889-4.839-2.889-8.384c0-3.75,0.968-6.662,2.905-8.737c1.937-2.074,4.482-3.111,7.638-3.111
		c2.756,0,4.995,0.814,6.716,2.443c1.024,0.963,1.793,2.346,2.305,4.149l-4.503,1.075c-0.267-1.168-0.822-2.09-1.667-2.766
		c-0.845-0.677-1.873-1.015-3.081-1.015c-1.67,0-3.025,0.6-4.065,1.798c-1.04,1.199-1.56,3.141-1.56,5.825
		c0,2.849,0.512,4.877,1.537,6.086s2.356,1.813,3.996,1.813c1.208,0,2.249-0.385,3.12-1.152
		C212.009,278.128,212.634,276.919,213.013,275.27z"/>
	<path d="M221.297,283.553v-22.53h4.318v22.53H221.297z"/>
	<path d="M233.269,272.211l-3.919-0.707c0.44-1.578,1.199-2.746,2.275-3.504c1.076-0.759,2.674-1.138,4.795-1.138
		c1.926,0,3.36,0.229,4.303,0.684c0.942,0.456,1.606,1.035,1.99,1.737s0.576,1.99,0.576,3.865l-0.046,5.041
		c0,1.435,0.069,2.492,0.208,3.173c0.138,0.682,0.396,1.412,0.776,2.19h-4.272c-0.113-0.287-0.251-0.712-0.415-1.275
		c-0.072-0.256-0.123-0.425-0.154-0.508c-0.737,0.718-1.526,1.256-2.367,1.614c-0.84,0.358-1.736,0.538-2.689,0.538
		c-1.68,0-3.004-0.456-3.973-1.368s-1.452-2.064-1.452-3.458c0-0.922,0.22-1.744,0.661-2.467c0.44-0.722,1.058-1.275,1.852-1.659
		c0.794-0.385,1.939-0.72,3.435-1.007c2.019-0.379,3.417-0.732,4.196-1.061v-0.431c0-0.829-0.205-1.421-0.615-1.774
		s-1.184-0.53-2.321-0.53c-0.768,0-1.368,0.151-1.798,0.453C233.883,270.923,233.535,271.453,233.269,272.211z M239.047,275.715
		c-0.553,0.185-1.429,0.405-2.628,0.661s-1.982,0.507-2.352,0.753c-0.563,0.399-0.845,0.906-0.845,1.521
		c0,0.604,0.225,1.127,0.676,1.567c0.451,0.44,1.024,0.661,1.721,0.661c0.779,0,1.521-0.256,2.229-0.769
		c0.522-0.39,0.866-0.866,1.03-1.43c0.112-0.368,0.169-1.07,0.169-2.105V275.715z"/>
	<path d="M251.681,283.553h-4.319v-16.321h4.011v2.32c0.687-1.096,1.304-1.818,1.852-2.167c0.548-0.348,1.17-0.522,1.867-0.522
		c0.983,0,1.931,0.271,2.843,0.814l-1.337,3.766c-0.728-0.472-1.404-0.707-2.028-0.707c-0.605,0-1.117,0.167-1.537,0.499
		c-0.42,0.334-0.75,0.936-0.991,1.807c-0.241,0.87-0.361,2.694-0.361,5.471V283.553z"/>
	<path d="M259.642,283.553v-22.53h4.318v11.957l5.057-5.748h5.317l-5.579,5.963l5.978,10.358h-4.657l-4.103-7.331l-2.014,2.105
		v5.226H259.642z"/>
	<path d="M300.491,275.27l4.411,1.398c-0.677,2.459-1.801,4.285-3.373,5.479c-1.573,1.193-3.568,1.79-5.986,1.79
		c-2.992,0-5.451-1.021-7.377-3.065s-2.889-4.839-2.889-8.384c0-3.75,0.968-6.662,2.905-8.737c1.937-2.074,4.482-3.111,7.638-3.111
		c2.756,0,4.995,0.814,6.716,2.443c1.023,0.963,1.793,2.346,2.305,4.149l-4.503,1.075c-0.267-1.168-0.822-2.09-1.667-2.766
		c-0.845-0.677-1.873-1.015-3.081-1.015c-1.67,0-3.025,0.6-4.065,1.798c-1.04,1.199-1.56,3.141-1.56,5.825
		c0,2.849,0.512,4.877,1.537,6.086s2.356,1.813,3.996,1.813c1.208,0,2.249-0.385,3.12-1.152
		C299.486,278.128,300.112,276.919,300.491,275.27z"/>
	<path d="M307.775,275.161c0-1.434,0.354-2.822,1.061-4.164c0.707-1.343,1.709-2.367,3.005-3.074s2.743-1.061,4.342-1.061
		c2.469,0,4.493,0.802,6.07,2.405s2.366,3.63,2.366,6.078c0,2.47-0.796,4.517-2.389,6.14c-1.594,1.624-3.6,2.437-6.018,2.437
		c-1.496,0-2.922-0.339-4.279-1.015c-1.358-0.676-2.391-1.667-3.098-2.974S307.775,277.036,307.775,275.161z M312.202,275.392
		c0,1.619,0.384,2.859,1.152,3.72s1.716,1.291,2.843,1.291s2.072-0.431,2.836-1.291s1.145-2.11,1.145-3.75
		c0-1.599-0.381-2.828-1.145-3.688s-1.709-1.291-2.836-1.291s-2.074,0.431-2.843,1.291S312.202,273.773,312.202,275.392z"/>
	<path d="M338.744,283.553v-2.443c-0.596,0.871-1.376,1.558-2.344,2.06c-0.969,0.501-1.99,0.753-3.066,0.753
		c-1.097,0-2.08-0.241-2.951-0.723s-1.501-1.157-1.891-2.028c-0.389-0.871-0.584-2.075-0.584-3.612v-10.327h4.318v7.5
		c0,2.295,0.08,3.701,0.238,4.219c0.159,0.518,0.449,0.927,0.869,1.229c0.42,0.302,0.953,0.453,1.598,0.453
		c0.738,0,1.398-0.202,1.982-0.607c0.584-0.404,0.984-0.906,1.199-1.506s0.322-2.067,0.322-4.403v-6.885h4.319v16.321H338.744z"/>
	<path d="M362.072,283.553h-4.318v-8.33c0-1.762-0.092-2.901-0.276-3.419s-0.483-0.92-0.899-1.207
		c-0.414-0.286-0.914-0.43-1.498-0.43c-0.748,0-1.419,0.205-2.014,0.614c-0.594,0.41-1.001,0.953-1.221,1.629
		c-0.221,0.677-0.331,1.927-0.331,3.75v7.393h-4.318v-16.321h4.011v2.397c1.424-1.845,3.217-2.767,5.379-2.767
		c0.953,0,1.824,0.172,2.613,0.515c0.789,0.344,1.385,0.782,1.79,1.314c0.405,0.533,0.687,1.138,0.846,1.813
		s0.237,1.645,0.237,2.904V283.553z"/>
	<path d="M373.938,267.231v3.442h-2.951v6.578c0,1.332,0.028,2.107,0.085,2.328c0.056,0.221,0.185,0.402,0.384,0.546
		c0.2,0.144,0.443,0.215,0.73,0.215c0.399,0,0.979-0.139,1.736-0.415l0.369,3.351c-1.004,0.43-2.142,0.646-3.412,0.646
		c-0.778,0-1.48-0.131-2.105-0.393c-0.625-0.261-1.083-0.599-1.375-1.014c-0.293-0.415-0.494-0.977-0.607-1.684
		c-0.092-0.501-0.139-1.516-0.139-3.043v-7.115h-1.982v-3.442h1.982v-3.243l4.334-2.521v5.764H373.938z"/>
	<path d="M374.891,267.231h4.595l3.903,11.588l3.812-11.588h4.472l-5.763,15.707l-1.03,2.843c-0.379,0.953-0.74,1.68-1.083,2.183
		c-0.343,0.502-0.737,0.909-1.183,1.222c-0.446,0.312-0.994,0.556-1.645,0.729c-0.651,0.175-1.387,0.262-2.206,0.262
		c-0.829,0-1.645-0.087-2.443-0.262l-0.384-3.381c0.676,0.133,1.285,0.2,1.828,0.2c1.004,0,1.747-0.295,2.229-0.884
		c0.481-0.59,0.851-1.34,1.106-2.252L374.891,267.231z"/>
</g>
</svg>
