<?xml version="1.0" encoding="utf-8"?>
<!-- Generator: Adobe Illustrator 16.0.0, SVG Export Plug-In . SVG Version: 6.00 Build 0)  -->
<!DOCTYPE svg PUBLIC "-//W3C//DTD SVG 1.1//EN" "http://www.w3.org/Graphics/SVG/1.1/DTD/svg11.dtd">
<svg version="1.1" id="Layer_1" xmlns="http://www.w3.org/2000/svg" xmlns:xlink="http://www.w3.org/1999/xlink" x="0px" y="0px"
	 width="600px" height="400px" viewBox="0 0 600 400" enable-background="new 0 0 600 400" xml:space="preserve">
<polygon points="15.5,-1.5 15.5,197.993 217.213,-1.5 "/>
<polygon points="301.539,201.764 159.594,59.82 17.131,202.282 "/>
<polygon points="162.431,58.225 339.5,234.3 339.5,-1.5 223.48,-1.5 "/>
<polygon points="27.216,400.5 158.688,267.373 98.684,205.5 16.5,205.5 16.5,400.5 "/>
<polygon points="310.5,210.448 310.5,400.5 499.917,400.5 "/>
<polygon points="162.233,271.3 33.033,400.5 291.433,400.5 "/>
<polygon points="305.5,205.5 104.022,205.5 298.11,400.5 305.5,400.5 "/>
<polygon points="489.405,99.351 347.656,241.833 441.355,334.927 583.075,192.779 "/>
<polygon points="444.406,338.74 505.063,400.5 584.5,400.5 584.5,197.39 "/>
<polygon points="344.477,239.61 486.423,98.16 386.268,-1.5 343.597,-1.5 "/>
<polygon points="584.5,187.737 584.5,-1.5 391.649,-1.5 "/>
</svg>
