<?xml version="1.0" encoding="utf-8"?>
<!-- Generator: Adobe Illustrator 16.0.0, SVG Export Plug-In . SVG Version: 6.00 Build 0)  -->
<!DOCTYPE svg PUBLIC "-//W3C//DTD SVG 1.1//EN" "http://www.w3.org/Graphics/SVG/1.1/DTD/svg11.dtd">
<svg version="1.1" xmlns="http://www.w3.org/2000/svg" xmlns:xlink="http://www.w3.org/1999/xlink" x="0px" y="0px" width="600px"
	 height="400px" viewBox="0 0 600 400" enable-background="new 0 0 600 400" xml:space="preserve">
<g id="Layer_1" display="none">
	<path display="inline" fill-rule="evenodd" clip-rule="evenodd" d="M288.055,382.273c0,3.715,0,7.431,0,11.146
		c-38.091-7.432-76.192-14.862-114.283-22.294c-22.296,7.432-44.597,14.862-66.893,22.294c7.431-22.294,14.865-44.601,22.296-66.894
		c-7.431-38.087-14.865-76.188-22.296-114.282c3.716,0,7.431,0,11.146,0c0.228,37.046,11.33,75.583,29.269,96.168
		c48.441-0.552,53.796-22.464,79.438-43.205c49.88-40.354,95.519-90.023,137.974-137.971c15.305-17.298,61.041-47.383,36.237-85.015
		c-12.549-5.11-25.091-10.221-37.632-15.332c-17.189-2.79-34.379-5.573-51.568-8.363c0-3.715,0-7.431,0-11.146
		c0.463,0,0.933,0,1.396,0c37.162,7.894,74.331,15.794,111.492,23.688c22.763-7.894,45.532-15.794,68.288-23.688
		c0,0.463,0,0.925,0,1.395c-7.894,22.756-15.794,45.525-23.688,68.288c7.894,37.162,15.794,74.331,23.688,111.492
		c-3.715,0-7.431,0-11.146,0c0-0.932,0-1.857,0-2.79c-13.48-35.433-10.248-65.824-29.268-91.982
		c-54.434-0.354-60.49,28.356-89.193,51.568c-47.58,38.482-86.583,86.485-129.611,129.608
		c-22.051,22.109-44.338,35.834-40.415,80.836C220.944,367.588,247.735,381.062,288.055,382.273z"/>
</g>
<g id="Layer_2">
	<path d="M490.73,8.686l-66.229,22.077L311.373,8.686v11.055c77.759-1.727,93.83,26.21,93.83,26.21
		c2.172,32.864-9.287,46.84-25.535,66.028c-16.057,19.009-80.976,84.127-82.47,85.622c0,0-66.486,66.28-85.715,82.491
		c-19.225,16.271-33.164,27.739-66.06,25.566c0,0-27.906-16.066-26.212-93.834h-11.021l22.077,113.162l-22.077,66.197l66.229-22.043
		l113.129,22.043V380.12c-77.758,1.704-93.83-26.166-93.83-26.166c-2.173-32.902,9.287-46.868,25.536-66.062
		c16.009-18.989,80.61-83.798,82.451-85.642c0,0,66.503-66.259,85.733-82.5c19.223-16.25,33.164-27.71,66.062-25.537
		c0,0,27.903,16.071,26.21,93.83h11.021L468.654,74.915L490.73,8.686z"/>
</g>
</svg>
