<?xml version="1.0" encoding="utf-8"?>
<!-- Generator: Adobe Illustrator 16.0.0, SVG Export Plug-In . SVG Version: 6.00 Build 0)  -->
<!DOCTYPE svg PUBLIC "-//W3C//DTD SVG 1.1//EN" "http://www.w3.org/Graphics/SVG/1.1/DTD/svg11.dtd">
<svg version="1.1" id="Layer_1" xmlns="http://www.w3.org/2000/svg" xmlns:xlink="http://www.w3.org/1999/xlink" x="0px" y="0px"
	 width="600px" height="400px" viewBox="0 0 600 400" enable-background="new 0 0 600 400" xml:space="preserve">
<g>
	<defs>
		<rect id="SVGID_1_" x="-152" y="-57.897" width="901.538" height="525.897"/>
	</defs>
	<clipPath id="SVGID_2_">
		<use xlink:href="#SVGID_1_"  overflow="visible"/>
	</clipPath>
</g>
<g>
	<defs>
		<rect id="SVGID_3_" x="-152" y="-57.897" width="901.538" height="525.897"/>
	</defs>
	<clipPath id="SVGID_4_">
		<use xlink:href="#SVGID_3_"  overflow="visible"/>
	</clipPath>
</g>
<g>
	<defs>
		<rect id="SVGID_5_" x="-152" y="-57.897" width="901.538" height="525.897"/>
	</defs>
	<clipPath id="SVGID_6_">
		<use xlink:href="#SVGID_5_"  overflow="visible"/>
	</clipPath>
</g>
<g>
	<defs>
		<rect id="SVGID_7_" x="-152" y="-57.897" width="901.538" height="525.897"/>
	</defs>
	<clipPath id="SVGID_8_">
		<use xlink:href="#SVGID_7_"  overflow="visible"/>
	</clipPath>
</g>
<g>
	<defs>
		<rect id="SVGID_9_" x="-152" y="-57.897" width="901.538" height="525.897"/>
	</defs>
	<clipPath id="SVGID_10_">
		<use xlink:href="#SVGID_9_"  overflow="visible"/>
	</clipPath>
	<path clip-path="url(#SVGID_10_)" fill="#FFFFFF" d="M234.929,250.847c0-43.163,34.991-78.153,78.153-78.153
		c43.163,0,78.154,34.99,78.154,78.153S356.245,329,313.082,329C269.92,329,234.929,294.01,234.929,250.847"/>
	<path clip-path="url(#SVGID_10_)" fill="#010101" d="M236.82,250.847c0-42.119,34.144-76.263,76.262-76.263
		c42.119,0,76.263,34.144,76.263,76.263s-34.144,76.263-76.263,76.263C270.964,327.109,236.82,292.966,236.82,250.847"/>
	<path clip-path="url(#SVGID_10_)" fill="#FFFFFF" d="M240.274,250.847c0-40.211,32.597-72.809,72.808-72.809
		c40.212,0,72.81,32.598,72.81,72.809s-32.598,72.809-72.81,72.809C272.871,323.655,240.274,291.058,240.274,250.847"/>
	<path clip-path="url(#SVGID_10_)" fill="#010101" d="M284.522,310.723c0-35.018-22.191-64.851-53.278-76.206
		c-8.679-3.171-18.052-4.266-27.829-4.266c-44.793,0-61.32,34.09-61.32,78.885c0,44.793,44.92-4.226,56.972,0.939
		c2.395,1.026,50.556-15.495,84.771,11.225C284.289,317.838,284.522,314.309,284.522,310.723"/>
	<path clip-path="url(#SVGID_10_)" fill="#FFFFFF" d="M281.569,310.723c0-43.163-34.991-78.153-78.153-78.153
		c-43.163,0-78.154,34.99-78.154,78.153c0,43.162,34.991,78.152,78.154,78.152C246.579,388.875,281.569,353.885,281.569,310.723"/>
	<path clip-path="url(#SVGID_10_)" fill="#010101" d="M278.418,310.723c0-41.424-33.58-75.003-75.002-75.003
		c-41.422,0-75.002,33.579-75.002,75.003c0,41.423,33.581,75.002,75.002,75.002C244.838,385.725,278.418,352.146,278.418,310.723"/>
	<path clip-path="url(#SVGID_10_)" fill="#FFFFFF" d="M220.433,254.017c0-39.159-31.746-70.905-70.905-70.905
		c-39.161,0-70.906,31.746-70.906,70.905c0,39.16,31.746,70.905,70.906,70.905C188.688,324.922,220.433,293.177,220.433,254.017"/>
	<path clip-path="url(#SVGID_10_)" fill="#010101" d="M217.281,254.017c0-37.419-30.334-67.754-67.754-67.754
		s-67.753,30.335-67.753,67.754c0,37.42,30.334,67.755,67.753,67.755S217.281,291.437,217.281,254.017"/>
	<path clip-path="url(#SVGID_10_)" fill="#FFFFFF" d="M213.5,254.017c0-35.331-28.642-63.973-63.973-63.973
		s-63.973,28.642-63.973,63.973s28.642,63.973,63.973,63.973S213.5,289.348,213.5,254.017"/>
	<path clip-path="url(#SVGID_10_)" fill="#010101" d="M183.247,190.044c0,8.366,60.898,32.851,95.78-7.452
		c-5.083,24.018-17.52,45.32-34.843,61.441c-8.569-34.521-29.641-27.604-30.051-27.234c-0.403,0.365-14.674,25.347,27.611,29.442
		c-6.611,5.816-13.883,10.9-21.688,15.124c9.611-29.472-13.655-29.071-14.18-28.797c-0.601,0.313-0.626,16.308,10.798,30.557
		c-15.753,7.873-33.527,12.302-52.335,12.302c-31.705,0-60.47-12.585-81.571-33.033c27.714-40.582,8.807-72.726,8.807-87.222
		c0-16.211,48.852-22.072,57.953-21.429C158.961,134.41,183.247,178.384,183.247,190.044"/>
	<path clip-path="url(#SVGID_10_)" fill="#FFFFFF" d="M278.418,158.197c0,63.004-51.075,114.08-114.079,114.08
		S50.26,221.201,50.26,158.197c0-63.004,51.075-114.079,114.079-114.079S278.418,95.193,278.418,158.197"/>
	<path clip-path="url(#SVGID_10_)" fill="#010101" d="M275.267,158.197c0,61.264-49.664,110.928-110.928,110.928
		c-61.263,0-110.928-49.664-110.928-110.928c0-61.263,49.665-110.928,110.928-110.928
		C225.603,47.269,275.267,96.934,275.267,158.197"/>
	<path clip-path="url(#SVGID_10_)" fill="#FFFFFF" d="M271.485,158.197c0,59.174-47.971,107.146-107.146,107.146
		S57.193,217.371,57.193,158.197c0-59.175,47.971-107.146,107.146-107.146S271.485,99.022,271.485,158.197"/>
	<path clip-path="url(#SVGID_10_)" fill="#010101" d="M179.235,95.826c0,47.467,38.48,85.947,85.947,85.947
		c2.577,0,5.126-0.114,7.646-0.335c1.994-36.018,0.362-34.124-1.343-78.982c-0.709-18.637-12.181-24.293-15.21-24.886
		c-16.2-3.169-22.421-7.278-64.282-26.823C183.903,63.85,179.235,79.292,179.235,95.826"/>
	<path clip-path="url(#SVGID_10_)" fill="#FFFFFF" d="M183.247,95.826c0,45.251,36.684,81.935,81.935,81.935
		c45.252,0,81.936-36.683,81.936-81.935c0-45.252-36.684-81.935-81.936-81.935C219.931,13.891,183.247,50.574,183.247,95.826"/>
	<path clip-path="url(#SVGID_10_)" fill="#010101" d="M186.398,95.826c0,43.511,35.272,78.784,78.784,78.784
		c43.511,0,78.783-35.273,78.783-78.784c0-43.512-35.272-78.784-78.783-78.784C221.671,17.042,186.398,52.314,186.398,95.826"/>
	<path clip-path="url(#SVGID_10_)" fill="#010101" d="M414.279,146.537c0,40.27,27.826,33.159-12.443,33.159
		c-3.474,0-49.068-0.235-19.564,39.043c-25.475-3.577-46.726-20.318-56.654-43.125c45.933,10.648,30.672-16.104,30.672-26.439
		c0-40.27-5.322-29.112,34.947-29.112S414.279,106.268,414.279,146.537"/>
	<path clip-path="url(#SVGID_10_)" fill="#FFFFFF" d="M463.421,146.209c0,38.986-31.604,70.59-70.59,70.59
		c-38.986,0-70.591-31.604-70.591-70.59c0-38.986,31.604-70.591,70.591-70.591C431.816,75.619,463.421,107.223,463.421,146.209"/>
	<path clip-path="url(#SVGID_10_)" fill="#010101" d="M460.888,146.537c0,37.768-30.616,68.385-68.385,68.385
		c-37.768,0-68.384-30.617-68.384-68.385c0-37.768,30.616-68.385,68.384-68.385C430.271,78.152,460.888,108.769,460.888,146.537"/>
	<path clip-path="url(#SVGID_10_)" fill="#FFFFFF" d="M457.105,146.537c0,35.68-28.924,64.603-64.603,64.603
		S327.9,182.217,327.9,146.537s28.924-64.603,64.603-64.603S457.105,110.857,457.105,146.537"/>
	<path clip-path="url(#SVGID_10_)" fill="#010101" d="M409.857,216.438c-4.227-1.013-10.018-0.664-24.752-1.912
		c4.399-21.685,19.85-39.356,40.217-46.883c6.856-2.534-1.615,35.339-0.039,45.548c0.786,5.086,4.889,3.004,6.057,8.577
		c1.408,6.731,4.375,7.94-0.157,7.388C422.73,228.123,423.317,219.666,409.857,216.438"/>
	<path clip-path="url(#SVGID_10_)" fill="#FFFFFF" d="M386.527,228.447c0-2.379,0.136-4.727,0.398-7.035
		c3.491-30.626,29.493-54.417,61.054-54.417c33.938,0,61.45,27.513,61.45,61.452c0,33.938-27.512,61.45-61.45,61.45
		c-17.142,0-32.644-7.018-43.79-18.337C393.269,260.468,391.611,243.324,386.527,228.447"/>
	<path clip-path="url(#SVGID_10_)" fill="#010101" d="M389.345,227.218c0-32.024,25.961-57.985,57.985-57.985
		s57.984,25.96,57.984,57.985s-25.96,57.984-57.984,57.984S389.345,259.242,389.345,227.218"/>
	<path clip-path="url(#SVGID_10_)" fill="#010101" d="M422.119,165.445c0,2.387,0.13,4.744,0.383,7.065
		c24.528-11.128,46.864-16.116,47.966-16.997c3.196-2.549,6.546-1.434,5.635-6.652c-1.291-7.396-7.121-18.469-11.875-19.466
		c-6.973-1.463-4.559-3.463-13.008-17.931C433.689,123.017,422.119,142.879,422.119,165.445"/>
	<path clip-path="url(#SVGID_10_)" fill="#FFFFFF" d="M425.283,165.433c0,33.938,27.513,61.451,61.451,61.451
		c33.939,0,61.451-27.513,61.451-61.451c0-33.938-27.512-61.451-61.451-61.451C452.796,103.981,425.283,131.495,425.283,165.433"/>
	<path clip-path="url(#SVGID_10_)" fill="#010101" d="M427.161,165.445c0,32.894,26.666,59.56,59.561,59.56
		s59.562-26.666,59.562-59.56c0-32.895-26.667-59.561-59.562-59.561S427.161,132.551,427.161,165.445"/>
	<path clip-path="url(#SVGID_10_)" fill="#FFFFFF" d="M430.398,165.445c0,31.106,25.217,56.323,56.323,56.323
		c31.107,0,56.324-25.217,56.324-56.323c0-31.107-25.217-56.324-56.324-56.324C455.615,109.122,430.398,134.338,430.398,165.445"/>
</g>
<g>
	<defs>
		<rect id="SVGID_11_" x="-152" y="-57.897" width="901.538" height="525.897"/>
	</defs>
	<clipPath id="SVGID_12_">
		<use xlink:href="#SVGID_11_"  overflow="visible"/>
	</clipPath>
</g>
</svg>
