<?xml version="1.0" encoding="utf-8"?>
<!-- Generator: Adobe Illustrator 16.0.0, SVG Export Plug-In . SVG Version: 6.00 Build 0)  -->
<!DOCTYPE svg PUBLIC "-//W3C//DTD SVG 1.1//EN" "http://www.w3.org/Graphics/SVG/1.1/DTD/svg11.dtd">
<svg version="1.1" id="Layer_1" xmlns="http://www.w3.org/2000/svg" xmlns:xlink="http://www.w3.org/1999/xlink" x="0px" y="0px"
	 width="600px" height="400px" viewBox="0 0 600 400" enable-background="new 0 0 600 400" xml:space="preserve">
<g id="Layer_2">
</g>
<g>
	<polygon points="539.93,10.5 539.93,60.784 539.93,339.645 552.771,339.645 552.771,60.784 552.771,10.5 	"/>
	<polygon points="321.492,60.514 506.746,339.645 522.628,339.645 337.781,60.514 	"/>
	<polygon points="291.213,339.509 291.213,388.98 304.055,388.98 304.055,339.509 304.055,60.514 291.213,60.514 	"/>
</g>
<path d="M141.849,70.922c55.488,0,109.489,6.691,131.117,9.665V60.514H47.229v139.903V340.32h225.737v-20.073
	c-21.628,2.974-75.629,9.665-131.117,9.665c-57.921,0-82.049,2.298-82.049-129.495S83.928,70.922,141.849,70.922z"/>
</svg>
