<?xml version="1.0" encoding="utf-8"?>
<!-- Generator: Adobe Illustrator 16.0.0, SVG Export Plug-In . SVG Version: 6.00 Build 0)  -->
<!DOCTYPE svg PUBLIC "-//W3C//DTD SVG 1.1//EN" "http://www.w3.org/Graphics/SVG/1.1/DTD/svg11.dtd">
<svg version="1.1" xmlns="http://www.w3.org/2000/svg" xmlns:xlink="http://www.w3.org/1999/xlink" x="0px" y="0px" width="600px"
	 height="400px" viewBox="0 0 600 400" enable-background="new 0 0 600 400" xml:space="preserve">
<g id="Layer_2">
</g>
<g id="Layer_1">
	<g>
		<polygon stroke="#000000" stroke-width="2" stroke-miterlimit="10" points="90.634,150.338 90.634,364.423 313.169,364.423 
			109.631,151.054 109.648,151.038 100.356,141.298 		"/>
		<polygon stroke="#000000" stroke-width="2" stroke-miterlimit="10" points="400.5,42.75 404.5,31.594 218.344,31.594 
			100.356,141.298 109.648,151.038 225.133,42.632 		"/>
	</g>
	<polygon points="225.356,42.75 221.356,31.594 407.513,31.594 526.645,142.406 517.354,152.146 400.723,42.632 	"/>
	<line fill="none" stroke="#000000" stroke-width="2" stroke-miterlimit="10" x1="221.356" y1="46.177" x2="207.667" y2="163.667"/>
	
		<line fill="none" stroke="#000000" stroke-width="2" stroke-miterlimit="10" x1="207.667" y1="163.667" x2="313.169" y2="364.423"/>
	
		<line fill="none" stroke="#000000" stroke-width="2" stroke-miterlimit="10" x1="313.169" y1="163.667" x2="207.667" y2="163.667"/>
	
		<line fill="none" stroke="#000000" stroke-width="2" stroke-miterlimit="10" x1="207.667" y1="163.667" x2="109.648" y2="151.038"/>
	
		<line fill="none" stroke="#000000" stroke-width="2" stroke-miterlimit="10" x1="313.169" y1="163.666" x2="418.671" y2="163.666"/>
	<line fill="none" stroke="#000000" stroke-width="2" stroke-miterlimit="10" x1="418.671" y1="163.666" x2="517.15" y2="150.922"/>
</g>
</svg>
