<?xml version="1.0" encoding="utf-8"?>
<!-- Generator: Adobe Illustrator 16.0.0, SVG Export Plug-In . SVG Version: 6.00 Build 0)  -->
<!DOCTYPE svg PUBLIC "-//W3C//DTD SVG 1.1//EN" "http://www.w3.org/Graphics/SVG/1.1/DTD/svg11.dtd">
<svg version="1.1" id="Layer_1" xmlns="http://www.w3.org/2000/svg" xmlns:xlink="http://www.w3.org/1999/xlink" x="0px" y="0px"
	 width="600px" height="400px" viewBox="0 0 600 400" enable-background="new 0 0 600 400" xml:space="preserve">
<polygon stroke="#FFFFFF" stroke-width="1.0923" stroke-miterlimit="10" points="216.146,76.531 206.151,76.76 171.835,-1.805 
	184.276,-1.805 "/>
<polygon stroke="#FFFFFF" stroke-width="1.0923" stroke-miterlimit="10" points="224.649,87.246 220.487,87.246 184.276,-1.805 
	202.381,-1.805 "/>
<polygon stroke="#FFFFFF" stroke-width="1.0923" stroke-miterlimit="10" points="227.205,97.375 202.381,-1.805 206.151,-1.805 
	227.205,75.121 246.245,97.375 239.821,100.844 236.708,104.612 "/>
<polygon stroke="#FFFFFF" stroke-width="1.0923" stroke-miterlimit="10" points="263.905,107.889 274.499,114.443 265.216,87.246 
	263,-1.805 258.989,-1.805 "/>
<polygon stroke="#FFFFFF" stroke-width="1.0923" stroke-miterlimit="10" points="284.866,127.715 277.996,114.443 269.148,87.246 
	266.432,-1.805 263,-1.805 265.216,87.246 279.307,128.533 "/>
<polygon stroke="#FFFFFF" stroke-width="1.0923" stroke-miterlimit="10" points="263.905,115.943 258.989,-1.805 206.151,-1.805 
	227.205,75.121 252.437,104.612 251.126,109.527 "/>
<polygon stroke="#FFFFFF" stroke-width="1.0923" stroke-miterlimit="10" points="295.043,147.375 277.996,114.443 269.148,87.246 
	266.432,-1.805 373.99,-1.805 "/>
<polygon stroke="#FFFFFF" stroke-width="1.0923" stroke-miterlimit="10" points="290.448,156.06 373.99,-1.805 381.545,-1.805 
	301.262,145.675 310.17,166.708 304.865,168.754 "/>
<polygon stroke="#FFFFFF" stroke-width="1.0923" stroke-miterlimit="10" points="309.127,139.675 385.661,-1.805 381.545,-1.805 
	301.262,145.675 317.318,183.585 329.69,184.604 "/>
<polygon stroke="#FFFFFF" stroke-width="1.0923" stroke-miterlimit="10" points="335.745,197.833 309.127,139.675 385.661,-1.805 
	472.045,-1.805 "/>
<polygon stroke="#FFFFFF" stroke-width="1.0923" stroke-miterlimit="10" points="332.719,202.264 472.045,-1.805 478.867,-1.805 
	341.895,199.365 347.409,208.535 341.895,213.404 "/>
<polygon stroke="#FFFFFF" stroke-width="1.0923" stroke-miterlimit="10" points="351.069,196.037 481.297,-1.805 478.867,-1.805 
	341.895,199.365 355.657,222.252 362.995,222.373 "/>
<polygon stroke="#FFFFFF" stroke-width="1.0923" stroke-miterlimit="10" points="359.262,192.432 486.802,-1.805 481.297,-1.805 
	351.069,196.037 366.799,230.772 375.885,230.812 "/>
<polygon stroke="#FFFFFF" stroke-width="1.0923" stroke-miterlimit="10" points="381.545,243.88 359.262,192.432 486.802,-1.805 
	578.767,-1.805 388.589,266.223 381.545,259.608 377.612,246.173 "/>
<polygon stroke="#FFFFFF" stroke-width="1.0923" stroke-miterlimit="10" points="385.149,271.078 578.767,-1.805 585.355,-1.805 
	397.929,259.608 403.171,288.319 392.03,288.117 "/>
<polygon stroke="#FFFFFF" stroke-width="1.0923" stroke-miterlimit="10" points="401.009,261.123 589.929,-1.805 585.355,-1.805 
	397.929,259.608 404.867,297.608 401.009,301.225 403.171,310.072 407.999,310.741 406.398,301.225 408.729,297.608 "/>
<polygon stroke="#FFFFFF" stroke-width="1.0923" stroke-miterlimit="10" points="408.729,255.021 594.14,-1.805 589.929,-1.805 
	401.009,261.123 408.729,297.608 406.398,301.225 410.84,328.411 417.098,331.515 "/>
<polygon stroke="#FFFFFF" stroke-width="1.0923" stroke-miterlimit="10" points="412.674,255.021 598.005,-1.805 594.14,-1.805 
	408.729,255.021 419.228,347.429 417.098,349.395 417.098,360.7 422.648,362.829 419.228,351.361 421.521,347.429 "/>
<polygon stroke="#FFFFFF" stroke-width="1.0923" stroke-miterlimit="10" points="421.521,249.123 601,1.834 601,-1.805 
	598.005,-1.805 412.674,255.021 421.521,347.429 419.228,351.361 424.799,370.039 433.019,371.348 "/>
<polygon stroke="#FFFFFF" stroke-width="1.0923" stroke-miterlimit="10" points="430.369,400.534 430.042,383.802 433.974,381.508 
	421.521,249.123 601,1.834 601,400.534 "/>
</svg>
