<?xml version="1.0" encoding="utf-8"?>
<!-- Generator: Adobe Illustrator 16.0.0, SVG Export Plug-In . SVG Version: 6.00 Build 0)  -->
<!DOCTYPE svg PUBLIC "-//W3C//DTD SVG 1.1//EN" "http://www.w3.org/Graphics/SVG/1.1/DTD/svg11.dtd">
<svg version="1.1" xmlns="http://www.w3.org/2000/svg" xmlns:xlink="http://www.w3.org/1999/xlink" x="0px" y="0px" width="600px"
	 height="400px" viewBox="0 0 600 400" enable-background="new 0 0 600 400" xml:space="preserve">
<g id="Layer_2">
</g>
<g id="Layer_1">
	<g>
		<g>
			<path fill-rule="evenodd" clip-rule="evenodd" d="M453.536,174.166c-1.346,0.135-1.613,0.481-2.452,1.021
				c-0.682-1.021-1.362-2.043-2.043-3.064c-1.282-0.774-3.062-0.327-5.312-0.409c-0.492-2.249-0.98-3.422-3.064-4.086
				c-0.409-3.326-0.299-4.501-4.086-6.742c4.681-1.158,7.333-2.883,6.946-8.99c3.197-0.834,5.353-1.804,7.56-3.473
				c0.817,0.341,1.634,0.681,2.452,1.022c0.136,0.205,0.272,0.408,0.408,0.613c-0.886,0.681-1.771,1.362-2.656,2.043
				c-0.408,0.545-0.817,1.09-1.226,1.635c4.548-1.466,11.235-11.756,17.366-8.786c0.748-0.885,1.498-1.771,2.247-2.656h1.43
				c1.307,1.681,3.569,5.167,3.882,6.946c-0.681-0.408-1.362-0.817-2.043-1.226c0.436,1.23,3.963,4.511,5.107,5.108
				c-0.408-0.75-0.816-1.499-1.226-2.248c2.417,0.437,4.673,3.089,6.334,4.495h0.203c-0.959-2.258-4.429-4.877-7.354-5.107
				c-1.227-2.588-2.453-5.176-3.679-7.764c-0.546-0.36-1.752-0.747-2.247-1.226c-0.905,0.294-0.846,0.508-1.43,1.021
				c-1.328-0.901-1.987-1.83-3.678-2.452c-0.504-2.729-2.263-5.333-5.925-5.312c-1.434,2.161-3.685,2.55-4.29,5.516
				c-1.003-0.569-4.169-0.975-5.107-1.838c-0.272-0.681-0.545-1.362-0.818-2.043c-1.226-0.613-2.451-1.227-3.677-1.839
				c-0.477-1.158-0.954-2.315-1.431-3.473h-0.204c-0.613-0.136-1.226-0.272-1.839-0.409c-1.009-0.712-0.531-2.606-2.247-2.86
				c-0.942-0.14-2.211,0.566-3.27,0.205c-2.288-0.784-1.835-2.559-4.902-2.452c-0.61-0.971-1.731-2.346-1.839-3.064
				c-2.938,0.017-3.577-0.437-5.926-0.817c-2.168,1.263-9.117,10.016-9.193,13.484c-1.459,0.804-3.616,2.817-5.925,1.43
				c-1.871,1.756-2.512,4.679-4.29,6.538c-0.886,0.205-1.771,0.409-2.656,0.613c-0.953,1.43-1.907,2.861-2.86,4.291h-0.612
				c-0.953-1.907-1.907-3.814-2.86-5.721c-1.663-1.13-2.962,0.097-5.108-0.817c-0.737,0.711-2.405,3.583-2.656,4.495h-0.204
				c-0.203-0.817-0.408-1.635-0.612-2.451c-0.341-0.068-0.682-0.137-1.021-0.205c-2.402,1.794-4.526,3.68-5.516,6.946
				c-2.404,0.79-4.095,1.369-6.334,2.043c-0.511-1.383-2.432-2.875-3.678-3.473c-3.053-1.609-5.406,6.48-9.807,6.333
				c-0.068-0.136-0.136-0.272-0.204-0.409c1.214-0.843,1.958-2.139,2.655-3.473c0.817,0.067,1.635,0.136,2.452,0.204
				c-2.594-3.413-4.305,3.209-6.742,3.269c-0.409-0.545-0.816-1.089-1.226-1.634c-1.587,0.085-2.21,0.495-3.27,1.021
				c-1.817-2.339-2.433-5.022-5.721-5.925c-0.415,0.257-3.901,2.729-4.289,3.473c-0.506,0.968,0.208,1.424-0.205,2.248
				c-0.226,0.45-1.008,1.103-2.027,1.882c0.585-0.373,1.193-0.727,1.823-1.065c-0.549,1.715-1.025,1.974-2.044,3.064h0.614
				c-0.341,0.341-0.682,0.681-1.021,1.022v0.204c2.689-0.947,3.472-4.237,3.268-6.947c1.942-1.197,2.707-1.549,4.087-3.473
				c2.269,1.469,4.327,3.207,5.107,6.129c-1.862,0.539-3.501,1.65-4.494,3.064c2.655-1.362,5.312-2.724,7.967-4.086
				c0.409,0.477,0.818,0.954,1.227,1.43c-1.207-0.186-1.571,0.081-2.656,0.409c0.442,0.695,4.235,0.278,5.517,0
				c-1.533,2.23-1.711,3.819-0.612,6.742c-0.068,0.068-0.137,0.136-0.205,0.204c-1.43,0.341-2.86,0.681-4.29,1.021
				c-0.613,0.613-1.226,1.226-1.839,1.839c-1.158-0.272-2.315-0.545-3.474-0.817c-1.403,0.001-2.357,1.421-4.699,1.43
				c-0.938,1.431-1.31,4.065-2.86,4.699c0.068,0.204,0.137,0.409,0.205,0.613c0.681-0.34,1.361-0.681,2.043-1.021
				c0.204-1.09,0.408-2.18,0.612-3.269c0.881-1.199,3.505-0.309,5.312-0.204c-0.441-0.398-0.652-0.479-1.431-0.613
				c-0.068-0.136-0.137-0.272-0.204-0.408c1.487-0.936,2.765,0.386,5.108-0.205c-0.442,1.012-0.921,1.476-2.248,1.635
				c0.326,0.373,0.524,0.402,1.021,0.613c1.009-1.113,1.918-1.812,2.452-3.473l3.677-1.226h0.204
				c-0.34,0.817-0.681,1.634-1.021,2.452c1.188-1.084,1.422-3.047,3.064-3.677c-0.137,0.34-0.272,0.681-0.409,1.021
				c0.341-0.545,0.682-1.09,1.021-1.635c0.204-0.136,0.409-0.272,0.613-0.408c1.438,0.828,1.755,2.523,3.269,3.064
				c1.188,1.611,1.431,1.113,3.883,0.817c2.227,3.381,4.941,10.576,8.58,12.463c-0.886-1.362-1.771-2.724-2.656-4.086
				c0.886-0.205,1.771-0.409,2.656-0.613c0.136,0.068,0.272,0.137,0.408,0.205c1.021,3.064,2.044,6.129,3.065,9.194
				c0.136,0.068,0.272,0.136,0.408,0.204c-0.408-1.294-0.817-2.588-1.226-3.882h0.204c1.191,0.679,6.289,7.226,6.742,8.99
				c0.64,0.156,3.11,0.209,3.473,0.408c1.424,0.782,1.621,2.766,3.474,3.473c-1.09-1.294-2.18-2.588-3.269-3.881
				c-1.09-0.068-2.18-0.136-3.27-0.205c-2.486-6.138-7.867-8.014-9.193-15.527c-0.885,0.272-1.771,0.545-2.656,0.817
				c-1.903-0.747-6.284-6.619-6.334-8.376c-0.885,0.204-1.77,0.409-2.655,0.613c-1.634-1.056-2.273-2.958-3.882-3.882
				c-1.081-0.838-1.931-0.018-2.86,0.817c-0.137-0.068-0.272-0.136-0.409-0.205c-0.363-1.734-0.13-2.62,0-4.494
				c0.546-0.477,1.091-0.954,1.635-1.43h0.817c-0.145,1.558-0.549,1.956-1.226,2.86c0.136,0.068,0.272,0.136,0.408,0.204
				c3.254-3.086,1.474-6.645,6.946-9.397c1.226,0.953,2.452,1.907,3.679,2.86c1.37,1.967,1.51,4.762,3.677,5.924
				c-0.853-1.848-1.996-3.43-2.86-5.312c1.227,0.265,2.185-0.504,2.86-1.022c0.544,0.273,1.09,0.545,1.635,0.817
				c0.796,2.566-1.148,5.147-2.248,7.355v0.613c0.869-0.828,4.881-7.165,5.517-8.376v-0.205c-1.101,0.46-1.466,1.115-2.247,1.838
				c0.447-4.288,3.43-6.875,5.925-9.194c0.068-0.136,0.136-0.272,0.204-0.408c0.067,0.136,0.137,0.272,0.204,0.408
				c0.341,1.158,0.681,2.316,1.021,3.474c-1.241,0.357-2.428,0.837-2.86,2.043c1.921-0.789,3.323-1.935,5.721-2.248
				c1.598,0.945,2.058,2.606,3.473,3.678c-0.34-0.681-0.68-1.363-1.021-2.044c1.684,0.206,6.097,4.811,6.856,6.343
				c-0.557-2.333-1.398-4.048-1.545-7.364c1.779,0.696,2.563,2.355,3.064,4.291c0.748,0.345,1.213,0.321,2.247,0.408
				c-0.476,1.771-0.953,3.542-1.43,5.312c-0.408,0.477-0.817,0.953-1.226,1.43c-0.205,0.068-0.408,0.136-0.613,0.204
				c-0.005-1.014-0.075-1.881-0.186-2.66c-0.004,1.908-1.042,3.595-0.019,5.112c1.906,2.827,5.334,3.177,7.355,6.129
				c-0.137,0.34-0.272,0.681-0.409,1.021c-1.165-0.86-1.841-1.837-2.656-3.064h-0.204c0.7,3.842,4.242,4.118,5.107,7.968v0.205
				c-0.136,0.068-0.272,0.136-0.409,0.204c-2.521-2.278-5.04-4.556-7.561-6.834c3.008,3.257,5.788,7.195,8.787,9.49
				c0.953,0.544,1.906,1.09,2.86,1.634c1.11,1.969,0.198,5.012,0.817,7.56c1.182,4.865,2.946,9.374,5.925,12.462h0.204
				c-1.885-4.769-5.18-8.189-5.72-14.915c0.544,1.022,1.089,2.043,1.634,3.065c0.685,0.572,1.618,0.209,2.452,0.817
				c2.866,2.09,9.983,10.46,10.623,14.302c0.137,0.067,0.272,0.136,0.409,0.204h0.204c-0.44-2.478-1.837-3.645-2.86-5.516
				c6.38,2.179,3.54,10.033,6.742,15.323c0.068,0.137,0.137,0.272,0.204,0.409h0.205c-0.478-2.248-0.954-4.495-1.431-6.743
				c0.965,0.502,2.652,0.938,3.678,1.635c1.332,0.905,1.513,2.878,3.064,3.678h0.204c0.068-0.136,0.137-0.272,0.205-0.408
				c-1.045-0.874-0.92-1.708-1.227-2.247c-1.907-1.021-3.813-2.044-5.72-3.065c-0.575-3.033-1.325-6.561-2.86-7.968
				c-1.362-0.681-2.726-1.362-4.087-2.043c-1.361-1.907-2.725-3.814-4.087-5.721c-1.27-0.818-4.329-2.256-5.72-3.678
				c-1.782-1.821-0.578-4.372-1.839-6.946c-1.362-1.021-2.724-2.043-4.086-3.064c-0.136-1.362-0.272-2.725-0.409-4.086
				c-0.68-0.681-1.361-1.362-2.042-2.043c0.553-1.092,0.658-1.896,0-3.065c-1.702-3.02-6.487-2.561-7.151-6.742
				c2.925-0.495,2.804-3.446,5.517-4.291c1.317,1.733,3.209,1.818,4.903,2.86h0.204c-0.7-1.501-4.519-1.973-3.678-3.269
				c0.545-0.545,1.09-1.09,1.634-1.634c1.226,0.502,1.866,0.925,3.004,1.17c-0.717-0.644-1.558-1.251-2.799-1.579
				c-2.201,1.212-4.208,2.07-6.333,3.473c0.544-1.293,1.089-2.587,1.634-3.881h0.408c-0.69-0.921-1.162-0.889-2.859-0.817
				c-0.477-1.089-0.954-2.179-1.43-3.269c1.483-0.423,1.194-1.423,2.042-2.043c0.777-0.453,2.021,0.504,3.27,0.817
				c-0.204-0.204-0.409-0.409-0.613-0.613c0.749-0.272,1.498-0.544,2.248-0.817c-0.75,0.817-1.499,1.634-2.248,2.452v0.205
				c1.852-0.58,3.229-2.352,3.474-4.495c2.066-0.021,2.844-0.523,4.086-1.226c0.068,0.068,0.137,0.136,0.204,0.205
				c-0.272,0.272-0.545,0.544-0.817,0.816c-0.204,0.341-0.409,0.682-0.612,1.022c1.996-0.931,1.94-3.021,3.473-4.291h0.204
				c0.068-0.068,0.137-0.136,0.205-0.205c0.067-0.068,0.136-0.136,0.204-0.204c1.565-0.545,3.133-1.09,4.698-1.635
				c0.341-0.477,0.682-0.954,1.022-1.43c1.934-0.464,4.744,2.335,5.107,3.882c-1.651,0.308-3.82,0.316-5.721,1.021
				c-1.563,0.581-2.166,2.16-4.495,2.656v0.205c1.158,0.369,2.128-0.281,3.27,0.205c0.544-0.75,1.089-1.499,1.635-2.248
				c0.726-0.754,9.676-2.066,11.236-2.043v-0.205c-1.159-0.888-3.89-0.244-5.108,0.205c-2.105-2.209-2.993-3.732-6.333-4.086
				c-1.896,1.414-4.214,1.91-6.129,3.269c-1.279,0.908-1.665,2.543-3.269,3.269c-1.091,0.136-2.18,0.273-3.27,0.409
				c-0.408,0.613-0.816,1.226-1.226,1.838c-2.66,1.635-4.669-0.843-6.129,2.248c-0.205,0.136-0.408,0.272-0.613,0.408
				c-0.136-0.136-0.272-0.272-0.408-0.408c0.725-0.896,1.03-1.517,1.43-2.86c0.205-0.068,0.409-0.136,0.613-0.205
				c-0.068,0.272-0.136,0.545-0.204,0.817c0.827-0.515,0.739-0.798,1.021-1.838c0.476-0.068,0.953-0.136,1.43-0.205
				c-0.136,0.341-0.272,0.681-0.409,1.021c1.974-1.003,4.565-5.134,5.312-7.355c3.279-0.606,6.393,0.408,9.807-1.021
				c0.136-0.204,0.272-0.409,0.408-0.613v-0.204c-1.43,0.34-2.86,0.681-4.29,1.021c2.905-4.495,9.134-6.924,14.302-6.333
				c0.068,0.136,0.136,0.272,0.204,0.409v1.021c-0.886-0.204-1.771-0.408-2.655-0.613c-1.114,1.014-2.016,2.185-3.679,2.656
				c-0.068,0.272-0.136,0.545-0.204,0.817v0.205c0.136,0.068,0.272,0.136,0.409,0.204c1.003-1.381,2.738-1.8,3.677-3.269
				c1.354,0.603,2.85,1.199,4.699,1.226c0.478,1.158,0.954,2.316,1.431,3.473c0.136,0.068,0.272,0.136,0.408,0.204
				c-0.067-0.613-0.136-1.226-0.204-1.838c0.827,0.7,1.483,1.917,1.635,3.269c0.136-0.068,0.272-0.136,0.408-0.204
				c-0.583-2.881-2.812-3.282-3.269-5.721h-1.635c-0.793-1.827-1.521-2.439-3.27-3.269c-4.464,0.318-8.56,3.371-11.44,5.517
				c0.612-1.43,1.227-2.861,1.839-4.291c0.408-0.341,0.817-0.681,1.226-1.021c-0.137,0.613-0.272,1.226-0.408,1.839
				c0.204-0.068,0.408-0.136,0.612-0.205c0.272-1.226,0.545-2.452,0.817-3.677c1.956-1.937,2.793-2.421,4.291-5.108
				c0.612,0.205,1.226,0.409,1.838,0.613c-1.078,2.414-3.174,3.053-4.29,5.516c1.423-0.821,1.783-2.571,3.474-2.452
				c0.498-0.519,0.653-1.161,0.816-2.043l3.27-0.817c1.647,1.854,2.087,4.493,3.677,6.538c0.837,0.515,1.673,1.029,2.509,1.544
				c-1.214-1.443-2.56-2.515-3.121-4.608c0.49,0.305,0.231,0.124,0.408-0.409c2.413,0.359,2.93,2.455,4.699,3.473
				c0.068,0.137,0.137,0.273,0.204,0.409v-1.226c0.886,0.068,1.771,0.136,2.656,0.204c0.666,0.7,1.119,0.689,1.431,1.839
				c-2.087,0.013-4.194,0.599-5.312,1.634c-0.216-0.356-0.45-0.674-0.691-0.979c0.356,0.659,0.653,1.31,0.921,1.95
				c0.656-1.72,5.435-2.7,7.125-1.788c0.75,1.362,1.499,2.724,2.248,4.086c0.803,0.438,2.03,0.035,2.86,1.021
				c1.01,1.2,0.563,2.293,2.043,3.064c0.99,0.517,2.597,0.41,3.678,0.817c0.068,0.136,0.136,0.272,0.204,0.408
				c-1.874,1.247-3.788,2.05-6.129,3.065c-0.642,2.029-1.013,4.489-1.84,6.129c-0.689,1.069-1.731,1.319-3.064,1.227
				c0.624,5.196-5.429,3.635-6.537,7.763c-0.409,0.34-0.817,0.681-1.226,1.021c-1.675-2.527-3.662-3.618-5.107-6.538
				c-3.458,0.131-4.174,0.642-6.742-0.613c-1.142,1.014-2.282,2.028-3.423,3.042c1.21-0.338,2.318-0.913,3.626-2.43
				c1.09,0.409,2.18,0.817,3.27,1.226c0.953-0.272,1.907-0.545,2.86-0.817c0.272,0.749,0.545,1.498,0.816,2.247
				c0.501,0.834,5.581,3.449,4.291,4.903c0.318,0.615,0.125,0.171,0.817,0.409c0.614,0.835,0.731,1.146,1.431,0.409
				c1.495,0.447,2.711,2.334,3.269,3.677c-0.137,1.975-0.273,3.95-0.408,5.925c-0.613-0.817-1.226-1.634-1.839-2.452
				c0.757,4.138,3.343,5.078,3.269,10.624c0.136-0.544,0.271-1.09,0.408-1.634c1.278,0.568,2.389,0.7,3.883,0.817
				c0.273,1.601,0.587,3.745,0.888,5.959c1.495,0.619,3.2,2.604,3.606,4.255c-3.441,3.511,4.625,14.382,6.538,15.731h0.204
				c-1.43-1.838-2.861-3.677-4.29-5.516c2.041,0.184,3.043,0.674,5.107,0.816c0.272,1.295,0.545,2.589,0.816,3.882
				c1.077-0.384,0.292-0.365,1.431,0.409h0.204c-0.612-1.382-1.335-2.01-1.431-4.086c-1.688-1.157-4.342-1.059-6.741-1.635
				c-0.271-1.09-0.062-2.265-0.205-3.064c-0.612-0.953-1.226-1.907-1.839-2.86c0.272-1.158,0.545-2.316,0.818-3.473
				c0.062-1.694-2.604-4.493-4.291-5.108c-0.055-2.161-0.351-3.822,0.204-5.107c-0.842-0.838-3.097-1.047-4.494-1.43
				c-0.787-2.759-1.409-5.589-1.839-9.603h0.204c2.903,1.856,3.238,5.911,4.903,8.99c0.068,0.136,0.137,0.272,0.205,0.409
				c0.218-0.632,0.045-0.833-0.205-1.43c0.545,0.068,1.09,0.136,1.634,0.204c0.137,0.681,0.272,1.362,0.409,2.043
				c0.137,0.068,0.272,0.136,0.409,0.204c-0.137-0.885-0.272-1.771-0.409-2.656c-1.888-0.555-2.899-1.248-3.269-3.269
				c1.09-0.136,2.179-0.272,3.269-0.408c1.554,0.863,7.172,8.188,7.355,10.215h0.408c0.068-0.545,0.137-1.09,0.204-1.635
				c-1.218-1.221-2.849-2.299-3.473-4.086c-0.137-0.136-0.272-0.272-0.409-0.409c0.477-0.477,0.954-0.954,1.431-1.43
				c1.057,0.323,3.333,3.394,4.097,4.737C456.378,177.133,455.227,175.557,453.536,174.166z M378.964,152.101h-0.204
				c-0.136-0.205-0.272-0.408-0.408-0.613c0.136-0.272,0.272-0.545,0.408-0.817h0.613
				C379.236,151.147,379.1,151.625,378.964,152.101z M387.545,146.993c-0.068-0.136-0.137-0.272-0.205-0.408
				c0.75-0.613,1.499-1.226,2.248-1.839c0.681,0.681,1.362,1.362,2.043,2.043h0.204c-0.204-0.477-0.408-0.954-0.612-1.43
				c0.271-0.068,0.542-0.136,0.814-0.204c-0.795-0.263-1.552-0.518-2.041-1.022c-0.136-0.067-0.272-0.136-0.408-0.204
				c0.813-1.646,2.277-1.268,3.882-2.043c3.291,2.039,2.429,5.355,3.677,9.807C393.829,150.532,392.471,146.36,387.545,146.993z
				 M446.794,148.015c1.157-1.021,2.315-2.043,3.473-3.065v-0.204c-0.681,0.409-1.362,0.817-2.043,1.226h-0.204v-1.635
				c2.694-0.875,4.188-1.963,6.333-3.269h0.204c-0.266,2.341-1.056,4.019-1.839,5.721c3.339-1.079,1.617-6.027,3.065-8.377
				c0.936-1.519,2.927-1.624,3.881-3.473c1.686,0.551,3.645,2.065,4.495,3.473c0.068,0.272,0.137,0.545,0.204,0.817
				c-1.447-0.342-1.851-0.838-3.881-0.817c-0.205,0.477-0.409,0.954-0.613,1.43c1.242-0.584,1.002-0.823,2.655-0.817v1.021
				c2.704-0.379,3.957,1.524,5.517,2.86v0.613c-1.057,0.472-1.618-0.133-2.656,0c-2.11,0.271-6.165,2.068-7.968,2.86
				c-1.469,0.646-1.667,2.7-3.473,3.27c-1.451-3.253-4.94-0.914-6.947,0.204h-0.203V148.015z M435.965,160.682h-0.612
				c2.175-2.39,4.881-3.812,7.355-5.925C443.574,157.977,438.2,159.697,435.965,160.682z M457.213,179.682
				c-0.043-0.098-0.113-0.228-0.193-0.37c0.287,0.977,0.472,2.077,0.554,3.337C457.662,181.676,457.654,180.679,457.213,179.682z
				 M392.04,145.155c-0.001,0-0.002,0-0.003,0c0.002,0.001,0.004,0.001,0.006,0.002C392.042,145.156,392.041,145.156,392.04,145.155
				z M447.815,190.919c-0.423-1.87-0.845-3.741-1.268-5.611c0.24,1.803,0.469,3.619,0.654,5.203
				C447.406,190.647,447.61,190.783,447.815,190.919z M394.491,146.38c-0.669-0.64-1.581-0.937-2.448-1.223
				c0.815,0.68,1.632,1.36,2.448,2.041V146.38z M473.557,192.554c-1.464-1.05-2.641-1.745-3.677-3.269
				c-0.738-1.189-3.034,0.264-3.882,0.817c-0.523-0.428-1.043-0.874-1.569-1.319c1.053,1.374,1.676,3.201,3.204,4.179
				c0.402,0.327,0.279,0.278,1.021,0.409c-0.817-0.886-1.635-1.771-2.451-2.656c0.823-0.713,1.544-1.179,3.064-1.226
				c0.681,1.294,1.362,2.588,2.043,3.882c0.136,0.068,0.272,0.136,0.408,0.204h0.205c-0.205-0.613-0.409-1.226-0.613-1.838
				c0.477,0.205,0.953,0.409,1.43,0.613c1.647,3.866-0.272,9.201,3.882,11.237c0.204,0.137,0.408,0.272,0.613,0.409
				c-0.478-0.682-0.954-1.362-1.431-2.044c1.121,0.491,1.323,0.133,2.453-0.152c-0.438-0.16-1.225-0.233-3.066-0.255
				C474.017,199.401,473.615,195.658,473.557,192.554z M480.504,203.382c-1.453-0.711-1.559-1.161-1.962-1.438
				c0.638,1.624,1.909,2.853,2.983,3.687h0.205c-0.273-0.478-0.546-0.954-0.818-1.431c1.021-0.204,2.044-0.409,3.065-0.613
				c0.536,0.676,2.169,6.159,2.246,7.56v-3.474c-0.895-1.002-1.271-1.707-1.633-4.086
				C482.956,202.684,482.486,204.353,480.504,203.382z M463.547,187.854c-0.085-0.066-0.348-0.196-0.709-0.36
				c0.545,0.419,1.074,0.852,1.591,1.289C464.166,188.441,463.885,188.119,463.547,187.854z M457.573,182.649
				c-0.156,1.719-0.617,3.363,0.457,4.796c1.841,2.458,6.471,5.278,6.333,8.376c0.068,0.068,0.137,0.136,0.205,0.205
				c0.068-0.681,0.136-1.362,0.204-2.043c-2.336-2.086-5.546-5.525-6.946-8.376v-0.205c0.524,0.228,3.582,1.442,5.012,2.091
				c-1.494-1.149-3.14-2.171-5.216-2.704C457.636,184.026,457.617,183.317,457.573,182.649z M478.258,201.799
				c0.114,0.042,0.205,0.09,0.284,0.145c-0.025-0.066-0.058-0.129-0.081-0.196C478.386,201.764,478.326,201.781,478.258,201.799z
				 M446.548,185.308c-0.03-0.229-0.062-0.459-0.092-0.687c-0.023-0.01-0.048-0.026-0.071-0.035
				C446.439,184.826,446.493,185.067,446.548,185.308z M334.834,161.704c0.684,1.965-0.141,4.305-1.562,6.717
				c1.679-1.99,5.753-2.277,7.895-2.835c0.068-0.136,0.137-0.272,0.204-0.409c-0.136-0.137-0.272-0.272-0.407-0.409
				c-1.987,1.034-3.945,0.854-5.721,1.839c0.045-4.243,1.595-7.046,3.924-9.162C337.406,158.796,335.623,160.297,334.834,161.704z
				 M325.954,178.677c0.095-0.155,0.192-0.312,0.296-0.472c-0.137,0.084-0.261,0.168-0.406,0.251
				C325.881,178.53,325.917,178.604,325.954,178.677z M310.317,192.145c-1.446-0.217-1.025-0.917-1.839-1.226
				c-1.157,0.205-2.315,0.409-3.474,0.613c-0.681-0.544-1.361-1.089-2.042-1.634c-1.236-0.153-0.744,0.732-1.84,0
				c-0.544,0.477-1.089,0.954-1.634,1.43c-0.204-0.886-0.409-1.771-0.613-2.656c-1.491-0.195-1.592-0.724-2.656-1.226
				c-0.79,0.569-1.234,0.954-0.817,1.635c-1.312,1.652-2.443,0.335-4.291,1.634c-0.951,0.668-0.826,1.819-2.043,2.452
				c-0.681-0.272-1.362-0.545-2.043-0.817c-2.311,1.928-4.143,4.816-6.946,6.129c-1.43,0.273-2.861,0.545-4.291,0.817
				c-0.954,1.499-1.907,2.997-2.86,4.495c-1.674,1.106-3.521,0.161-5.108,0.613c-0.749,0.545-1.498,1.09-2.248,1.634
				c-0.544-0.204-1.089-0.407-1.634-0.612c-1.297,0.905-1.58,2.134-3.678,2.247c-0.953-0.885-1.907-1.771-2.86-2.655
				c-2.242,0.582-2.94,1.412-5.721,1.43c-1.201-1.415-2.533-3.034-4.291-3.882c-2.789,0.563-3.813,1.88-4.957,3.251
				c1.516-0.946,3.032-1.895,4.548-2.842c2.001,0.78,2.946,2.739,4.699,3.882c-0.817,0.271-1.635,0.544-2.452,0.816
				c-0.068,0.205-0.136,0.409-0.204,0.613c3.601-0.322,5.156-1.486,8.172-2.655c2.503,4.061,7.097,3.61,11.441,2.042
				c-1.362,1.362-2.724,2.725-4.086,4.086c-0.815,0.511-1.967,0.896-3.166,1.303c0.919-0.229,1.838-0.46,2.757-0.689
				c1.499-1.361,2.997-2.724,4.495-4.086c2.52-1.361,5.04-2.724,7.559-4.086c0.136-0.068,0.272-0.136,0.409-0.204v-0.205
				c-1.09,0.341-2.18,0.682-3.27,1.021c0.001-1.858,1.985-2.769,2.656-4.699c1.446-0.829,3.398-0.878,5.107-1.021
				c1.158,0.953,2.316,1.907,3.473,2.859h0.205c-0.205-0.204-0.409-0.407-0.613-0.612c-0.205-0.272-0.409-0.545-0.613-0.817
				c0.067-0.068,0.136-0.136,0.204-0.204c0.544,0.068,1.09,0.136,1.634,0.204c1.952,1.724,3.107,5.522,2.248,8.785
				c0.068,0.272,0.136,0.545,0.204,0.817h0.204c0.322-1.682,0.444-2.454,0.409-4.699h0.817c0.341,0.953,0.681,1.907,1.021,2.86
				v1.226c-0.34-0.136-0.681-0.272-1.021-0.408c0.475,1.192,1.439,1.252,2.656,1.635h0.817c-0.681-0.273-1.362-0.546-2.043-0.817
				c-0.204-1.498-0.409-2.996-0.613-4.495c-0.613-0.272-1.226-0.545-1.839-0.817c-0.992-1.235-1.976-3.401-2.656-4.699
				c-2.683,0.024-2.571-0.371-4.291-1.021c-0.136-0.205-0.272-0.409-0.409-0.613c1.703-0.954,3.405-1.907,5.107-2.86v-0.205
				c-0.48-0.448-0.643-0.136-1.43-0.205c0.4-1.035,1.83-1.694,2.86-2.043c0.954,0.721,0.98,0.724,2.452,0.409
				c-0.477,0.681-0.953,1.362-1.43,2.043c-0.272,0.34-0.545,0.681-0.817,1.021c1.564-0.755,2.975-3.081,3.473-4.903
				c1.039-0.593,2.199-0.785,3.882-0.817c0.332-1.017,0.974-1.624,1.021-2.452c1.158-0.501,6.248,6.996,6.128,10.419
				c-1.359-0.794-3.316-1.443-4.085-2.86c-0.136,0.272-0.272,0.545-0.409,0.817c1.329,1.579,3.6,1.605,4.494,3.678
				c0.272,0.204,0.546,0.408,0.818,0.613c0.141-4.006-1.824-6.314-3.065-9.398v-0.204c2.333-1.24,5.037,1.623,8.376,0
				c0.61,1.105,1.29,1.875,2.656,1.021c0.241,1.918-0.816,2.418-0.613,4.495h-1.839c-0.899,2.489-0.223,4.476,0.612,6.333
				c-1.157,1.506-5.104,4.248-7.149,3.474c-1.651,0.87-3.935,2.753-3.27,4.7c-0.796,0.601-1.381,1.039-2.093,1.346
				c1.257-0.347,1.927-0.093,3.319-1.959c-0.479-0.115-0.28-0.01-0.817,0.204v-1.431c0.819-0.589,1.665-1.107,3.064-0.613
				l0.205-0.407c-0.408-0.068-0.817-0.137-1.227-0.205v-0.204c0.137-0.204,0.273-0.409,0.409-0.613
				c0.885,0.068,1.771,0.136,2.656,0.204c-0.613,1.021-1.226,2.044-1.839,3.065v0.204h0.204c1.536-1.468,1.915-3.404,3.27-5.108
				c1.701-0.953,3.405-1.906,5.107-2.859c2.33,0.107,3.697,1.407,4.903,2.656h0.816v-0.205c-0.748-0.613-1.498-1.226-2.246-1.839
				c-0.137-0.068-0.273-0.136-0.409-0.204c1.196-0.946,3.706-1.653,5.516-1.838c0.068-0.137,0.137-0.273,0.205-0.409h-1.226v-0.205
				c0.204-0.272,0.407-0.545,0.612-0.817c4.637-0.012,3.498,2.583,6.538,3.677v-0.204c-0.409-0.612-0.817-1.226-1.227-1.839
				c1.967,1.137,4.155,2.895,5.312,4.903v0.409h0.204c-0.054-5.424-9.794-6.739-10.215-7.968c-0.479,0.153-5.659,3.569-5.925,3.882
				c-1.492-0.477-2.311-0.663-3.882,0c-0.478-0.545-0.953-1.091-1.431-1.635c0.247-1.565,0.307-2.215,0.205-3.677
				c1.565-0.137,3.133-0.273,4.698-0.409c1.92-1.076,1.401-2.538,4.086-2.656v-0.408c-3.477,0.135-3.139,2.429-6.333,2.86
				c-0.137-0.272-0.272-0.545-0.409-0.817c0.413-1.943,1.389-2.467,0.409-4.495c0.613-0.477,1.226-0.954,1.839-1.43v1.226h0.408
				c0.329-1.72,0.758-2.636,1.286-3.775C313.066,188.882,311.983,190.343,310.317,192.145z M272.725,204.812
				c-2.226,2.901-7.586,3.541-10.624,3.27c0.121-0.687,0.871-1.736,2.043-2.044c0.32,0.651,2.128,0.744,3.473,0.818v-0.205
				c-0.477-0.136-0.953-0.272-1.43-0.408c1.307-1.618,2.671-1.369,5.108-1.226c0.272-0.273,0.545-0.546,0.817-0.817h0.613V204.812z
				 M295.403,188.876c0.068-0.136,0.136-0.272,0.204-0.408h0.204C295.675,188.604,295.539,188.74,295.403,188.876z M314.668,187.757
				c0.173-0.122,0.352-0.239,0.538-0.353c-0.131,0.014-0.259,0.027-0.395,0.042C314.763,187.553,314.715,187.654,314.668,187.757z
				 M414.104,157.209c-1.144-0.308-1.878-1.122-2.74-1.948c0.232,0.581,0.465,1.162,0.697,1.743c2.601,1.52,8.811,4.088,11.85,4.495
				v-0.409c-3.044-1.149-6.234-3.2-8.989-3.881v-0.205c0.969-0.367,1.812-0.579,2.576-0.74
				C416.211,156.193,415.243,155.867,414.104,157.209z M441.89,142.09v0.205c-1.839,0.25-3.526,1.095-5.516,1.43
				c-0.137,0.272-0.272,0.545-0.409,0.817c0.954-0.409,1.907-0.817,2.86-1.226c-0.203,0.34-0.408,0.681-0.612,1.021
				c3.657-1.819,5.145-1.636,8.784-0.408c-0.203-0.205-0.408-0.409-0.612-0.613c-1.492-1.921-1.391-0.192-3.474-1.022
				c-1.179-0.772-0.822-2.143-1.634-3.269c-0.886-0.545-1.771-1.09-2.655-1.635c-1.183-1.535-0.927-3.377-2.8-4.255
				c0.677,1.628,1.228,3.191,2.391,4.664C439.877,139.907,440.375,138.58,441.89,142.09z M435.822,133.136
				c-0.012-0.028-0.024-0.057-0.036-0.085c-0.006,0.017-0.019,0.033-0.024,0.05C435.785,133.111,435.8,133.125,435.822,133.136z
				 M256.177,219.727c-0.545,0.34-1.09,0.681-1.635,1.021c-3.896-1.48-6.081-4.619-9.603-6.334c-0.986-0.375-2.028,0.201-2.86,0.613
				c-1.333-1.035-1.11-2.552-2.248-3.677c-0.86-0.853-2.17-0.547-2.86-1.635c-0.136-0.137-0.272-0.272-0.409-0.409
				c1.362-0.409,2.724-0.816,4.086-1.226c-0.137,0.681-0.273,1.362-0.409,2.043c0.924-0.938,0.941-2.33,1.52-3.533
				c-0.274,0.298-0.568,0.593-0.907,0.877c-1.566,0.477-3.133,0.954-4.699,1.43c-0.205-0.612-0.409-1.226-0.613-1.838
				c-1.624,0.223-3.565,1.02-3.882,2.656c-0.956-0.281-1.902-0.319-2.451-1.022c-3.036,0.683-4.497,4.371-6.743,5.925
				c-2.042,0.478-4.086,0.954-6.129,1.431c-1.706,1.229-1.496,3.378-3.065,4.699c-4.409-3.447-2.044-1.513-5.924,0.408
				c-1.539,1.397-4.402,0.41-6.129-0.204c-0.272,0.271-0.545,0.545-0.817,0.817c-0.509-0.535-0.271-0.315-0.817-0.409
				c-0.12-0.052-1.081-1.522-2.02-3.018c0.06,0.666,0.121,1.332,0.181,1.996c-0.801,0.217-1.322-0.43-2.86-0.612
				c-0.542,2.169-2.066,5.164-4.086,5.924c-0.954-0.136-1.907-0.271-2.86-0.407c-2.166,2.116-4.295,5.579-6.742,6.741
				c-0.34,0.408-0.681,0.817-1.021,1.227v0.204h0.817c2.853-2.128,4.812-4.451,6.742-7.56c1.089,0.477,2.179,0.953,3.269,1.43h0.613
				c-0.205-0.204-0.409-0.408-0.613-0.613c1.686-2.162,4.089-2.885,4.291-6.333c6.016,1.137,6.215,6.042,12.872,7.151
				c0.953,2.314,1.907,4.631,2.86,6.946c0.136,0.068,0.272,0.136,0.408,0.204h0.205c-0.477-1.294-0.954-2.588-1.43-3.882
				c2.454,0.137,2.427,1.532,4.291,2.247c0.274,0.664,0.156,0.913,0.204,2.247c-0.272-0.271-0.544-0.544-0.817-0.816
				c-0.068,0.477-0.136,0.953-0.204,1.43c0.885,0.341,1.771,0.682,2.656,1.021c0.205,0.613,0.408,1.226,0.613,1.839
				c-1.354-0.462-2.004-0.194-3.473,0c1.285,1.123,4.896,0.107,6.742,0.817c0.454,0.375,0.296,1.39,0.817,2.248
				c1.899,3.121,4.729,7.812,8.173,9.397c-1.058-2.083-2.763-3.2-3.882-5.107c0.67,0.333,1.182,0.444,2.043,0.203
				c0.724,1.694,2.262,3.104,4.291,3.474l-1.838-1.43v-0.204c1.57,0.451,3.266-1.035,4.903-0.205
				c2.612,1.325,3.794,3.688,7.15,4.495c0.218,0.938,0.309,1.467,0.613,2.451l0.409,0.205h0.205
				c-0.205-0.886-0.409-1.771-0.613-2.656c-2.772-1.585-5.582-3.883-7.763-4.903c-1.394-1.023-3.573,0.109-5.516,0.204
				c-0.545-0.681-1.09-1.362-1.635-2.043c-1.833-0.952-2.578,0.588-3.678-1.021c3.056-2.352,8.22-0.682,10.624,1.226h0.205
				c-0.882-2.192-2.708-2.245-4.699-3.27c0.165-1.938,3.394-3.87,4.903-4.29c-0.404,1.37-0.257,2.345-0.204,4.086
				c0.204-0.545,0.408-1.09,0.613-1.635v-0.408l0.204,0.408c0.809-1.143,0.001-2.263,0.613-3.678c0.25-0.58,6.236-5.136,7.15-5.312
				v-0.204c-0.204-0.137-0.409-0.272-0.613-0.409c-0.613,0.137-1.226,0.272-1.839,0.409c-1.892,3.027-11.798,9.007-11.441,11.441
				c-1.371,0.274-4.423,0.364-5.924,0.816c-0.96-0.886-2.508-2.907-2.248-4.29c-0.9-0.862-2.143-1.183-3.678-1.431
				c-1.097-2.068-2.973-6.711-5.516-7.968c-0.749-0.067-1.498-0.136-2.248-0.204c-1.795-1.42,0.06-2.917-3.677-3.677
				c-0.068-0.137-0.136-0.273-0.204-0.409c2.314-2.108,7.407-0.521,11.237-3.064c1.441,1.008,3.669,1.705,5.108,2.655h0.204
				c-0.415-0.837-0.895-1.134-1.838-1.43v-0.204c1.294-0.613,2.588-1.227,3.881-1.839c2.049,0.477,3.223,2.357,3.882,3.882h-2.043
				c1.698,1.407,3.936,0.068,5.312,2.451c0.205,0.137,0.409,0.272,0.613,0.409h0.205c-0.447-1.417-5.997-6.462-7.355-7.355
				c-1.623,0.478-3.605,1.319-5.312,2.248c-0.953-0.478-1.907-0.954-2.86-1.431c-1.344,0.938-3.463,1.365-5.108,2.043
				c0.886-1.362,1.771-2.724,2.657-4.086c0.136-0.068,0.272-0.137,0.408-0.204c0.136,0.613,0.272,1.226,0.409,1.839h0.613
				c-0.073-2.577-0.237-3.208,0.408-5.107c1.369-0.47,2.833,0.085,4.086,0c2.125-0.146,5.631-2.845,6.742-4.291
				c-0.068-0.067-0.136-0.136-0.204-0.204c-0.885,0.544-1.771,1.09-2.656,1.635c0.953-2.144,3.107-2.073,4.086-4.086
				c0.619-0.216,1.762,0.252,2.86,0.816c0.341,0.282,0.361,0.466,0.613,0.818v0.407c0.204-1.021,0.408-2.042,0.613-3.064
				c0.885-0.34,1.771-0.681,2.656-1.021c0.1,2.062,2.308,3.708,3.882,3.679c0.833,1.056,1.052,2.766,2.043,3.677v0.204
				c-1.194,0.306-2.742,0.249-3.473,1.021c-0.272,0.341-0.545,0.682-0.817,1.021c2.071-0.975,5.544-2.176,7.968-2.656
				c1.582,1.336,6.527,5.862,8.581,6.13c-1.011,0.664-0.937-0.28-2.043,0c-1.39,0.352-2.698,2.75-5.312,3.269
				c-0.799,1.923-1.106,4.148-2.248,5.312c0.426,0.342,0.402,0.325,1.226,0.408c0.34-0.205,0.681-0.408,1.022-0.612
				c0.068-0.137,0.136-0.273,0.204-0.409c-0.573-0.135-0.459-0.037-1.021,0.204c0.15-2.467,1.268-2.192,1.021-4.495
				c1.714-0.504,2.433-1.358,4.495-1.43c0.068-0.544,0.137-1.09,0.204-1.635c5.615,0.733,9.568-2.825,13.689-4.903
				c1.318,1.218,2.209,2.569,3.881,3.474c0.136-0.137,0.272-0.272,0.409-0.408c-0.409-0.205-0.817-0.409-1.227-0.613
				c-0.272-0.341-0.544-0.682-0.816-1.021c1.396-0.543,1.865-0.249,2.247-1.839c0.817,0.136,1.635,0.272,2.452,0.408
				c0.205-0.067,0.408-0.136,0.613-0.204v-0.204c-0.554-0.412-2.398-0.321-3.473-0.612c-0.272,0.544-0.545,1.089-0.817,1.634
				c-0.849-0.066-2.249-0.8-3.064-1.021c-0.978-0.266-6.999,2.806-7.764,3.269l-0.204-0.408c-0.588-1.106,0.625-3.542,1.768-4.743
				C256.505,215.182,255.082,216.702,256.177,219.727z M206.939,224.017c-0.272,0.341-0.545,0.681-0.817,1.021
				c-1.589,1.204-4.027-0.187-4.699-2.247c-0.204-0.205-0.408-0.408-0.613-0.613c1.167-0.68,1.297-0.077,3.065,0.205
				c-0.273,0.34-0.545,0.681-0.817,1.021c2.308-1.452,2.423-1.101,5.312-0.818c0.068-0.136,0.136-0.271,0.205-0.408
				c-0.272-0.067-0.545-0.136-0.817-0.204h-0.408c0.885-0.885,1.771-1.771,2.656-2.656c0.341,0.068,0.681,0.137,1.022,0.205
				c0.544,0.408,1.089,0.816,1.634,1.226c0.136,0.204,0.272,0.408,0.409,0.612C209.888,223.986,211.753,223.963,206.939,224.017z
				 M179.562,218.704c-1.988,2.358-1.959,5.676-3.269,8.581c-0.775,1.718-2.494,1.777-2.657,4.495
				c-1.361,0.714-2.926,0.989-4.29,1.226c-1.119-0.525-1.453-1.025-2.043-2.043c-2.792-0.089-4.563,2.776-6.742,3.474l-4.291-0.205
				c-1.804,0.834-5.128,2.78-4.699,5.312c-1.362,0.136-2.724,0.272-4.086,0.408c-0.749,0.749-1.498,1.499-2.247,2.247
				c-1.276,0.615-2.789,0.875-3.882,1.226c-0.477,1.635-0.954,3.27-1.43,4.904c-1.405,1.665-3.663,1.751-5.516,3.064
				c-1.058,0.75-1.095,1.775-2.452,2.452c-2.349-1.363-3.292-0.321-5.516-2.247c-3.681,0.151-5.546,2.254-10.011,2.247
				c-0.708-0.727-2.065-3.267-2.86-3.678c-2.774-1.433-3.822-1.206-4.699-4.495c-0.136-0.067-0.272-0.136-0.408-0.204
				c-1.774,1.864-4.147,1.693-5.925,3.474c-1.525,1.528-2.343,2.892-4.495,3.882c-1.226,0.34-2.452,0.681-3.677,1.021
				c-0.654,0.379-0.905,0.967-1.103,1.58c2.751-1.208,5.502-2.416,8.254-3.624c0.681-1.021,1.362-2.043,2.043-3.063
				c1.176-0.763,4.035-1.533,5.107-1.84c0.335,2.317,2.501,4.369,4.086,5.517c-0.205-0.409-0.409-0.816-0.613-1.226
				c0.34-0.204,0.681-0.409,1.021-0.613c1,1.361,1.766,2.485,2.86,3.678c-1.089,0.205-2.179,0.408-3.269,0.612v0.205
				c3.538,0.877,10.463-1.776,13.075-3.065c1.853,1.078,2.041,2.128,5.516,2.044c-1.566,0.749-3.133,1.498-4.699,2.247
				c-0.51,0.912-0.821,1.562-0.817,3.064c-2.81,0.747-4.076,2.492-6.333,3.882c-4.258,2.622-6.727-0.481-6.845,5.219
				c0.802-0.736,1.597-1.343,1.942-2.563c-0.34,0.137-0.681,0.273-1.021,0.409c1.233-2.82,3.296-1.032,5.72-2.247
				c1.362-1.089,2.725-2.18,4.086-3.269c2.392-1.198,4.847-1.249,6.946-2.452c0.136-0.067,0.272-0.136,0.409-0.204v-0.204
				c-1.43,0.408-2.86,0.817-4.291,1.226c0.068-0.749,0.136-1.499,0.205-2.247c1.975-0.818,3.95-1.635,5.925-2.451h0.204
				c-0.204,0.476-0.408,0.953-0.613,1.43h0.205c1.476-1.298,1.864-3.275,3.677-4.29c-0.136,0.34-0.272,0.68-0.409,1.021
				c2.389-1.146,2.856-3.836,5.721-3.881c0.305-0.492,0.124-0.232-0.409-0.409c0.749-0.544,1.498-1.09,2.248-1.635v-0.204
				c-0.75,0.272-1.499,0.545-2.248,0.817l0.409-3.064c1.325-1.312,2.968-0.746,4.291-1.431c0.545-0.681,1.089-1.361,1.634-2.043
				c2.587-1.259,5.983-0.212,8.172-1.431c0.136-0.067,0.272-0.136,0.409-0.203c-1.158,0.067-2.316,0.136-3.473,0.203
				c-0.068-0.067-0.137-0.136-0.205-0.203c0.272-1.78,1.174-2.966,2.86-2.86c-0.068,0.612-0.136,1.226-0.205,1.838
				c2.979-2.823,0.05-3.126,5.516-3.269c-0.687,0.916-1.356,1.49-1.634,2.86c0.885-1.021,1.77-2.043,2.656-3.064
				c1.634-0.953,3.269-1.907,4.903-2.86c1.495,0.389,1.749,1.359,3.269,1.839c-0.953,0.545-1.907,1.09-2.86,1.634v0.613
				c1.83-0.349,6.335-2.289,7.355-3.677c0.744-1.014-0.08-1.742,1.021-2.452c0.273-0.272,0.545-0.545,0.817-0.817
				c-0.803,3.312-1.958,6.74-5.516,6.538c0.068,0.886,0.136,1.771,0.205,2.655c-1.43,0.545-2.861,1.091-4.291,1.635
				c-0.799,1.343-0.981,2.997-1.022,4.699c-1.158,0.619-6.604,4.813-7.15,5.721c-0.068,0.817-0.136,1.634-0.204,2.451
				c-0.92,2.729-4.241,4.518-6.742,5.721c0.021,2.289,0.137,2.843-0.204,4.291c1.508-0.438,1.358-1.756,1.226-3.679
				c1.634-1.021,3.269-2.042,4.903-3.063c-0.068,1.021-0.136,2.043-0.205,3.063h0.613c0.477-2.52,0.954-5.039,1.43-7.559
				c0.675-1.427,2.4-2.067,3.678-2.86c-0.068,0.953-0.136,1.907-0.205,2.86h0.205c0.798-0.96,1.005-4.287,0.817-4.903
				c2.111-1.294,4.222-2.588,6.333-3.882c0.068-0.137,0.136-0.272,0.205-0.409c-0.068-0.067-0.137-0.136-0.205-0.203
				c-1.089,0.681-2.179,1.362-3.269,2.042v-0.816c-0.068,0.34-0.137,0.681-0.205,1.021c-0.136,0.068-0.272,0.136-0.409,0.204
				c0.127-1.564,0.241-1.889,0.205-3.678c2.656-0.953,5.312-1.906,7.968-2.86c0.067-0.137,0.136-0.271,0.204-0.408
				c-0.136-0.136-0.272-0.272-0.409-0.409c-0.885,0.273-1.771,0.546-2.656,0.817c0.141-0.89,0.103-1.094-0.205-1.838
				c1.143-0.591,2.259-1.216,3.065-1.022c3.05-2.751,1.648-5.668,3.064-10.011c1.09-1.361,2.179-2.725,3.269-4.086v-0.204
				c-0.409,0.271-0.817,0.544-1.226,0.816c-0.068-0.204-0.136-0.408-0.204-0.612c1.049-1.835,3.721-3.865,5.721-4.699
				c0.272-0.341,0.544-0.682,0.817-1.021v-0.204c-0.75,0.34-1.499,0.682-2.247,1.021c0.749-1.695,2.24-2.077,2.86-3.882
				c1.776,0.842,2.245,1.881,4.731,2.218c-1.547-1.23-3.346-2.465-5.14-2.831C184.382,214.491,181.493,216.413,179.562,218.704z
				 M190.831,214.385c0.103,0.083,0.207,0.165,0.308,0.247c-0.045-0.073-0.09-0.146-0.136-0.218
				C190.939,214.406,190.892,214.394,190.831,214.385z M93.057,256.069c0.071-0.214,0.138-0.43,0.207-0.644
				c-0.041,0.018-0.082,0.036-0.123,0.054C93.113,255.676,93.084,255.872,93.057,256.069z M192.842,216.049
				c-0.507-0.422-1.084-0.915-1.703-1.417c0.295,0.472,0.591,0.944,0.886,1.417v0.613c-2.586,0.314-3.407,1.309-4.086,3.473
				c1.083-0.751,1.517-1.468,1.839-2.451c3.146-0.551,3.63-0.385,5.312-2.044c0.698,0.698,1.396,1.397,2.095,2.096
				c-0.722-1.163-1.358-2.226-1.482-2.504C194.749,215.504,193.795,215.776,192.842,216.049z M80.571,264.697
				c0.218-0.181,0.367-0.322,0.527-0.44c-0.142,0.003-0.274,0.009-0.42,0.009C80.652,264.405,80.612,264.551,80.571,264.697z
				 M197.185,217.735c0.125,0.201,0.251,0.403,0.379,0.607c-0.008-0.084-0.015-0.167-0.023-0.251
				C197.422,217.973,197.303,217.854,197.185,217.735z M88.646,260.587c-2.552,0.637-6.896,0.146-7.764-1.635
				c-2.309,0.074-4.605,1.563-5.516,3.065c-1.874-0.08-2.597-1.302-3.882-1.226c-0.885,0.477-1.771,0.953-2.656,1.43
				c-1.686,0.575-2.846,0.248-4.086,0.409c-1.868-2.162-3.687-5.704-6.947-6.334c-1.468,2.03-7.655,3.785-10.42,3.269
				c-2.903,1.14-4.116,4.105-5.924,6.333c-2.464,0.138-4.442,0.083-5.108-1.633c-2.299,1.031-2.215,2.203-3.473,3.881
				c-0.771,1.027-3.236,2.143-4.291,2.86c-0.812-0.415-1.515-1.798-1.839-2.655c-1.154-0.766-2.542-0.942-4.29-1.431
				c-0.75,0.817-1.499,1.634-2.247,2.452c-0.886-0.068-1.771-0.137-2.657-0.205c-1.157,1.226-2.315,2.451-3.473,3.678
				c-2.491,1.195-3.028,1.144-3.677,4.086h0.204c0.681-1.021,1.362-2.043,2.043-3.064c2.33-0.922,3.862-1.298,4.7-4.29
				c0.817,0.068,1.634,0.136,2.451,0.204v0.204c-1.168,0.478-1.269,1.24-2.043,2.043v0.204c0.878-0.259,3.598-2.893,4.086-4.29
				c1.106-0.454,2.396,0.049,4.086,0.204c0.613,0.953,1.226,1.907,1.839,2.86v0.205c-0.904,0.542-1.14,1.032-2.452,1.226v0.612
				c2.103-0.6,6.615-2.844,7.56-4.086c0.613-0.885,1.226-1.771,1.839-2.656c2.158-1.082,5.066,1.194,7.355-0.204
				c1.606-0.982,1.037-2.037,2.043-3.678c1.964-3.203,6.981-1.724,11.237-1.634c0.068-0.272,0.136-0.546,0.205-0.817
				c-1.316,0.158-1.388,0.241-2.86,0.204c0.448-1.435,4.571-2.92,5.924-3.269c1.303,0.793,1.199,1.816,1.839,3.269
				c0.068,0.136,0.136,0.272,0.204,0.408v-1.43c2.106,0.825,2.635,2.497,3.882,4.086c3.327,0.069,4.868,0.018,6.946-1.838
				c0.953,0.407,1.907,0.816,2.86,1.226v0.204c-0.341,0.204-0.681,0.408-1.021,0.612c-0.136,0.272-0.272,0.545-0.409,0.818
				c2.2-1.196,4.768-2.826,6.333-4.7c2.179,0.613,4.359,1.227,6.538,1.84c-0.833,0.686-1.128,0.5-1.226,2.042
				c-2.475,0.331-3.029,0.489-3.462,0.81c1.359-0.026,2.531-0.135,3.257,0.212c2.309-2.411,4.152-3.214,8.581-3.269l0.204-0.408
				c-1.293,0.136-2.588,0.272-3.882,0.408c0.585-2.479,3.326-3.91,5.721-4.495c0.068-0.136,0.136-0.272,0.205-0.408
				c-0.75,0.204-1.499,0.408-2.248,0.613c0.04-0.281,0.08-0.561,0.12-0.841c-0.155,0.466-0.346,0.91-0.733,1.25
				C90.769,258.684,89.636,258.561,88.646,260.587z M35.527,265.694c0.068-0.203,0.136-0.408,0.204-0.612
				C35.899,265.585,35.807,265.257,35.527,265.694z M293.564,216.049c0.477-0.885,0.954-1.771,1.43-2.656
				c0.325-0.195,0.616-0.34,0.882-0.452c-0.422,0.115-0.9,0.199-1.495,0.248C294.109,214.142,293.837,215.096,293.564,216.049z
				 M107.646,273.867c-1.768,0.819-2.347,2.591-4.495,3.269v0.409c2.376-0.548,2.512-1.894,4.086-2.86
				c0.828-0.508,1.9-0.072,2.656-0.205c2.445-0.428,5.386-3.414,8.172-4.29l0.409-0.612c-1.771,0.612-3.542,1.226-5.312,1.838
				c0.25-1.053-0.094-1.812-0.515-2.661c-0.005,0.789,0.028,1.729,0.106,2.865C111.123,272.981,109.886,272.83,107.646,273.867z
				 M75.775,265.491c-1.215,1.854-2.918,2.303-2.656,5.107c-0.75,0.613-1.499,1.226-2.248,1.839
				c-2.215,0.782-3.033-1.321-4.291,0.816c-2.174,0.115-3.979-1.262-6.129-1.635c-0.817,0.75-1.635,1.499-2.452,2.248
				c-2.824,1.007-5.713-1.008-6.946,1.839c-0.881,0.432-1.67,0.353-2.86,0.204c-0.068,0.272-0.136,0.545-0.204,0.817l-0.817,0.817
				h0.817c0.204-0.409,0.409-0.817,0.613-1.226c2.201,0.65,6.12-0.667,6.742,1.226c2.369-0.746,3.076-3.58,4.699-5.107
				c2.27-0.467,4.94,0.849,5.925,1.634l-0.409,0.817c-0.204,0.272-0.409,0.545-0.613,0.817c1.088-0.588,1.417-2.196,2.452-2.656
				h3.677c4.236-1.003,5.225-2.384,10.011-2.247v-0.409c-3.666-0.746-4.625,0.145-7.56,1.226h-0.613
				c0.651-1.008,0.854-1.53,0.613-3.064c1.821-0.546,1.443-1.081,2.656-2.656c0.886,0.341,1.771,0.682,2.656,1.022l-0.613,1.226
				c0.981-0.559,1.967-2.107,2.345-3.449c-0.296,0.245-0.726,0.562-1.528,0.997C77.943,266.131,77.043,265.614,75.775,265.491z
				 M54.731,276.523c-1.329-0.29-1.394-0.752-3.065-0.817v-0.205c0.068-0.203,0.136-0.408,0.205-0.612
				c1.083-0.414,2.617,0.16,3.473-0.613c0.749,0.068,1.498,0.137,2.248,0.204C56.879,275.596,55.877,275.847,54.731,276.523z
				 M341.592,155.618c-0.873,0.555-1.688,1.158-2.425,1.828C340.019,156.792,340.865,156.172,341.592,155.618z M320.328,183.973
				c-0.728,0.438-0.784,0.705-0.817,1.839c-1.876,0.396-3.216,0.929-4.305,1.592c1.611-0.167,2.827-0.23,4.101-0.979
				c0.068,0.068,0.137,0.136,0.204,0.204c-0.272,0.545-0.545,1.09-0.816,1.635v0.205c0.408-0.137,0.816-0.273,1.226-0.409
				c0.068-1.157,0.137-2.315,0.204-3.473c1.771-0.749,3.541-1.498,5.312-2.247c-0.085-1.711-0.199-2.237,1.226-2.248
				c-0.235-0.471-0.472-0.942-0.708-1.414c-0.77,1.267-1.231,2.38-1.131,3.252C323.324,182.611,321.826,183.292,320.328,183.973z
				 M390.813,158.026c-0.496-0.377-0.396-0.209-1.43-0.205c-0.409,0.885-0.817,1.771-1.226,2.656
				c-1.984-0.003-3.116,0.482-3.882,2.248v0.204c2.302-0.948,3.005-1.855,5.72-1.634c0.137-0.136,0.272-0.272,0.409-0.409
				c-0.612-0.068-1.226-0.136-1.839-0.204c0.272-0.681,0.545-1.362,0.817-2.043c1.462-0.627,3.583,1.062,4.495,2.247
				c2.018,2.042,2.39,9.862,1.838,13.484c0.545,0.544,1.091,1.09,1.635,1.634h0.204c-1.579-3.653-0.931-8.647-2.451-12.667
				c0.565,0.294,1.114,0.653,1.655,1.047C394.646,162.109,394.205,159.46,390.813,158.026z M112.648,268.754
				c0.001-0.099,0.001-0.198,0.003-0.292c-0.034,0.031-0.067,0.062-0.101,0.093C112.583,268.622,112.615,268.688,112.648,268.754z
				 M396.76,164.385c0.186,0.199,0.378,0.396,0.592,0.588c1.021,0.922,2.042,1.845,3.062,2.768
				C399.24,166.47,398.03,165.309,396.76,164.385z M333.272,168.421c-0.205,0.243-0.371,0.512-0.497,0.81
				C332.948,168.96,333.114,168.69,333.272,168.421z M337.898,170.693c-0.067-0.136-0.136-0.272-0.204-0.409
				c0.068-0.136,0.137-0.272,0.204-0.408c-1.758,0.335-3.098,0.846-5.107,1.43h-0.204c-0.144-0.821-0.054-1.499,0.188-2.075
				c-2.001,3.146-4.831,6.355-6.525,8.975C331.172,175.189,330.345,172.081,337.898,170.693z M410.979,154.906
				c0.131,0.118,0.261,0.236,0.386,0.355c-0.04-0.1-0.08-0.2-0.12-0.3C411.149,154.945,411.065,154.924,410.979,154.906z
				 M419.621,155.983c0.085-0.076,0.17-0.151,0.255-0.227c-0.732,0.205-1.503,0.325-2.378,0.508
				C418.114,156.299,418.804,156.276,419.621,155.983z M434.739,130.854c-0.049-0.03-0.099-0.061-0.147-0.091
				c0.092,0.11,0.184,0.223,0.273,0.337C434.821,131.018,434.786,130.937,434.739,130.854z M565.087,199.5v-0.817
				c2.028,0.137,2.772-1.599,5.72-1.634c1.156,0.958,1.513,1.773,3.678,1.839c0.477,2.179,0.953,4.358,1.43,6.538h0.205
				c-0.068-0.749-0.137-1.498-0.205-2.248c0.068-0.203,0.137-0.407,0.205-0.612c0.544,0.068,1.089,0.137,1.635,0.205
				c0.322,0.663,0.73,1.416,1.185,2.227c-0.123-0.675-0.245-1.349-0.368-2.022c-0.737-1.137-1.885-0.232-2.656-1.022
				c-0.408-1.089-0.816-2.179-1.226-3.269c-0.879-1.02-3.896-2.085-5.312-2.451c-1.398,0.721-2.822,1.726-4.699,1.838
				c-0.363-1.181-0.849-2.229-1.404-3.2c0.78,1.837,1.76,5.247,2.229,7.089C565.446,201.088,565.391,200.222,565.087,199.5z
				 M470.369,152.07c0.069,0.032,0.146,0.066,0.219,0.1c-0.031-0.022-0.065-0.051-0.095-0.069
				C470.461,152.082,470.408,152.083,470.369,152.07z M478.643,155.435c0.12,0.038,0.236,0.069,0.354,0.104
				c-0.042-0.057-0.085-0.113-0.127-0.169C478.794,155.392,478.719,155.414,478.643,155.435z M563.043,201.747
				c-0.137,0.204-0.272,0.409-0.408,0.613c1.906,1.635,3.813,3.27,5.72,4.903v3.474c0.421,1.384,2.919,3.233,4.291,3.677
				c-1.158-1.157-2.315-2.315-3.473-3.473c-0.566-1.111,0.364-1.881,0.204-2.656c-0.362-1.745-2.919-2.485-3.474-3.882
				c-0.167-0.419-0.252-0.882-0.309-1.36c-0.169,0.113-0.339,0.226-0.508,0.339C564.405,202.837,563.725,202.292,563.043,201.747z
				 M475.805,157.617c-1.089-1.294-2.18-2.588-3.269-3.881c1.794,0.246,2.69,1.007,4.086,1.634
				c-0.205,0.272-0.408,0.545-0.612,0.817c0.877-0.25,1.755-0.501,2.633-0.752c-2.699-0.833-5.941-2.306-8.055-3.265
				C471.639,152.924,474.014,156.402,475.805,157.617z M462.321,155.37c-2.659-1.208-3.098-2.59-6.538-3.474
				c0.346,0.435,5.308,3.442,5.925,3.678v0.205c-0.817,0.477-1.635,0.954-2.452,1.43c-0.067,0.136-0.136,0.272-0.204,0.408
				c0.137,0.136,0.272,0.273,0.409,0.409c1.202-0.659,9.18-6.528,10.908-5.956c-0.521-0.236-0.971-0.439-1.306-0.582
				C466.9,152.464,463.999,153.796,462.321,155.37z M583.475,175.188c-1.362-1.293-2.726-2.588-4.087-3.882
				c-2-3.78-2.155-5.196-6.129-6.946c-0.907-2.073-0.304-4.003-1.431-5.925c2.53-0.745,2.682-2.833,5.721-3.064
				c2.919,2.912,4.742,7.004,7.151,10.419c0.067,0.136,0.136,0.272,0.204,0.409c0.724-2.04-2.262-4.764-3.064-6.538
				c0.885-0.272,1.771-0.544,2.655-0.817c0.205,0.477,0.409,0.954,0.612,1.43c-0.271-0.068-0.544-0.137-0.816-0.204
				c1.064,1.798,3.159,3.731,5.312,4.494c-1.565-1.906-3.133-3.813-4.698-5.72c-0.877-0.999-1.94-0.304-2.86,0.204
				c-1.923-1.417-2.8-3.512-4.495-5.107c-0.341-0.068-0.682-0.136-1.021-0.204c-1.498,1.361-2.997,2.724-4.494,4.086h-0.818
				c-0.546-2.478-2.82-2.988-4.494-4.291c-1.834,0.251-2.883,1.776-3.882,3.269c-3.333-0.355-4.879-3.997-5.517-6.946
				c-2.098-0.542-3.841,0.145-5.107-1.021c-0.876,0.26-0.967,0.41-1.43,1.021c-0.545-0.136-1.09-0.272-1.635-0.408
				c-0.492-0.875-0.416-0.361-0.204-1.226c-1.235,0.136-4.106,0.864-5.925,1.226v-0.817c-1.381,1.217-1.782,2.436-3.678,3.269
				c-0.545-0.272-1.09-0.544-1.635-0.816c0.068,1.558-0.596,1.609-1.021,3.064c-2.67,0.584-3.895,0.837-5.516,2.043
				c-2.355-0.573-2.869-2.245-4.903-3.064c-0.296,0.253-1.307,1.133-2.383,2.063c0.794-0.348,1.589-0.695,2.383-1.042
				c0.136-0.136,0.271-0.272,0.408-0.408c2.824,2.505,4.455,5.201,10.011,5.107l0.205-0.409c-1.635-0.408-3.27-0.817-4.903-1.226
				c-0.068-0.205-0.137-0.409-0.204-0.613c0.829-0.757,1.732-1.011,2.86-0.409c0.963-1.213,2.729-1.672,3.473-3.881h1.634v0.613
				c-0.477,0.749-0.953,1.498-1.43,2.248v0.204h0.204c1.413-1.545,2.541-4.394,4.291-5.517c1.906-0.272,3.813-0.544,5.721-0.817
				c0.408,0.409,0.816,0.817,1.226,1.227c-1.435,0.958-3.586,1.694-4.904,2.86h-0.407c1.973,0.717,6.21-2.119,6.946-3.473
				c1.756-0.096,3.335,0.542,5.516,0.408c0.73,3.393,2.256,4.946,4.291,6.946c-2.005,2.815-3.279,3.183-6.539,4.903
				c-0.68,0.75-1.361,1.499-2.042,2.248c-1.226,0.408-2.452,0.817-3.678,1.226c-2.05,1.379-1.802,4.591-4.494,5.721
				c0.402,0.326,0.278,0.277,1.021,0.409c2.795-1.674,2.984-4.684,5.926-6.129h1.226l-0.817,1.635
				c-0.137,0.204-0.273,0.408-0.408,0.613c1.63-0.733,3.049-3.021,3.473-4.903c0.748-0.136,1.498-0.272,2.248-0.409
				c-0.068,0.477-0.137,0.954-0.205,1.43h0.205c1.775-1.455,2.357-4.281,4.086-5.72c0.816-0.205,1.634-0.409,2.451-0.613
				c0.885-1.021,1.771-2.043,2.656-3.064c4.062,1.983,5.889,4.28,5.721,9.602c-2.025-0.826-5.708-1.083-7.151-2.451
				c-1.74,0.231-1.953,0.92-3.269,1.43c0.963,0.639,1.331-0.052,2.451-0.409c1.09,0.681,2.18,1.362,3.27,2.043h0.817
				c-0.204-0.204-0.409-0.408-0.613-0.613c-0.068-0.136-0.137-0.272-0.204-0.408c0.067-0.068,0.136-0.136,0.204-0.205
				c7.454,0.627,10.799,5.778,12.054,12.871c0.204,0.136,0.409,0.272,0.613,0.409c0.398-0.794-0.745-2.39-0.613-4.086
				c2.03,1.629,3.399,2.682,5.925,3.473c0.478,1.771,0.953,3.542,1.431,5.312c0.272,0.204,0.545,0.409,0.817,0.613h0.203
				c-0.748-2.315-1.498-4.631-2.247-6.946C585.271,174.78,584.748,175.179,583.475,175.188z M576.731,154.349h0.204
				c0.068,0.136,0.137,0.272,0.205,0.408c-0.273-0.068-0.545-0.136-0.817-0.204C576.46,154.485,576.596,154.417,576.731,154.349z
				 M520.548,157.822c-0.602-1.041-0.606-3.566-1.43-4.495c-0.161-0.32-4.476-4.242-4.904-4.494
				c-0.34,0.204-0.681,0.408-1.021,0.613c-0.341-0.817-0.681-1.635-1.021-2.452c-1.044-0.47-1.338-0.178-2.452,0.205v-1.021
				c-0.341-0.136-0.682-0.272-1.021-0.409c-4.263,0.953-2.131,1.396-5.517-1.43h-0.612c-1.373,1.908-3.002,4.204-3.679,6.743
				c-1.688-0.617-1.975-1.811-4.29-2.044c-1.017,0.866-2.952,1.952-3.473,3.27c-1.468-0.98-1.956-1.879-3.677-2.86h-1.431
				c-0.546,2.139-1.717,3.607-1.839,5.721c-0.545,0.272-1.091,0.544-1.635,0.817c-0.787,0.208-2.072-0.012-3.55-0.444
				c0.365,0.488,0.731,0.977,1.099,1.465v0.205c-0.613-0.205-1.226-0.409-1.839-0.613v0.204c1.563,1.078,5.253,2.902,7.354,2.452
				c0.272,0.068,0.545,0.136,0.817,0.204c-0.186,1.309-0.401,2.057-0.205,3.473c-0.748-0.477-1.498-0.953-2.246-1.43
				c0.714,2.226,4.568,3.787,6.537,4.903c1.439,0.816,3.832,4.943,4.495,6.538l0.408,0.204c-0.204-0.613-0.408-1.226-0.613-1.839
				h0.613c-0.886-0.885-1.771-1.771-2.655-2.656c0.068-0.136,0.136-0.272,0.204-0.409c0.953,0.068,1.906,0.136,2.86,0.205
				c0.008,0.003,4.086,3.064,4.086,3.064c0.479,1.912-0.184,6.333-0.204,9.398l0.612,0.409v-4.495
				c2.008,1.23,2.565,3.011,2.656,6.129c0.204-0.136,0.408-0.272,0.613-0.409c0.136,1.088,0.342,2.479,1.021,3.065
				c0.137,0.136,0.273,0.272,0.409,0.408c-0.341-1.361-0.682-2.724-1.021-4.086v-0.817c1.37,0.452,1.734,1.25,3.473,1.43
				c1.905,3.325,2.846,8.789,3.27,13.28h0.204c-0.067-0.953-0.136-1.907-0.204-2.86c3.416,2.066,5.051,4.448,6.129,8.989
				c0.204,0.137,0.408,0.272,0.613,0.409h0.204c-0.341-0.953-0.682-1.907-1.022-2.86c1.022,0.477,2.044,0.954,3.065,1.43
				c-0.702-0.841-1.932-0.868-2.656-1.635c-1.083-1.147-1.315-3-2.451-4.086c-1.119-1.069-2.842-1.294-3.678-2.656
				c-1.729-2.817-0.62-7.284-2.86-10.011c-1.566-0.749-3.133-1.499-4.699-2.247l-2.86-4.291c-0.789-2.008,0.725-3.573-0.612-5.107
				c-0.966-1.513-4.477-3.398-7.969-3.269c-0.269-1.298-1.005-1.737-1.838-1.839c-0.628-0.819-0.455-2.185-0.409-3.473
				c0.953-0.272,1.907-0.545,2.86-0.817v1.226c0.954-0.848,1-2.303,1.839-3.269c0,0,0.001-0.001,0.002-0.002
				c-1.456,1.262-3.58,2.215-5.109,2.658v3.064c-2.166-1.566-2.276-2.559-2.451-5.925c-1.907-0.477-3.814-0.954-5.721-1.43
				c-0.068-0.477-0.137-0.954-0.205-1.43c1.924,0.303,3.176-0.18,4.086-1.43c0.137-0.068,0.272-0.136,0.409-0.205h-1.021
				c0.453-1.261,1.5-3.513,2.247-4.903c2.199,0.67,3.808,2.486,4.904,4.291c-0.818-0.204-1.635-0.408-2.453-0.613
				c1.187,1.083,3.94,1.683,6.13,1.635c0.272,0.544,0.545,1.089,0.817,1.634c-0.061,0.698-0.416,1.357-0.941,1.964
				c1.415-1.292,3.486-2.629,4.21-4.211v-3.677c1.09-2.043,2.18-4.086,3.27-6.129h0.203c0.546,0.885,1.091,1.771,1.635,2.656
				c0.603-0.075,0.649-0.229,1.839-0.205c0.068,0.068,0.137,0.136,0.205,0.205c-1.311,1.765-2.176,3.924-4.495,5.312
				c-0.298,0.241-0.352,0.799-0.612,1.43v1.022c1.495-1.655,1.7-2.999,4.494-3.473c-0.282-0.342-0.466-0.361-0.817-0.613
				c0.794-2.099,1.976-3.03,3.064-4.7h0.408c0.75,0.613,1.499,1.226,2.248,1.839c-0.068-0.273-0.136-0.545-0.204-0.817
				c0.272-0.068,0.545-0.136,0.816-0.205h0.205c1.585,2.76,1.208,5.242,3.678,7.151c-0.087,1.839-0.265,1.707,0.203,3.064
				l1.022,0.409c-0.72-1.361-0.995-1.788-0.409-3.065c-1.205-1.246-2.637-2.499-2.86-4.699c0.205-0.068,0.409-0.136,0.613-0.205
				c0.136-0.136,0.272-0.272,0.408-0.408c1.601,1.549,2.373,2.948,4.495,4.086c0.211,1.483,0.524,3.005,0.816,4.903
				c1.899,0.507,4.545-0.277,6.539,1.021c0.34,0.681,0.681,1.362,1.021,2.043c0.474,0.541,3.354,1.339,5.106,1.634
				c0.883,2.652,1.295,5.5,1.022,8.172c-1.396,0.498-2.804-1.377-5.516-1.43c-0.068,0.272-0.137,0.544-0.205,0.817
				c3.939-1.357,8.26,6.156,13.484,6.538c0.571,2.417,0.157,5.667,1.226,7.354c0.515,0.876,1.479,1.057,2.451,1.43
				c0.137,0.749,0.272,1.499,0.409,2.248h0.408c-0.525-3.368-2.335-3.603-3.269-6.946v-1.226c1.362,0.681,2.724,1.362,4.086,2.043
				c0.677-0.076,2.088-1.526,3.064-1.226c0.593,0.182,4.98,7.577,5.312,8.99c0.137,0.068,0.273,0.136,0.409,0.204
				c-0.424-2.918-1.511-3.916-2.86-5.721c0.953-0.204,1.907-0.409,2.86-0.613c1.566,2.724,3.133,5.448,4.699,8.172
				c0.959,0.639,1.919,1.279,2.878,1.918c-2.177-3.324-5.113-5.843-6.76-9.887c-1.148-0.636-2.169-0.42-3.882-0.204
				c-0.817-1.09-1.635-2.179-2.451-3.269c-4.926,0.473-5.754,0.253-8.173-3.269c-0.657-0.62-1.507-0.175-2.451-0.613
				c-1.839-1.293-3.678-2.588-5.517-3.882c0.239-3.599-0.142-6.607-0.408-9.602c-1.282-0.471-4.202-1.137-5.312-2.043
				c-2.097-1.71-2.006-3.381-5.721-3.269c0.42-0.614,0.728-1.002,0.925-1.789c-1.092,0.938-2.046,1.745-2.151,1.789H520.548z
				 M496.439,156.596v-1.022c-1.477-1.057-3.565-1.349-5.107-2.248c0.136-0.477,0.271-0.953,0.408-1.43
				c0.638-0.314,1.321-0.437,2.452-0.408c-0.204-0.136-0.408-0.272-0.613-0.408c0.341-0.477,0.682-0.954,1.021-1.43
				c2.395,0.385,2.794,1.693,4.29,2.86C498.812,154.57,497.648,155.693,496.439,156.596z M522.903,156.033
				c0.321-0.277,0.654-0.563,0.982-0.847c-0.296,0.129-0.591,0.258-0.887,0.388C522.971,155.744,522.938,155.893,522.903,156.033z
				 M583.338,212.981c-0.372-0.786-0.804-1.613-1.26-2.453c0.124,0.41,0.249,0.819,0.374,1.229
				C582.727,212.209,583.03,212.6,583.338,212.981z M585.107,216.457h0.205c-0.405-1.615-1.201-2.514-1.975-3.476
				c0.537,1.136,0.953,2.187,1.157,3.067C584.7,216.185,584.904,216.321,585.107,216.457z M581.021,207.06
				c-0.622-0.561-1.244-1.12-1.865-1.68c0.91,1.607,1.972,3.403,2.922,5.148C581.726,209.372,581.374,208.215,581.021,207.06z
				 M562.839,193.984c-0.062-0.042-0.124-0.083-0.187-0.125c0.215,0.328,0.423,0.664,0.621,1.011
				C563.119,194.507,562.972,194.199,562.839,193.984z M579.156,205.38c-0.073-0.128-0.147-0.259-0.218-0.384
				c0.014,0.074,0.027,0.149,0.041,0.225C579.038,205.273,579.097,205.326,579.156,205.38z M565.699,202.974v-0.204
				c-0.047-0.209-0.114-0.486-0.197-0.811c0.023,0.364,0.051,0.729,0.093,1.084C565.63,203.021,565.664,202.997,565.699,202.974z
				 M398.896,155.379c0.121,0.504,0.229,1.036,0.312,1.621c0-0.462-0.058-0.937-0.223-1.426
				C398.968,155.519,398.931,155.448,398.896,155.379z M494.398,159.454c0.254-0.221,0.484-0.452,0.691-0.69
				C494.836,158.995,494.598,159.225,494.398,159.454z M401.029,204.607c-0.068-0.271-0.136-0.544-0.204-0.817
				c-1.738,2.281-3.555-0.994-5.108-1.226c-1.168-0.175-2.046,0.479-3.269,0.205c-0.049-0.001-7.404-6.895-7.764-7.56
				c-0.477-1.771-0.953-3.542-1.431-5.312c-1.312-0.788-2.662-0.98-4.29-1.635c-2.715-1.557-1.515-5.598-4.494-6.946
				c-2.042,1.411-3.24,1.55-5.517,0.817c-0.169,0.707-0.583,0.925-1.634,1.226v0.205c0.067,0.068,0.136,0.136,0.204,0.204
				c2.07-0.924,1.705,0.303,3.473,0c1.226-0.613,2.452-1.226,3.677-1.839c2.536,2.519,2.232,7.599,5.517,9.398
				c-0.408-0.75-0.816-1.499-1.226-2.248v-0.205c1.157,0.272,2.316,0.545,3.474,0.817c1.362,3.949,2.724,7.9,4.086,11.851
				c0.272,0.203,0.545,0.407,0.816,0.612c-0.68-1.839-1.361-3.678-2.042-5.517c2.274,1.312,2.93,3.882,5.312,4.904
				c0.204,0.339,0.409,0.68,0.613,1.021c-1.207-0.09-1.68,0.015-2.248-1.021c-0.204,0.066-0.408,0.136-0.612,0.203
				c0.136,0.272,0.271,0.545,0.408,0.817c2.156,0.593,4.786,1.314,7.15,0.409c1.676,0.963,1.78,3.177,3.27,4.29
				c0.204,0.204,0.409,0.408,0.612,0.613h0.205c-0.613-1.021-1.227-2.044-1.839-3.065c0.897,0.145,1.275,0.352,1.839-0.204
				c1.388,0.537,2.292,1.343,2.859,2.656c0.273,0.204,0.546,0.408,0.818,0.613C403.58,206.922,402.246,205.137,401.029,204.607z
				 M258.557,214.166c0.878-0.435,1.868-0.778,2.83-1.105c-0.715,0.18-1.431,0.358-2.146,0.537
				C259.027,213.718,258.793,213.917,258.557,214.166z M242.08,206.037c-0.125,0.178-0.228,0.363-0.319,0.554
				c0.236-0.258,0.458-0.518,0.674-0.775C242.316,205.89,242.198,205.963,242.08,206.037z"/>
		</g>
	</g>
</g>
</svg>
