<?xml version="1.0" encoding="utf-8"?>
<!-- Generator: Adobe Illustrator 16.0.0, SVG Export Plug-In . SVG Version: 6.00 Build 0)  -->
<!DOCTYPE svg PUBLIC "-//W3C//DTD SVG 1.1//EN" "http://www.w3.org/Graphics/SVG/1.1/DTD/svg11.dtd">
<svg version="1.1" id="Layer_1" xmlns="http://www.w3.org/2000/svg" xmlns:xlink="http://www.w3.org/1999/xlink" x="0px" y="0px"
	 width="600px" height="400px" viewBox="0 0 600 400" enable-background="new 0 0 600 400" xml:space="preserve">
<path d="M362.418,243.895c-0.074-0.374,0.226-0.225,0-0.6c-0.225-0.375-0.299-0.451-0.299-0.451s-0.226-0.147-0.15-0.448
	s0.375,0.149,0.3-0.301c-0.075-0.449,0-0.599,0-0.599s-0.3,0.074-0.3-0.301s0.15-0.6,0.15-0.6s0.299-0.45,0.149-0.75
	c-0.149-0.301-0.149-0.301-0.149-0.301s-0.15-4.723-0.45-5.548s-0.226-1.124-0.3-1.499c-0.074-0.376,0-0.45,0-0.45l-0.749-0.601
	c0,0-0.151-0.225-0.302-0.599c-0.149-0.375-0.299-0.45-0.299-0.45s-5.549-2.549-8.698-3.6c-0.149-0.75-0.149-0.824,0.149-1.35
	c0.301-0.524,0.976-1.35,0.751-2.248c-0.226-0.901-0.675-3.974-1.5-4.949c-0.824-0.976-2.849-2.925-4.199-3.15
	c-1.349-0.224-3.299,0.376-3.898,0.451c-0.601,0.074-1.8,0.824-2.249,0.899s-0.449,0.9-1.05,0.749
	c-0.601-0.149-1.05,0.301-1.05,0.301s-0.601,1.051-0.75,1.35c-0.15,0.3,0,0.45,0,0.45s-0.449,0.599-0.449,1.05
	c0,0.45-0.151,1.05-0.151,1.05l-0.45,0.898c0,0-1.423,1.426-1.649,2.25c-0.674,0.15-10.721,1.649-12.745,3.148
	c-0.752,0.526-0.676,2.251-0.9,2.55c-0.225,0.301-2.025,4.273-2.55,6.598c-0.149,0.45-0.674,0.45-0.749,0.899
	c-0.076,0.452,0.375,1.276,0.299,1.5c-0.074,0.226-0.149,0.9-0.149,0.9l-0.149,0.45c0,0.301-0.3,0.449-0.601,0.6
	c-0.299,0.149-0.374,0.225-0.299,0.45c0.074,0.226,0.224,2.849,0,3.298c-0.226,0.45-0.376,1.951-0.451,2.4
	c-0.073,0.449-0.225,1.424-0.149,1.8c0.076,0.374-0.525,1.799-0.449,2.248c0.075,0.451,0.599,1.127,0.149,1.351
	c-0.449,0.225-0.449,1.199-0.449,1.499c0,0.301,0.224,1.426,0.599,1.5c0.286,0.058,1.049,1.2,1.497,1.775
	c-0.009,0.054-0.017,0.105-0.025,0.162c-0.135,0.808-0.135,1.347-0.271,2.154c-0.134,0.809,0.271,2.29,0.539,3.503
	c0.19,0.851-0.021,1.896-0.255,2.727c-0.044,0.011-0.087,0.02-0.135,0.026c-0.525,0.075-0.45,3.749-0.45,3.749l0.141,0.035
	c0.011,0.58,0.026,1.132,0.026,1.543c0,1.213,0.808,4.311,1.078,5.118c0.269,0.809,0.133,1.482,0.269,2.29
	c0.135,0.808,0.27,1.481,0.27,1.481s0,1.481,0,2.021c0,0.538,0,1.076,0.135,1.751c0.135,0.673,1.076,1.346,1.617,2.423
	c0.537,1.079-0.405,4.311-0.405,4.311s-0.539,0.136-1.077,0.404c-0.539,0.27-0.404,0.807-0.404,0.807s-0.135,0.54-0.135,1.077
	c0,0.54-0.269,0.675-0.269,1.214s-0.405,1.077-0.405,1.077h-0.941l-1.078,0.269l-1.078,1.213l0.135,0.942l0.405,1.078l1.347,1.48
	l1.077,1.078l1.077,0.538l0.673,0.675l1.481,0.807c0,0,0.334,0.104,0.779,0.239l0.097,11.849l2.29-0.137l0.139-11.229
	c0.724-0.308,1.679-1.26,1.679-1.26l0.134-0.81c0,0,0-0.807-0.134-1.347c-0.052-0.211-0.084-0.378-0.104-0.506h25.156
	c-0.003,0.147-0.003,0.237-0.003,0.237l0.405,1.615l0.269,1.214l0.909,0.193l0.101,12.432l2.829,0.134v-11.867l0.202,0.051
	l1.212,0.135l1.078-0.54l0.539-0.537l0.27-0.809c0,0,0.808-0.673,1.347-0.673c0.538,0,2.021-1.212,2.021-1.212l0.134-1.887
	l-0.404-1.481c0,0-1.076-0.539-1.616-0.539c-0.539,0-0.942-0.673-0.942-0.673l-0.27-1.481l-0.404-0.809c0,0-0.269-1.481-0.539-2.154
	c-0.269-0.673-0.941-0.673-0.941-0.673l-0.271-1.214c0,0,0.405-1.751,0.54-2.289c0.134-0.538,0.942-2.021,0.942-2.021
	s0.538-0.942,0.538-1.885c0-0.943,0.808-7.812,0.943-8.755c0.08-0.554,0.623-3.247,1.113-5.511c0.323-1.232,0.577-2.304,0.692-2.988
	c0.032-0.116,0.06-0.205,0.079-0.255c0.27-0.674,0.27-3.368,0.405-4.176c0.134-0.808-0.81-3.501-1.214-4.579
	c-0.201-0.534-0.633-0.837-1.017-1.006c0.569-1.263,1.13-2.629,1.317-3.526c0.375-1.8,0.824-6.523,0.75-7.647
	C362.044,243.971,362.493,244.27,362.418,243.895z M351.896,288.379l-25.862-0.12l-0.115-0.815v-1.078l0.403-1.615l0.304-2.026
	l23.417,0.339l0.927,1.283l0.673,1.212c0,0,0.134,1.481,0.134,2.154C351.775,288.244,351.86,288.355,351.896,288.379z
	 M352.181,291.35l-0.539,0.808c0,0-0.27,0.674-0.27,1.212c0,0.54,0.135,0.404,0.135,1.078c0,0.673,0.135,0.673,0.135,1.211
	c0,0.539,0,0.943-0.27,1.482c-0.088,0.178-0.148,0.606-0.188,1.1l-25.211-0.118l-0.055-0.442l-0.136-1.213l0.136-1.211
	c0,0,0.134-0.27,0.403-0.943c0.269-0.674,0.269-0.943,0.269-0.943l-0.941-1.481v-0.941l0.153-0.541h26.379
	C352.181,290.947,352.181,291.35,352.181,291.35z"/>
<path d="M282.083,195.665L282.083,195.665C282.083,195.665,281.535,195.979,282.083,195.665c0.548-0.313-0.157-0.626-0.313-1.252
	c-0.157-0.625,0-0.625,0.94-1.565c0.938-0.938,1.173-5.635,1.251-7.201c0.079-1.565-0.782-4.617-1.565-5.635
	c-0.782-1.018-2.973-2.974-3.756-2.818c-0.783,0.157-2.975-0.391-3.444-0.625c-0.469-0.235-1.957,0.156-3.13,0.938
	c-1.174,0.783-1.801,0.627-3.757,4.383c-1.956,3.756-1.722,5.792-1.565,6.262c0.157,0.469,0,0.626,0,0.626s-0.391,0.157-0.625,0.313
	c-0.235,0.157-0.235-0.078-0.94,0.626c-0.704,0.705,0,0.626,0,0.626v0.626c0,0-0.704-0.234-1.252-0.626
	c-0.547-0.391-0.86,0.548-0.939,0.94c-0.078,0.391,0.626,0.626,0.626,0.626s0.47,0.079,0.939,0.313
	c0.469,0.235,0.313,0.312,0.313,0.312s-0.313,0-0.313,0.313c0,0.313-0.157,0.313-0.313,0.627c-0.157,0.313,0.313,0.626,0.313,0.626
	h0.313l0.536-0.267c-0.026,0.04-0.022,0.117,0.09,0.267c0.234,0.312,0,0.391,0.312,0.312c0.314-0.078,0.939-0.312,1.565-0.312
	c0.626,0,0.158,0.078,0.313,0.312c0.157,0.235,0.079,0.783-1.878,2.192c-1.957,1.409-8.218,4.148-9.392,5.636
	c-1.175,1.487-2.191,4.617-3.757,11.584c-1.565,6.966-1.096,18.94-0.939,19.725c0.156,0.781,0.156,2.111,0.313,2.816
	c0.156,0.703,0.626,1.565,0.94,2.504c0.313,0.939,0.547,1.253,0.625,2.192c0.078,0.938,0.078,3.913,0.314,4.384
	c0.235,0.47,1.252,0,1.252,0s0.234,0.703,0.312,1.251c0.079,0.549-0.235,1.253-0.312,2.191c-0.057,0.676-0.03,1.594,0.104,2.465
	c-0.141,0.08-0.213,0.174-0.196,0.282c0.205,1.439,1.849,2.467,2.671,3.699c0.822,1.234-0.206,3.288,0,5.755
	c0.206,2.466-0.411,13.975-0.411,17.058c0,3.082-1.85,16.029-1.85,17.674c0,1.644,0,1.85,0.822,3.699s1.438,3.903,1.438,5.548
	c0,1.646,0.206,3.289,0.411,4.315c0.206,1.029-1.027,3.084-0.822,4.522c0.205,1.438,4.109,3.287,6.165,3.698
	c2.055,0.412,2.466-0.411,2.877-1.849c0.41-1.439-0.617-3.493-1.233-4.933c-0.617-1.439,0-4.315,0.205-5.755
	c0.206-1.438,0.822-3.698,0.822-4.726s-0.822-2.672-0.206-4.521c0.617-1.851,0.617-5.753,0-7.398
	c-0.616-1.645,0.206-5.344,0.412-7.604c0.206-2.261,2.466-8.221,3.904-12.331c1.439-4.11,2.079-9.828,3.083-8.221
	c2.055,3.288,0.821,12.536,1.027,13.975c0.205,1.438,1.232,2.467,0.41,3.905c-0.821,1.438-1.027,5.343-0.821,7.398
	c0.205,2.055,0.616,6.37,0.821,7.81c0.206,1.438-2.26,2.876-2.672,4.109c-0.41,1.234,2.056,3.083,2.056,3.083
	s0.206,1.644-0.205,2.466s-1.028,3.494-0.822,4.521c0.206,1.027,1.849,2.467,3.287,2.671c1.439,0.207,3.906,2.467,5.138,3.494
	c1.233,1.028,5.138-0.617,6.987-1.027c1.851-0.41,1.438-1.027,0.617-2.056c-0.822-1.027-3.905-3.698-3.905-3.698
	s-1.438-1.646-1.85-2.878c-0.41-1.232,0.206-1.85-0.41-2.671c-0.617-0.822-1.234-2.262-1.234-3.699c0-1.439,1.85-7.81,2.672-10.481
	c0.305-0.993,0.383-2.727,0.361-4.64c0.171-0.953,0.253-2.075,0.085-3.291c-0.234-2.122-0.378-3.847-0.449-5.316
	c-0.002-0.216-0.012-0.432-0.028-0.648c-0.171-4.771,0.469-6.803,1.211-11.553c0.892-4.468,1.285-10.105,1.285-10.105l-0.121-0.029
	c0.559-6.591,0.605-11.192,0.605-11.797c0-0.782-0.625-2.504-0.625-2.504s-0.471-0.626-0.94-1.253
	c-0.468-0.626,0.079-0.078,0.314-0.312c0.234-0.235,0.313-1.253,0.313-1.253s-0.392-1.486,0-1.879
	c0.392-0.391,0.704-1.251,0.626-1.879c-0.078-0.624,0.392-2.112,0.312-2.816c-0.077-0.704,0-1.253,0-1.565s-0.603-3.882-0.312-5.009
	s2.342-3.628,3.412-4.033c1.25-0.475,1.402-1.015,2.396-1.449s-10.228-18.959-10.228-18.959
	C282.672,196.661,282.083,195.665,282.083,195.665z"/>
<path d="M329.438,223.296c-0.346-0.485-2.451-0.59-4.07-1.037c-1.618-0.45-5.333,0.517-5.946,0.65
	c-0.611,0.133-1.017-0.26-2.102-0.825c-1.083-0.566-0.701-0.649-1.556-1.263c-0.854-0.616-0.805-0.388-1.49-0.96
	c-0.685-0.571-1.26-1.007-1.993-1.809c-0.735-0.802-1.032-0.994-1.651-1.26c-0.617-0.266-1.22-0.52-1.701-0.896
	c-0.481-0.375-1.037-1.457-4.124-4.229c-3.085-2.774-15.061-14.029-16.943-14.581c-1.882-0.554-6.188-1.94-6.238-2.169
	l11.116,20.943c0.05-0.003,0.103-0.007,0.161-0.006c1.044,0.013,2.693,1.337,2.913,1.609c0.22,0.273,0.934,0.829,1.499,1.589
	c0.565,0.758,1.569,0.775,3.229,1.775c1.658,1.001,8.262,4.568,9.203,4.844c0.94,0.276,2.084,0.248,2.669,0.36
	c0.586,0.114,1.263,0.286,2.035,0.52c0.771,0.232,0.925,0.199,1.662,0.28c0.738,0.08,1.16,0.547,1.73,0.585
	c0.569,0.035,1.473-0.961,1.941-1.384c0.469-0.422,1.273-0.036,2.447-0.531c1.174-0.496,1.304-1.004,2.315-1.144
	c1.01-0.141,3.838-0.033,4.482-0.013C329.67,224.366,329.783,223.78,329.438,223.296z"/>
<path fill="#B12334" stroke="#231F20" stroke-width="0.7503" stroke-miterlimit="10" d="M488,66.946
	c-0.252-0.755-0.083-1.592-0.336-2.346c-0.25-0.754-0.084-1.34-0.336-1.676c-0.25-0.335-0.25-1.005-0.668-1.34
	c-0.42-0.335-0.67-0.67-1.007-0.335c-0.334,0.335-0.502,0.251-1.004,1.006c-0.503,0.753-0.587,2.429-0.671,3.015
	c-0.083,0.586-0.251,1.089-0.334,1.676c-0.02,0.131-0.028,0.256-0.032,0.381l4.482,0C488.073,67.203,488.044,67.078,488,66.946z"/>
<path fill="#B12334" stroke="#231F20" stroke-width="0.7503" stroke-miterlimit="10" d="M546.636,63.93
	c-0.497-2.604-1.912-7.777-5.604-10.696c-1.295-1.025-2.868-1.775-4.783-2.036c-3.397-0.464-6.33,0.462-8.654,2.037
	c-2.72,1.842-4.605,4.571-5.418,7.01c-1.508,4.522-0.671,7.036-0.671,7.036l-0.106,0.043l25.351-0.002
	C546.855,66.401,546.89,65.262,546.636,63.93z"/>
<path fill="#B12334" stroke="#231F20" stroke-width="0.7503" stroke-miterlimit="10" d="M514.389,155.22
	c0.217,2.536,0.335,5.109,0.32,7.669l56.037-0.005c-1.12-2.239-2.308-4.82-3.434-7.664c-1.539-3.885-2.958-8.254-3.924-12.885
	c-0.179-0.858-0.34-1.691-0.49-2.509L512,139.832C512.998,144.417,513.921,149.725,514.389,155.22z"/>
<path fill="#B12334" stroke="#231F20" stroke-width="0.7503" stroke-miterlimit="10" d="M570.426,188.574
	c0,0,0.253,0.508,0.526,1.054c0.17,0.342,0.348,0.699,0.479,0.958c0.333,0.669,0.333,1.339,1.004,2.344
	c0.614,0.921,1.228,1.841,1.324,1.987c-0.012-0.031,0.014-0.073,0.351,0.023c0.471,0.135,1.005,0.335,1.005,0.335
	s0.471,0.604,1.007,0.335c0.535-0.268,0.87-0.603,1.004-0.335c0.135,0.269,0.336,0.67,0.336,0.67s0.268,0.336,0.67,0.336
	s0.67,0,0.67,0s0.536-0.269,0.67-0.336c0.135-0.066,0.335-0.335,0.335-0.335s0.336-0.2,0.671,0s0.671,0.335,0.671,0.335h0.333
	c0,0,0.067-0.066,0.336-0.335c0.269-0.268,1.005-0.67,1.005-0.67s0.536-0.133,0.671,0c0.133,0.135,0.335,0,0.335,0h0.335
	c0,0,0.201,0.067,0.335-0.334s0.535-0.268,0.335-0.669c-0.201-0.402-0.335-1.006-0.335-1.006l-0.335-0.669c0,0,0.201-1.475,0-1.674
	c-0.195-0.196-0.139-0.394-0.319-0.958c-0.006-0.017-0.01-0.031-0.016-0.049c-0.202-0.604-0.269-0.604-0.335-1.005
	c-0.067-0.401,0-1.005,0-1.005s-0.101-0.087-0.217-0.2l-13.519,0.001C570.1,187.977,570.426,188.574,570.426,188.574z"/>
<path fill="#B12334" stroke="#231F20" stroke-width="0.7503" stroke-miterlimit="10" d="M480.963,92.746
	c0.085,0.587,0.252,1.089,0.67,1.34c0.419,0.251,1.005,0.419,1.005,0.67c0,0.251-0.333,0.419,0.337,1.341
	c0.67,0.921,1.842,1.759,2.011,2.01c0.166,0.251,0.668,0.502,1.339,1.34c0.67,0.838,2.011,1.843,3.017,2.681
	c1.005,0.838,1.256,1.508,2.009,1.675c0.754,0.168,1.09,0.503,1.676,0.671c0.124,0.036,0.259,0.109,0.4,0.206
	c0.529,0.365,1.146,1.073,1.61,1.469c0.587,0.502,0.336,0.083,0.671,0.67c0.334,0.586,0.753,1.507,1.339,1.675
	c0.587,0.167,1.005,0.252,1.676,0.671c0.671,0.418,1.424,0.418,2.01,1.004c0.586,0.587,1.006,1.006,1.006,1.006
	s0.586,0.418,0.669,1.34c0.085,0.922,0.336,1.592,0.672,2.346c0.071,0.163,0.149,0.326,0.227,0.486l58.239-0.005
	c0.091-1.744,0.17-3.338,0.17-4.836c0-2.045-0.701-4.014-1.765-5.831c-2.511-4.286-7.058-7.718-9.292-9.247
	c-3.184-2.177-5.361-3.016-5.361-3.016s-0.164-0.235-0.421-0.603l-63.944,0.006C480.812,92.09,480.887,92.206,480.963,92.746z"/>
<path fill="#B12334" stroke="#231F20" stroke-width="0.7503" stroke-miterlimit="10" d="M510.29,189.628
	c-1.094,5.765-0.73,5.957-0.511,7.658c1.255,1.005,3.098,1.089,3.351,1.676c0.102,0.238,0.343,3.682,0.681,8.038
	c0.102,1.299,0.213,2.678,0.33,4.076h50.198c0.021-1.323,0.035-2.718,0.036-4.076c0.006-4.039-0.08-7.725-0.316-8.038
	c-0.502-0.671-0.67-2.01-0.67-2.01l1.676-1.006c0,0,1.341-0.167,1.006-1.676c-0.337-1.506-0.169-1.172-0.67-2.009
	c-0.397-0.662-0.377-1.43-0.517-2.632c-0.036-0.32-0.084-0.668-0.155-1.054c-0.085-0.467-0.169-0.859-0.249-1.203l-53.746,0.005
	C510.564,188.208,510.418,188.958,510.29,189.628z"/>
<path fill="#B12334" stroke="#231F20" stroke-width="0.7503" stroke-miterlimit="10" d="M537.729,291.561
	c0.477,3.812,0.676,10.383,0.974,16.032h20.503c-0.124-0.489-0.258-0.988-0.412-1.534c-0.548-1.916-0.275-4.103,0-6.292
	c0.271-2.189-0.014-10.942,1.36-15.318c0.038-0.12,0.077-0.252,0.117-0.39h-22.515C537.604,287.547,537.566,290.267,537.729,291.561
	z"/>
<path fill="#B12334" stroke="#231F20" stroke-width="0.7503" stroke-miterlimit="10" d="M511.469,248.888
	c-0.103,1.45-0.284,5.693-0.472,10.684h25.743c0.289-1.715,0.574-3.358,0.853-4.87c0.599-3.269,0.731-4.686,1.971-8.175
	c0.686-1.93,0.334,4.466-0.245,13.045h24.942c0-0.004,0-0.01,0-0.016c0-3.363,0.845-17.909,0.865-23.995H512.59
	C512.052,241.811,511.576,247.394,511.469,248.888z"/>
<path fill="#B12334" stroke="#231F20" stroke-width="0.7503" stroke-miterlimit="10" d="M570.554,332.592
	c4.075,0,6.358-0.105,8.027-0.513h-15.098C564.959,332.503,566.834,332.592,570.554,332.592z"/>
<path fill="#B12334" stroke="#231F20" stroke-width="0.7503" stroke-miterlimit="10" d="M532.258,298.946
	c-0.546-3.01-1.093-9.848,0-12.856c0.125-0.342,0.286-1.047,0.479-2.031h-22.411c-0.137,5.431-0.531,15.656-0.865,23.534h22.335
	C532.249,304.505,532.628,300.978,532.258,298.946z"/>
<path fill="#B12334" stroke="#231F20" stroke-width="0.7503" stroke-miterlimit="10" d="M513.658,332.591v4.925
	c0.819,0,1.914,0.819,3.829,2.734c1.914,1.916,2.461,4.104,4.649,4.378c2.188,0.273,9.301,4.924,14.771,2.736
	c5.472-2.189,5.198-4.105,2.189-7.114c-2.345-2.343-6.018-6.017-7.396-8.171h-18.158
	C513.657,332.588,513.658,332.591,513.658,332.591z"/>
<path fill="#B12334" stroke="#231F20" stroke-width="0.7503" stroke-miterlimit="10" d="M63.243,245.293
	c0.419-0.629,0.985-4.483,1.39-7.256c0.001-0.004,0.001-0.008,0.002-0.01c0.052-0.128,0.102-0.244,0.147-0.334
	c1.105-2.209,2.579-1.841,3.316,0c0.65,1.627,1.587,4.974,2.305,7.764c-0.373,2.295,2.01,12.392,2.686,14.114h23.512
	c0.482-8.307,0.976-17.182,1.367-24.011H32.85c-0.371,4.189-0.708,7.992-0.859,9.502c-0.202,2.02-0.183,8.349-0.124,14.509h28.951
	C61.614,255.958,62.707,246.096,63.243,245.293z"/>
<path fill="#B12334" stroke="#231F20" stroke-width="0.7503" stroke-miterlimit="10" d="M52.624,289.645
	c0.503-1.008,1.137-3.135,1.766-5.586H31.341c-0.634,9.343-1.548,20.795-1.866,23.534h18.522
	C49.969,299.338,51.889,291.112,52.624,289.645z"/>
<path fill="#B12334" stroke="#231F20" stroke-width="0.7503" stroke-miterlimit="10" d="M21.675,336.436
	c-1.105,2.212-1.843,4.791-1.843,6.266c0,1.473,0.738,4.42,2.211,5.156c1.475,0.737,8.106-1.842,8.106-1.842
	s5.526-4.422,7.369-6.264c1.842-1.842,1.474-4.421,1.842-5.894c0.107-0.43,0.31-1.05,0.587-1.779H23.992
	C23.16,333.653,22.23,335.325,21.675,336.436z"/>
<path fill="#B12334" stroke="#231F20" stroke-width="0.7503" stroke-miterlimit="10" d="M77.309,333.12l2.211,1.475
	c0,0,9.907,6.512,11.421,6.632c6.39,0.507,11.422-1.475,11.053-4.054c-0.368-2.578-1.841-2.578-4.421-4.789
	c-0.125-0.107-0.238-0.205-0.352-0.305H77.294C77.309,332.696,77.309,333.12,77.309,333.12z"/>
<path fill="#B12334" stroke="#231F20" stroke-width="0.7503" stroke-miterlimit="10" d="M96.099,304.751
	c0-2.897-1.778-14.694-1.138-20.692H75.759c-0.005,0.581,0.015,1.104,0.076,1.533c0.368,2.579,0.368,9.212,0.737,12.526
	c0.226,2.036,0.035,5.875-0.144,9.475H96.14C96.135,306.631,96.099,305.673,96.099,304.751z"/>
<path fill="#3E3B6F" stroke="#231F20" stroke-width="0.7503" stroke-miterlimit="10" d="M98.071,207.779
	c0.104-1.153,0.181-1.86,0.226-2.019c0.49-0.35,1.398-1.03,2.15-1.771c0.85,0.08,0.99-0.328,0.89-0.851
	c-0.01-0.048-0.024-0.097-0.036-0.146c0.155-0.232,0.272-0.458,0.325-0.669c0.083-0.333,0.072-0.985,0.001-1.854l-2.261,1.643
	l1.804-5.552c-0.06-0.458-0.125-0.931-0.189-1.409l-5.074-3.687h4.596c-0.147-1.229-0.273-2.427-0.351-3.509
	c-0.016-0.21-0.137-0.38-0.341-0.522c-0.038-0.587-0.076-1.171-0.111-1.742c-0.284-4.432-0.498-8.167-0.498-8.721
	c0-1.438,0.899-3.057,0-7.191c-0.113-0.615-0.212-1.244-0.299-1.882c-0.347-2.528-0.5-5.23-0.525-7.971l-2.471-1.795h2.449
	c-0.038-3.765,0.005-16.082,1.979-23.39l-0.969,0.704l2.138-6.581l-5.597-4.067h6.919l2.138-6.581l2.139,6.581h6.919l-0.575,0.417
	c0.714-0.134,1.48-0.274,2.312-0.42c1.684-0.704,4.241-1.511,7.333-2.365c0.858-0.237,1.756-0.478,2.688-0.72
	c0.535-0.139,1.081-0.279,1.635-0.419c0.528-0.134,1.065-0.268,1.61-0.402c7.886-1.949,17.363-3.962,24.832-5.448
	c0.606-0.121,1.2-0.238,1.778-0.351c1.434-0.282,2.773-0.54,3.992-0.769l0.689-2.121l-5.598-4.067h6.92l2.137-6.581l2.139,6.581
	h2.001c0.128-0.577,0.293-1.064,0.508-1.279c0.479-0.478,1.434-0.798,2.336-1.169c0.361-0.148,0.713-0.305,1.024-0.484
	c0.081-0.047,0.161-0.095,0.236-0.145c1.079-0.719,2.518-1.259,3.596-0.899c1.078,0.36,4.315,0.18,5.394,0
	c0.909-0.151,1.564,0.209,2.285,0.649c0.134,0.082,0.27,0.166,0.412,0.25c0.898,0.539,1.775-0.195,2.315,0.166
	c0.539,0.36,2.204,0.265,3.282,0.625c1.079,0.36,1.955-0.791,3.394-0.791c1.437,0,0.898-2.697,0.898-2.697l-0.898-1.799
	c0,0-0.865-1.05-1.437-2.208c-0.403-0.818-0.66-1.69-0.362-2.286c0.719-1.438,1.799-0.719,4.495-1.798
	c2.697-1.079,5.753-4.854,2.697-3.596c-1.402,0.578-4.094,1.117-6.717,1.567l-4.534,3.294l2.139,6.581l-5.598-4.067l-5.598,4.067
	l2.138-6.581l-0.228-0.166c-3.259,1.452-13.391,3.641-13.965,2.496h-2.697c0,0-2.096,0-3.595,0c-0.895,0-1.149,0-1.526,0
	c-0.255,0-0.566,0-1.171,0c-0.828,0-1.199,0.092-1.566,0.275c-0.298,0.148-0.594,0.356-1.131,0.625
	c-0.273,0.137-0.608,0.258-0.964,0.364c-0.668,0.198-1.404,0.341-1.928,0.429c-0.421,0.07-0.703,0.106-0.703,0.106
	s-0.601,0.086-1.387,0.258l0.712,2.194l-2.398-1.743c-0.179,0.06-0.355,0.123-0.523,0.189c-1.5,0.601-2.098,1.199-3.596,0.9
	c-1.278-0.255-1.684,0.14-2.333,0.078c-0.113-0.011-0.231-0.034-0.365-0.078c-0.106-0.036-0.214-0.049-0.322-0.046
	c-0.792,0.018-1.583,0.945-2.374,0.945c-0.9,0-1.798,0.6-3.597,0c-1.798-0.6-3.596,0-3.596,0s-1.198,0.299-1.798,1.797
	c-0.6,1.5-0.899,0-2.697,0l-0.849-0.282l1.384,4.259h6.919l-5.598,4.067l2.138,6.581l-5.599-4.067l-5.598,4.067l2.139-6.581
	l-5.598-4.067h6.919l1.531-4.712l-0.486-0.163l-1.798,0.898c0,0-0.899,0.3-2.697,0.899c-0.152,0.051-0.295,0.099-0.435,0.145
	c-1.506,0.502-2.263,0.754-2.263,0.754h-1.797h-0.623h-1.176c0,0-0.298,0.899-1.797,0.899c-0.34,0-0.614-0.079-0.851-0.201
	c-0.693-0.356-1.042-1.097-1.563-1.452c-0.089-0.06-0.182-0.112-0.284-0.145c-0.898-0.299-3.895-2.097-5.394-1.798
	c-1.176,0.235-1.245-1.191-1.51-2.54l-1.922,1.396l1.25-3.845c-0.167-0.707-0.361-1.378-0.882-1.79
	c-0.326-0.256-0.778-0.413-1.431-0.413c-0.84,0-1.865-0.222-2.841-0.508c-0.536-0.157-1.056-0.335-1.525-0.506
	c-1.112-0.408-1.926-0.784-1.926-0.784v-0.616v-0.563v-0.618l2.698-1.798l0.897-1.797h1.798l0.899-1.798l-0.899-2.697
	c0,0-0.599-1.799-0.898-2.697c-0.3-0.899,0.299-0.899,1.797-1.799c1.499-0.898,0-1.198,0-2.696c0-0.779,0.162-1.88,0.36-2.927
	c0.096-0.51,0.2-1.005,0.298-1.445c0.089-0.396,0.172-0.749,0.241-1.022c0.136-0.542,0.396-0.839,0.778-1.057
	c0.461-0.264,1.1-0.413,1.918-0.741c0.696-0.278,0.875-0.686,0.897-1.131c0.026-0.516-0.158-1.084,0.002-1.566
	c0.086-0.258,0.096-0.618,0.055-1.052l-3.487,2.534l2.138-6.582l-5.597-4.067h2.15c-0.188-0.23-0.403-0.471-0.653-0.722
	c-1.498-1.498-2.696-2.696-2.696-2.696s-2.398-1.798-4.496-2.697c-2.097-0.899-1.797,0.3-2.696,0
	c-0.899-0.3-4.495-0.899-4.495-0.899s-3.895-0.299-5.394,0.899c-1.498,1.198-2.996,2.697-5.394,4.495
	c-0.732,0.549-1.379,1.097-1.943,1.621h4.525l-5.598,4.067l2.139,6.582l-5.599-4.068L65.41,64.96
	c-0.275,0.766-0.524,1.71-0.368,2.333c0.16,0.642,0.148,1.027,0.103,1.566c-0.034,0.409-0.086,0.907-0.1,1.673
	c-0.001,0.113-0.002,0.232-0.002,0.358c0,2.097-0.601,1.797-0.9,3.596c-0.299,1.797-0.299,0.898,0,2.697
	c0.299,1.798-0.899,3.895-0.899,5.393c0,1.5-0.6,2.996-1.798,2.698c-0.688-0.172-1.869,0.445-3.034,1.173
	c-0.429,0.269-0.857,0.552-1.257,0.815c-0.406,0.268-0.782,0.516-1.104,0.709c-1.5,0.899-3.896,1.497-5.394,2.696
	c-0.605,0.485-3.507,1.408-6.93,2.416c-0.402,0.119-0.811,0.239-1.224,0.358c-1.216,0.353-2.469,0.712-3.686,1.061
	c-0.638,0.184-1.266,0.363-1.873,0.539c-2.794,0.808-5.158,1.516-6.065,1.919c-0.122,0.054-0.236,0.114-0.347,0.176l1.616,4.973
	l-3.576-2.598c-0.39,1.036-0.39,1.944-0.39,1.944s-0.338,0.675-0.72,1.658c-0.235,0.605-0.487,1.328-0.688,2.083
	c-0.227,0.851-0.39,1.742-0.39,2.552c0,0.856-0.122,1.41-0.305,1.863c-0.177,0.438-0.413,0.782-0.656,1.212
	c-0.3,0.529-0.611,1.191-0.837,2.318c-0.6,2.997-1.798,4.496-1.798,4.496s-1.499,4.195-0.898,5.394
	c0.212,0.425,0.31,1.042,0.336,1.764h2.184l2.139-6.581l2.138,6.581h6.919l-5.598,4.067l2.139,6.581l-5.598-4.067l-5.599,4.067
	l2.139-6.581l-1.055-0.765c-0.046,0.412-0.096,0.823-0.146,1.226c-0.004,0.031-0.009,0.063-0.014,0.097
	c-0.038,0.287-0.103,0.705-0.189,1.223c-0.711,4.287-2.866,15.554-3.394,18.458c-0.6,3.296-1.199,9.29-0.899,11.687
	c0.299,2.398,0.299,3.895,0.899,6.293c0.061,0.241,0.126,0.516,0.197,0.815c0.631,2.67,1.601,7.276,1.601,7.276
	s0.299,4.195,0.899,5.394c0.414,0.827,0.542,3.226,0.681,5.125c0.062,0.852,0.126,1.603,0.219,2.067
	c0.215,1.08,0.121,2.316,0.05,3.707h2.47l2.139-6.581l2.138,6.581h6.919l-5.598,4.067l2.139,6.581l-5.598-4.067l-1.958,1.422
	l0.893,3.573v0.099v1.699c0,0,1.499,2.996,2.698,3.596c1.198,0.601,3.596,0,3.596,0s1.985,1.701,3.473,2.622
	c-0.002,0.006-0.003,0.012-0.006,0.019h63.047C98.211,209.795,98.133,208.652,98.071,207.779z M30.01,162.197l2.139,6.581
	l-5.598-4.067l-5.599,4.067l2.139-6.581l-5.599-4.067h6.92l2.138-6.581l2.138,6.581h6.919L30.01,162.197z M51.751,185.445
	l-5.598-4.067l-5.598,4.067l2.139-6.581l-5.599-4.067h6.92l2.138-6.581l2.138,6.581h6.92l-5.599,4.067L51.751,185.445z
	 M49.613,145.53l2.138,6.581l-5.598-4.067l-5.598,4.067l2.139-6.581l-5.599-4.067h6.92l2.138-6.581l2.138,6.581h6.92L49.613,145.53z
	 M49.613,112.195l2.138,6.581l-5.598-4.067l-5.598,4.067l2.139-6.581l-5.599-4.067h6.92l2.138-6.581l2.138,6.581h6.92
	L49.613,112.195z M71.356,202.112l-5.599-4.067l-5.598,4.067l2.139-6.581l-5.598-4.067h6.92l2.138-6.581l2.139,6.581h6.919
	l-5.598,4.067L71.356,202.112z M69.217,162.197l2.139,6.581l-5.599-4.067l-5.598,4.067l2.139-6.581L56.7,158.13h6.92l2.138-6.581
	l2.138,6.581h6.92L69.217,162.197z M69.217,128.862l2.139,6.581l-5.599-4.067l-5.598,4.067l2.139-6.581l-5.598-4.067h6.92
	l2.138-6.581l2.139,6.581h6.919L69.217,128.862z M69.217,95.528l2.139,6.581l-5.599-4.068l-5.598,4.068l2.139-6.581L56.7,91.46h6.92
	l2.138-6.581l2.138,6.581h6.92L69.217,95.528z M83.224,74.793l2.138-6.581l2.139,6.581h6.92l-5.599,4.067l2.138,6.581l-5.598-4.068
	l-5.598,4.068l2.139-6.581l-5.598-4.067H83.224z M90.959,185.445l-5.598-4.067l-5.598,4.067l2.139-6.581l-5.598-4.067h6.92
	l2.138-6.581l2.139,6.581h6.92l-5.599,4.067L90.959,185.445z M88.821,145.53l2.138,6.581l-5.598-4.068l-5.598,4.068l2.139-6.581
	l-5.598-4.067h6.92l2.138-6.581l2.139,6.581h6.92L88.821,145.53z M88.821,112.195l2.138,6.581l-5.598-4.067l-5.598,4.067
	l2.139-6.581l-5.598-4.067h6.92l2.138-6.581l2.139,6.581h6.92L88.821,112.195z"/>
<g>
	<path fill="#FFFFFF" stroke="#231F20" stroke-width="0.7503" stroke-miterlimit="10" d="M30.532,97.136
		c-1.057,0.593-1.64,1.526-1.959,2.375l3.576,2.598L30.532,97.136z"/>
	<path fill="#FFFFFF" stroke="#231F20" stroke-width="0.7503" stroke-miterlimit="10" d="M26.55,118.214l-2.139,6.581h-2.184
		c0.035,0.971-0.061,2.135-0.191,3.302l1.055,0.765l-2.139,6.581l5.599-4.067l5.598,4.067l-2.139-6.581l5.598-4.067h-6.919
		L26.55,118.214z"/>
	<polygon fill="#FFFFFF" stroke="#231F20" stroke-width="0.7503" stroke-miterlimit="10" points="26.55,151.549 24.412,158.13 
		17.492,158.13 23.091,162.197 20.952,168.778 26.55,164.711 32.148,168.778 30.01,162.197 35.607,158.13 28.688,158.13 	"/>
	<path fill="#FFFFFF" stroke="#231F20" stroke-width="0.7503" stroke-miterlimit="10" d="M28.688,191.464l-2.138-6.581l-2.139,6.581
		h-2.47c-0.027,0.54-0.05,1.101-0.05,1.688c0,0.498,0,1.012,0,1.507c0,1.591,0,2.986,0,2.986l0.421,0.281l2.275,1.518l0.006,0.023
		l1.958-1.422l5.598,4.067l-2.139-6.581l5.598-4.067H28.688z"/>
	<polygon fill="#FFFFFF" stroke="#231F20" stroke-width="0.7503" stroke-miterlimit="10" points="46.153,101.547 44.015,108.128 
		37.095,108.128 42.694,112.195 40.555,118.776 46.153,114.709 51.751,118.776 49.613,112.195 55.211,108.128 48.291,108.128 	"/>
	<polygon fill="#FFFFFF" stroke="#231F20" stroke-width="0.7503" stroke-miterlimit="10" points="46.153,134.881 44.015,141.462 
		37.095,141.462 42.694,145.53 40.555,152.111 46.153,148.043 51.751,152.111 49.613,145.53 55.211,141.462 48.291,141.462 	"/>
	<polygon fill="#FFFFFF" stroke="#231F20" stroke-width="0.7503" stroke-miterlimit="10" points="48.291,174.797 46.153,168.216 
		44.015,174.797 37.095,174.797 42.694,178.864 40.555,185.445 46.153,181.378 51.751,185.445 49.613,178.864 55.211,174.797 	"/>
	<path fill="#FFFFFF" stroke="#231F20" stroke-width="0.7503" stroke-miterlimit="10" d="M68.503,59.994
		c-0.333,0.397-0.588,0.741-0.765,1.006c-0.599,0.899-1.798,2.698-1.798,2.698s-0.179,0.358-0.38,0.866
		c-0.05,0.124-0.1,0.257-0.15,0.396l0.348-0.252l5.599,4.068l-2.139-6.582l5.598-4.067H70.29
		C69.55,58.812,68.955,59.454,68.503,59.994z"/>
	<polygon fill="#FFFFFF" stroke="#231F20" stroke-width="0.7503" stroke-miterlimit="10" points="65.757,84.88 63.62,91.46 
		56.7,91.46 62.298,95.528 60.159,102.109 65.757,98.041 71.356,102.109 69.217,95.528 74.815,91.46 67.896,91.46 	"/>
	<polygon fill="#FFFFFF" stroke="#231F20" stroke-width="0.7503" stroke-miterlimit="10" points="65.757,118.214 63.62,124.795 
		56.7,124.795 62.298,128.862 60.159,135.443 65.757,131.376 71.356,135.443 69.217,128.862 74.815,124.795 67.896,124.795 	"/>
	<polygon fill="#FFFFFF" stroke="#231F20" stroke-width="0.7503" stroke-miterlimit="10" points="65.757,151.549 63.62,158.13 
		56.7,158.13 62.298,162.197 60.159,168.778 65.757,164.711 71.356,168.778 69.217,162.197 74.815,158.13 67.896,158.13 	"/>
	<polygon fill="#FFFFFF" stroke="#231F20" stroke-width="0.7503" stroke-miterlimit="10" points="67.896,191.464 65.757,184.883 
		63.62,191.464 56.7,191.464 62.298,195.532 60.159,202.112 65.757,198.045 71.356,202.112 69.217,195.532 74.815,191.464 	"/>
	<polygon fill="#FFFFFF" stroke="#231F20" stroke-width="0.7503" stroke-miterlimit="10" points="85.361,68.213 83.224,74.793 
		76.304,74.793 81.902,78.861 79.763,85.441 85.361,81.374 90.959,85.441 88.821,78.861 94.42,74.793 87.5,74.793 	"/>
	<polygon fill="#FFFFFF" stroke="#231F20" stroke-width="0.7503" stroke-miterlimit="10" points="85.361,101.547 83.224,108.128 
		76.304,108.128 81.902,112.195 79.763,118.776 85.361,114.709 90.959,118.776 88.821,112.195 94.42,108.128 87.5,108.128 	"/>
	<polygon fill="#FFFFFF" stroke="#231F20" stroke-width="0.7503" stroke-miterlimit="10" points="85.361,134.881 83.224,141.462 
		76.304,141.462 81.902,145.53 79.763,152.111 85.361,148.043 90.959,152.111 88.821,145.53 94.42,141.462 87.5,141.462 	"/>
	<polygon fill="#FFFFFF" stroke="#231F20" stroke-width="0.7503" stroke-miterlimit="10" points="87.5,174.797 85.361,168.216 
		83.224,174.797 76.304,174.797 81.902,178.864 79.763,185.445 85.361,181.378 90.959,185.445 88.821,178.864 94.42,174.797 	"/>
	<path fill="#FFFFFF" stroke="#231F20" stroke-width="0.7503" stroke-miterlimit="10" d="M99.366,68.775l3.487-2.534
		c-0.087-0.927-0.413-2.205-0.775-3.631c-0.059-0.233-0.12-0.47-0.18-0.71c-0.042-0.169-0.093-0.319-0.149-0.459
		c-0.736-1.853-2.547-1.338-2.547-1.338s-0.209-0.832-1.145-1.975h-2.15l5.597,4.067L99.366,68.775z"/>
	<path fill="#FFFFFF" stroke="#231F20" stroke-width="0.7503" stroke-miterlimit="10" d="M100.616,98.264l-1.25,3.845l1.922-1.396
		c-0.026-0.13-0.052-0.259-0.083-0.385c-0.056-0.234-0.122-0.461-0.206-0.671C100.826,99.221,100.728,98.735,100.616,98.264z"/>
	<path fill="#FFFFFF" stroke="#231F20" stroke-width="0.7503" stroke-miterlimit="10" d="M104.965,118.214l-2.138,6.581h-6.919
		l5.597,4.067l-2.138,6.581l0.969-0.704c0.465-1.726,1.039-3.173,1.745-4.161c0.219-0.308,0.421-0.587,0.614-0.853
		c2.396-3.294,2.883-3.492,4.828-3.644c0.944-0.074,2.232-0.139,4.25-0.544c0.179-0.036,0.361-0.072,0.55-0.11
		c0.357-0.07,0.736-0.143,1.126-0.216l0.575-0.417h-6.919L104.965,118.214z"/>
	<path fill="#FFFFFF" stroke="#231F20" stroke-width="0.7503" stroke-miterlimit="10" d="M98.356,158.13h-2.449l2.471,1.795
		c-0.002-0.222-0.004-0.444-0.004-0.667C98.374,159.259,98.363,158.849,98.356,158.13z"/>
	<path fill="#FFFFFF" stroke="#231F20" stroke-width="0.7503" stroke-miterlimit="10" d="M99.366,202.112l2.261-1.643
		c-0.085-1.047-0.257-2.409-0.457-3.909L99.366,202.112z"/>
	<path fill="#FFFFFF" stroke="#231F20" stroke-width="0.7503" stroke-miterlimit="10" d="M100.503,191.464h-4.596l5.074,3.687
		C100.818,193.943,100.651,192.689,100.503,191.464z"/>
	<polygon fill="#FFFFFF" stroke="#231F20" stroke-width="0.7503" stroke-miterlimit="10" points="126.708,108.128 125.324,103.869 
		124.569,101.547 123.962,103.416 122.431,108.128 115.511,108.128 121.109,112.195 118.971,118.776 124.569,114.709 
		130.167,118.776 128.029,112.195 133.627,108.128 	"/>
	<path fill="#FFFFFF" stroke="#231F20" stroke-width="0.7503" stroke-miterlimit="10" d="M147.373,100.366l2.398,1.743l-0.712-2.194
		C148.538,100.028,147.938,100.178,147.373,100.366z"/>
	<path fill="#FFFFFF" stroke="#231F20" stroke-width="0.7503" stroke-miterlimit="10" d="M163.776,101.547l-2.137,6.581h-6.92
		l5.598,4.067l-0.689,2.121c1.058-0.199,2.024-0.378,2.878-0.531c1.47-0.265,2.606-0.457,3.314-0.56
		c0.462-0.067,0.741-0.097,0.807-0.084c0.376,0.075,0.593-0.228,0.72-0.605c0.055-0.164,0.094-0.34,0.12-0.507
		c0.058-0.368,0.059-0.685,0.059-0.685s0.005-0.1,0.016-0.269c0.026-0.409,0.09-1.225,0.21-2.04
		c0.046-0.311,0.102-0.619,0.165-0.907h-2.001L163.776,101.547z"/>
	<path fill="#FFFFFF" stroke="#231F20" stroke-width="0.7503" stroke-miterlimit="10" d="M191.374,92.234
		c-2.023,0.347-4.006,0.64-5.325,0.856c-0.696,0.114-1.208,0.207-1.442,0.273c-0.489,0.14-0.87,0.227-1.311,0.363
		c-0.693,0.214-1.535,0.555-3.185,1.436c-0.026,0.013-0.058,0.027-0.085,0.042c-0.101,0.052-0.213,0.104-0.333,0.158l0.228,0.166
		l-2.138,6.581l5.598-4.067l5.598,4.067l-2.139-6.581L191.374,92.234z"/>
</g>
<path fill="#FFFFFF" stroke="#231F20" stroke-width="0.7503" stroke-miterlimit="10" d="M514.434,214.4
	c0,0-1.001,11.397-1.844,21.16h52.536c0.003-0.843-0.011-1.524-0.044-1.991c-0.271-3.827-1.021-14.647-0.921-16.96
	c0.078-1.259,0.141-3.289,0.178-5.534h-50.198C514.233,212.181,514.332,213.299,514.434,214.4z"/>
<path fill="#FFFFFF" stroke="#231F20" stroke-width="0.7503" stroke-miterlimit="10" d="M98.679,224.062
	c0.225-2.25-0.1-8.476-0.386-12.987H35.246c-0.481,1.454-0.766,2.588-0.676,3.039c0.37,1.842,0,3.315-0.368,6.632
	c-0.217,1.956-0.82,8.787-1.353,14.814h65.118C98.314,229.508,98.578,225.064,98.679,224.062z"/>
<path fill="#FFFFFF" stroke="#231F20" stroke-width="0.7503" stroke-miterlimit="10" d="M513.907,172.593
	c-0.13,0.756-0.275,1.505-0.442,2.244c-1.263,5.588-2.135,9.6-2.731,12.539l53.746-0.005c-0.233-1.011-0.421-1.607-0.421-2.482
	c0-1.172,0-1.508-0.334-2.68c-0.336-1.172-0.838-2.346-1.007-3.351c-0.165-1.005-0.67-1.843,0-2.01c0.671-0.168,1.676,0,2.347,1.005
	c0.669,1.005,0.502,0.67,1.006,1.34c0.502,0.67,0.67,1.172,0.67,2.01c0,0.839-0.504,0.336,0.334,1.676
	c0.839,1.341,1.676,2.849,2.011,3.352c0.144,0.216,0.414,0.682,0.673,1.142l13.519-0.001c-0.253-0.244-0.577-0.607-0.119-0.47
	c0.671,0.201,1.006,0.335,1.006,0.335l0.335-0.335c0,0-0.066,0.067,0-0.335c0.016-0.091,0.026-0.133,0.035-0.15
	c-0.009-0.025-0.02-0.079-0.035-0.184c-0.066-0.469-0.202-0.135-0.335-0.67c-0.135-0.536-0.135-0.604-0.335-1.006
	c-0.202-0.401-0.47-0.67-0.671-1.005c-0.2-0.335,0.402,0-0.335-0.67c-0.736-0.669-3.016-3.886-4.021-4.69
	c-1.004-0.805-3.216-1.944-3.687-2.347c-0.469-0.401-0.736-0.804-0.334-1.004c0.402-0.202,1.205,0.066,1.341-0.336
	c0.134-0.401,0.2-0.201,0.335-0.67c0.134-0.469,0.737-0.67,0.334-1.005c-0.1-0.083-0.2-0.159-0.299-0.233
	c-0.291-0.219-0.556-0.42-0.706-0.772c-0.101-0.235-2.376-3.607-5.04-8.937l-56.037,0.005
	C514.69,166.185,514.45,169.457,513.907,172.593z"/>
<path fill="#FFFFFF" stroke="#231F20" stroke-width="0.7503" stroke-miterlimit="10" d="M504.083,116.87
	c0.251,0.502,1.089,1.927,1.341,2.681c0.143,0.432,0.533,1,0.857,1.486c0.242,0.363,0.446,0.68,0.482,0.858
	c0.083,0.42,0.586,1.006,0.67,1.676c0.083,0.67,0.669,1.174,0.669,1.676c0,0.215,1.843,5.528,3.582,13.162
	c0.105,0.465,0.211,0.94,0.315,1.423l50.898-0.006c-0.089-0.479-0.173-0.955-0.254-1.423c-1.225-7.158-1.422-12.759-1.33-17.372
	c0.041-2.08,0.141-3.959,0.229-5.691l-58.239,0.005C503.586,115.928,503.886,116.477,504.083,116.87z"/>
<path fill="#FFFFFF" stroke="#231F20" stroke-width="0.7503" stroke-miterlimit="10" d="M483.645,68.621
	c0,0.586,0.167,1.508,0,1.676c-0.155,0.154-0.523,0.237-0.907,0.315c-0.033,0.006-0.066,0.013-0.1,0.02
	c-0.418,0.083-0.668,0.502-1.339,0.67c-0.669,0.167-1.34,0.419-2.012,0.336c-0.669-0.083-1.339,0-1.339,0l-1.006,0.334l-0.335,1.34
	v1.005c0,0-0.418,0.586-0.67,0.671c-0.018,0.005-0.029,0.009-0.04,0.012c0.017,0.014-0.012,0.081-0.296,0.323
	c-0.586,0.502-0.753,0.67-0.669,1.005c0.083,0.335,0.669,1.005,0.669,1.005l0.67,1.006c0,0-0.251,0.586-0.67,1.005
	s-0.669,0.084-0.669,0.67c0,0.586,0.335,1.004,0.335,1.004l1.004,1.006c0,0,1.007,0.753,1.007,1.004
	c0,0.252-0.252,0.587-0.671,1.006c-0.418,0.419-0.587,0.167-0.67,0.67c-0.084,0.502,0.67,1.005,0.67,1.005l1.006,0.335l0.67,0.671
	c0,0,0.089,0.267,0.209,0.593c0.141,0.385,0.325,0.855,0.461,1.083c0.251,0.418,0.754,0.67,1.006,1.34
	c0.25,0.669,1.172,1.675,1.004,2.01c-0.014,0.027-0.022,0.05-0.032,0.073l63.944-0.006c-0.781-1.118-2.425-3.457-2.93-4.088
	c-0.097-0.122-0.168-0.263-0.221-0.417c-0.31-0.912,0.076-2.363,0.221-3.938c0.167-1.843,1.005-3.35,1.005-4.021
	c0-0.67,1.005-0.67,1.005-0.67s4.355-3.686,4.355-6.367c0-0.873-0.107-1.389-0.273-1.702c-0.346-0.647-0.949-0.417-1.401-0.643
	c-0.417-0.208-0.057-1.129,0.114-2.64l-25.351,0.002l-1.569,0.627c0,0,0,1.681,0,2.656c0,0.136,0,0.258,0,0.359
	c0,0.837,0.504,2.848,0.672,3.686c0.167,0.837,0.669,2.346,0.669,2.346l1.006,1.34c0,0,0.837,0.838,1.004,1.675
	c0.168,0.838,0.67,2.345,0.67,2.345s1.342,0.837,0.671,1.675s-0.167,0.502-1.005,1.34c-0.328,0.327-0.834,1.102-1.379,1.93
	c-0.851,1.291-1.796,2.71-2.308,2.761c-0.837,0.084-2.262-1.172-3.685-1.004c-1.425,0.168-3.938,0-4.691,0
	c-0.755,0-3.686-1.09-4.355-1.341c-0.671-0.251-2.263,0.084-3.016,0c-0.193-0.021-0.442-0.182-0.717-0.413
	c-0.794-0.673-1.801-1.956-2.299-2.267c-0.67-0.419-2.011-0.167-2.681-0.671c-0.671-0.502-4.774-4.606-5.696-5.361
	c-0.922-0.753-2.681-2.596-3.015-2.68c-0.335-0.084,0.418-1.675,0-2.346c-0.42-0.67-0.335-1.34-0.67-2.01
	c-0.154-0.307-0.256-0.825-0.344-1.36c-0.104-0.634-0.191-1.292-0.327-1.655c-0.208-0.553-0.133-1.05-0.24-1.63l-4.482,0
	C483.596,67.76,483.645,68.166,483.645,68.621z"/>
<path fill="#FFFFFF" stroke="#231F20" stroke-width="0.7503" stroke-miterlimit="10" d="M510.326,284.059h22.411
	c0.909-4.641,2.497-15.549,4.003-24.487h-25.743c-0.306,8.183-0.623,18.379-0.623,21.602
	C510.374,281.828,510.357,282.818,510.326,284.059z"/>
<path fill="#FFFFFF" stroke="#231F20" stroke-width="0.7503" stroke-miterlimit="10" d="M537.756,284.059h22.515
	c1.402-4.89,3.984-20.736,3.99-24.487h-24.942C538.781,267.481,538.053,277.243,537.756,284.059z"/>
<path fill="#FFFFFF" stroke="#231F20" stroke-width="0.7503" stroke-miterlimit="10" d="M57.045,271.96
	c0.013-0.073,0.024-0.155,0.036-0.244c0,0,2.032-4.146,2.566-5.747c0.6-1.797,0-2.994,0.899-5.393
	c0.085-0.228,0.176-0.574,0.272-1.005H31.867c0.041,4.304,0.101,8.524,0.118,11.133c-0.031,0.331-0.065,0.667-0.1,1.012h0.104
	c0,0.081,0,0.168,0,0.244c0,1.823-0.276,6.595-0.65,12.099H54.39C55.602,279.338,56.802,273.414,57.045,271.96z"/>
<path fill="#FFFFFF" stroke="#231F20" stroke-width="0.7503" stroke-miterlimit="10" d="M73.542,260.79
	c-0.146,1.115-0.285,2.363-0.285,3.802c0,4.053,1.842,8.104,2.579,10.315c0.614,1.843-0.051,6.242-0.076,9.151h19.202
	c0.011-0.104,0.021-0.21,0.034-0.31c0.31-2.479,0.946-12.792,1.606-24.178H73.089c0.015,0.037,0.03,0.077,0.043,0.105
	C73.252,259.947,73.393,260.336,73.542,260.79z"/>
<path fill="#FFFFFF" stroke="#231F20" stroke-width="0.7503" stroke-miterlimit="10" d="M531.165,330.676
	c0.272-1.366,0.547-3.827,0.547-4.649c0-0.82,0.82-2.462,0.82-2.462s-2.254-0.82-2.632-2.188c-0.377-1.368-0.717-4.104,0-5.198
	c0.717-1.094,0.717-1.367,1.265-4.65c0.177-1.065,0.412-2.45,0.631-3.936h-22.335c-0.193,4.582-0.365,8.372-0.454,9.953
	c-0.273,4.925,3.557,10.122,4.104,12.584c0.225,1.007,0.355,1.598,0.433,1.949h18.158
	C531.311,331.468,531.104,330.979,531.165,330.676z"/>
<path fill="#FFFFFF" stroke="#231F20" stroke-width="0.7503" stroke-miterlimit="10" d="M539.645,316.999
	c1.094,4.104-0.123,9.574,1.579,10.395c1.702,0.821,4.985,1.096,6.899,1.916c1.916,0.82,9.015-0.822,12.03,1.093
	c1.308,0.831,2.201,1.352,3.33,1.677h15.098c1.019-0.249,1.811-0.609,2.642-1.129c2.188-1.368-5.472-5.472-10.942-7.933
	c-5.472-2.462-4.924-2.462-7.112-5.196c-2.188-2.736-2.474-4.104-3.015-6.293c-0.387-1.564-0.636-2.71-0.948-3.936h-20.503
	C538.918,311.677,539.185,315.278,539.645,316.999z"/>
<path fill="#FFFFFF" stroke="#231F20" stroke-width="0.7503" stroke-miterlimit="10" d="M47.997,307.593H29.475
	c-0.025,0.212-0.046,0.371-0.063,0.473c-0.368,2.212-2.948,8.476-2.948,8.476l-1.842,4.422l1.842,3.315c0,0-0.368,2.579-0.737,4.053
	c-0.183,0.732-0.912,2.193-1.735,3.748h15.954c0.673-1.78,1.791-4.236,3.098-6.328C43.969,324.271,46.009,315.918,47.997,307.593z"
	/>
<path fill="#FFFFFF" stroke="#231F20" stroke-width="0.7503" stroke-miterlimit="10" d="M94.625,328.331
	c-0.368-1.474,0.369-4.421,0.737-6.264c0.368-1.842-0.368-2.21-1.475-3.685c-1.104-1.475-0.368-2.212,1.106-4.79
	c1.012-1.771,1.155-3.892,1.146-6H76.428c-0.115,2.265-0.225,4.435-0.225,6c0,4.055-1.474,11.054-1.474,11.054
	s1.843,1.843,2.211,3.316c0.244,0.975,0.326,2.913,0.354,4.116h19.927C94.999,330.138,94.976,329.733,94.625,328.331z"/>
</svg>
