<?xml version="1.0" encoding="utf-8"?>
<!-- Generator: Adobe Illustrator 16.0.0, SVG Export Plug-In . SVG Version: 6.00 Build 0)  -->
<!DOCTYPE svg PUBLIC "-//W3C//DTD SVG 1.1//EN" "http://www.w3.org/Graphics/SVG/1.1/DTD/svg11.dtd">
<svg version="1.1" id="Layer_1" xmlns="http://www.w3.org/2000/svg" xmlns:xlink="http://www.w3.org/1999/xlink" x="0px" y="0px"
	 width="600px" height="400px" viewBox="0 0 600 400" enable-background="new 0 0 600 400" xml:space="preserve">
<path fill-rule="evenodd" clip-rule="evenodd" d="M395.275,118.913l-13.688,44.23c0,0,17.791,20.707,90.559,27.38
	c0.309,0.062,0,9.477,0,9.477s0.309,9.415,0,9.477c-72.768,6.669-90.559,27.381-90.559,27.381l13.688,44.225l95.828,95.829
	l-4.211,9.477l0,0l-9.481,4.216l-95.824-95.828l-44.229-13.693c0,0-20.712,17.796-27.381,90.564c-0.062,0.308-9.477,0-9.477,0
	s-9.415,0.308-9.477,0c-6.671-72.769-27.38-90.564-27.38-90.564l-44.228,13.693l-95.829,95.828l-9.476-4.216l0,0l-4.214-9.477
	l95.829-95.829l13.69-44.225c0,0-17.796-20.712-90.563-27.381c-0.306-0.062,0-9.477,0-9.477s-0.306-9.415,0-9.477
	c72.768-6.674,90.563-27.38,90.563-27.38l-13.69-44.23l-95.829-95.826l4.214-9.479l0,0l9.476-4.211l95.829,95.829l44.228,13.688
	c0,0,20.709-17.796,27.38-90.561c0.062-0.306,9.477,0,9.477,0V200l0,0l0,0V28.352c0,0,9.415-0.306,9.477,0
	c6.669,72.765,27.381,90.561,27.381,90.561l44.229-13.688l95.824-95.829l9.481,4.211l0,0l4.211,9.479L395.275,118.913z"/>
</svg>
