<?xml version="1.0" encoding="utf-8"?>
<!-- Generator: Adobe Illustrator 16.0.0, SVG Export Plug-In . SVG Version: 6.00 Build 0)  -->
<!DOCTYPE svg PUBLIC "-//W3C//DTD SVG 1.1//EN" "http://www.w3.org/Graphics/SVG/1.1/DTD/svg11.dtd">
<svg version="1.1" id="Layer_1" xmlns="http://www.w3.org/2000/svg" xmlns:xlink="http://www.w3.org/1999/xlink" x="0px" y="0px"
	 width="600px" height="400px" viewBox="0 0 600 400" enable-background="new 0 0 600 400" xml:space="preserve">
<path fill-rule="evenodd" clip-rule="evenodd" d="M357.526,172.568c0,0,12.833,14.931,65.304,19.744c0.22,0.044,0,6.833,0,6.833
	H299.584l-0.065,0.062h188.8l-2.685,6.981h-97.724l-29.531,15.572c0,0-1.482,19.632,32.216,60.135
	c0.104,0.152-3.158,3.255-4.378,4.404l47.243,47.243l-6.834,3.04l-69.101-69.099l-31.89-9.874c0,0-14.934,12.832-19.742,65.303
	c-0.045,0.223-6.835,0-6.835,0V200.446l-0.049,0.049v188.794l-6.979-2.685v-97.723l-15.572-29.532c0,0-19.631-1.482-60.135,32.216
	c-0.148,0.101-3.083-2.977-4.303-4.268l-46.347,46.246l-3.04-6.825l69.18-69.033l9.884-31.864c0,0-12.847-14.916-65.381-19.721
	c-0.221-0.045,0-6.83,0-6.83h121.992l-0.063-0.063h0.409h-0.001h-190.18l2.688-6.974h97.838l29.567-15.556
	c0,0,1.486-19.613-32.255-60.079c-0.117-0.176,4.211-4.242,4.774-4.77l-46.171-46.073l6.842-3.033l69.182,69.033l31.93,9.862
	c0,0,14.952-12.819,19.767-65.242c0.036-0.176,4.392-0.07,6.132-0.021V10.068l6.989,2.683v97.627l15.589,29.504
	c0,0,19.658,1.484,60.208-32.185c0.155-0.104,3.423,3.328,4.494,4.46l47.414-47.416l3.036,6.835l-69.096,69.098L357.526,172.568z"/>
</svg>
