<?xml version="1.0" encoding="utf-8"?>
<!-- Generator: Adobe Illustrator 16.0.0, SVG Export Plug-In . SVG Version: 6.00 Build 0)  -->
<!DOCTYPE svg PUBLIC "-//W3C//DTD SVG 1.1//EN" "http://www.w3.org/Graphics/SVG/1.1/DTD/svg11.dtd">
<svg version="1.1" id="Layer_1" xmlns="http://www.w3.org/2000/svg" xmlns:xlink="http://www.w3.org/1999/xlink" x="0px" y="0px"
	 width="600px" height="400px" viewBox="0 0 600 400" enable-background="new 0 0 600 400" xml:space="preserve">
<path fill-rule="evenodd" clip-rule="evenodd" d="M323.729,356.597c-11.749,1.552-39.662,2.327-67.064-5.159
	c0-8.958,0.383-92.812,0-101.114c5.401,0,44.34,0,61.905,0c0-14.081,0.333-193.583,0-201.123
	c-18.336,19.15-119.412,117.702-134.091,131.988c-13.494,0-39.589,0-56.789,0c0-95.165,77.146-168.181,172.307-168.181
	s172.315,77.146,172.315,172.31C472.312,280.481,396.781,346.934,323.729,356.597z M127.69,186.347c-0.146,0.441,58.812,0,58.812,0
	L313.411,62.532v182.632h-61.905V354.53c0,0,21.381,7.991,61.905,7.225c0,3.87,0,19.83,0,25.795c0,0-185.721,0.162-185.721,0
	c0-7.436,0-22.701,0-22.701l53.653-54.684C181.344,310.165,131.641,271.624,127.69,186.347z"/>
</svg>
