<?xml version="1.0" encoding="utf-8"?>
<!-- Generator: Adobe Illustrator 16.0.0, SVG Export Plug-In . SVG Version: 6.00 Build 0)  -->
<!DOCTYPE svg PUBLIC "-//W3C//DTD SVG 1.1//EN" "http://www.w3.org/Graphics/SVG/1.1/DTD/svg11.dtd">
<svg version="1.1" id="Layer_1" xmlns="http://www.w3.org/2000/svg" xmlns:xlink="http://www.w3.org/1999/xlink" x="0px" y="0px"
	 width="600px" height="400px" viewBox="0 0 600 400" enable-background="new 0 0 600 400" xml:space="preserve">
<path fill-rule="evenodd" clip-rule="evenodd" d="M322.425,353.6c-11.521,1.52-38.867,2.274-65.716-5.056
	c0-1.438,0.132-4.433,0.185-7.667c13.474,3.664,27.642,5.644,42.276,5.644c88.783,0,160.748-71.97,160.748-160.749
	c0-88.78-71.965-160.75-160.748-160.75c-87.427,0-158.551,69.795-160.697,156.705c-4.077,0-8.048,0-8.14,0
	c0-93.246,75.59-164.793,168.837-164.793c93.245,0,168.837,75.593,168.837,168.838S394.005,344.132,322.425,353.6z M130.333,186.782
	c-0.141,0.431,57.626,0,57.626,0l124.355-121.32v178.946h-60.662v107.168c0,0,20.95,7.828,60.662,7.078c0,3.792,0,19.43,0,25.275
	c0,0-181.982,0.156-181.982,0c0-7.287,0-22.245,0-22.245l52.571-53.581C182.904,308.104,134.206,270.345,130.333,186.782z"/>
</svg>
