<?xml version="1.0" encoding="utf-8"?>
<!-- Generator: Adobe Illustrator 16.0.0, SVG Export Plug-In . SVG Version: 6.00 Build 0)  -->
<!DOCTYPE svg PUBLIC "-//W3C//DTD SVG 1.1//EN" "http://www.w3.org/Graphics/SVG/1.1/DTD/svg11.dtd">
<svg version="1.1" id="Layer_1" xmlns="http://www.w3.org/2000/svg" xmlns:xlink="http://www.w3.org/1999/xlink" x="0px" y="0px"
	 width="600px" height="400px" viewBox="0 0 600 400" enable-background="new 0 0 600 400" xml:space="preserve">
<path fill-rule="evenodd" clip-rule="evenodd" d="M491.068,391.543c0,0-141.963,0-195.709,0
	c-82.347-3.79-144.581-48.354-175.501-126.052h8.061c19.242,51.27,60.701,91.682,112.657,109.503
	c15.03-15.257,21.769-22.242,47.041-47.581c71.796-71.996,57.408-57.543,129.372-129.371c16.516-16.484,37.669-37.967,56.279-55.201
	C454.485,88.5,412.069,43.975,357.276,25.861v-7.645c108.735,34.78,133.447,140.974,133.792,176.51
	C491.453,233.686,491.068,391.543,491.068,391.543z M361.702,262.172c0,0,0,97.226,0,111.679
	c59.557-17.039,105.017-79.599,111.675-112.78C473.085,261.88,361.702,262.172,361.702,262.172z M108.487,204.677V8.962
	c0,0,20.452,0.011,181.327,0C184.571,15.667,107.964,101.944,108.487,204.677z"/>
</svg>
