<?xml version="1.0" encoding="utf-8"?>
<!-- Generator: Adobe Illustrator 16.0.0, SVG Export Plug-In . SVG Version: 6.00 Build 0)  -->
<!DOCTYPE svg PUBLIC "-//W3C//DTD SVG 1.1//EN" "http://www.w3.org/Graphics/SVG/1.1/DTD/svg11.dtd">
<svg version="1.1" xmlns="http://www.w3.org/2000/svg" xmlns:xlink="http://www.w3.org/1999/xlink" x="0px" y="0px" width="600px"
	 height="400px" viewBox="0 0 600 400" enable-background="new 0 0 600 400" xml:space="preserve">
<g id="Layer_2" display="none">
	<path display="inline" fill-rule="evenodd" clip-rule="evenodd" d="M306.153,13.014c67.052,0,134.13,0,201.188,0
		c0,56.252,0,112.525,0,168.784c-69.307,68.852-138.633,137.729-207.943,206.589c-0.448,0-0.9,0-1.348,0
		c0.132-33.375,7.477-84.175-2.703-112.07c-18.909-51.835-95.706-66.769-155.281-78.319c-16.199-1.352-32.405-2.697-48.608-4.048
		c85.958,0,171.942,0,257.899,0c59.021,0.007,105.431,1.484,122.876-39.156c5.538-12.903,4.048-32.557,4.048-49.962
		c0-18.059,1.754-42.941-5.399-55.362c-13.535-23.498-76.553-35.122-112.069-22.951c-34.904,11.96-47.972,45.473-51.314,89.113
		c-0.448,0-0.896,0-1.345,0C306.153,81.431,306.153,47.213,306.153,13.014z"/>
</g>
<g id="Layer_1">
	<path fill-rule="evenodd" clip-rule="evenodd" d="M298.05,388.387l209.292-206.589V13.014H306.153v102.653h1.264
		c0,0-4.689-93.708,95.279-93.708c49.984,0,73.522,14.541,73.67,93.708c0.134,71.833-52.864,78.141-109.032,78.283l-275.875-0.001
		C155,193.949,299.833,193.679,298.05,388.387z"/>
</g>
</svg>
