<?xml version="1.0" encoding="utf-8"?>
<!-- Generator: Adobe Illustrator 16.0.0, SVG Export Plug-In . SVG Version: 6.00 Build 0)  -->
<!DOCTYPE svg PUBLIC "-//W3C//DTD SVG 1.1//EN" "http://www.w3.org/Graphics/SVG/1.1/DTD/svg11.dtd">
<svg version="1.1" id="Layer_1" xmlns="http://www.w3.org/2000/svg" xmlns:xlink="http://www.w3.org/1999/xlink" x="0px" y="0px"
	 width="932.583px" height="90.125px" viewBox="0 0 932.583 90.125" enable-background="new 0 0 932.583 90.125"
	 xml:space="preserve">
<g enable-background="new    ">
	<path d="M32.605-0.399c6.361,0,21.285,1.469,29.848,3.059v7.218c-0.122,0-18.594-1.224-29.848-1.224
		c-15.292,0-20.796,6.973-20.796,36.699c0,20.062,4.526,36.454,20.796,36.454c12.845,0,29.848-0.856,29.848-0.856v7.218
		c-8.563,1.59-23.487,2.691-29.848,2.691c-22.631,0-29.849-19.451-29.849-45.752C2.757,16.482,8.262-0.399,32.605-0.399z"/>
	<path d="M105.144,0.58h9.052l31.439,89.545H134.87l-7.707-24.955h-35.72l-8.074,24.955H72.237L105.144,0.58z M123.982,56.117
		l-14.435-41.714L94.746,56.117H123.982z"/>
	<path d="M158.477,0.58h9.053v74.132c0,6.483,4.037,6.36,7.584,6.36h37.433v9.053h-37.433c-8.074,0-16.637-1.59-16.637-15.413V0.58z
		"/>
	<path d="M226.612,16.482c0-11.988,7.218-16.27,15.414-15.902l38.656,1.957v7.095h-38.656c-6.361,0-6.361,3.548-6.361,6.851v24.466
		l40.124,1.224v7.218l-40.124,1.223v24.466c0.122,6.483,4.037,6.361,7.584,6.361h37.433v6.973l-37.433,2.08
		c-8.074,0.489-16.637-1.591-16.637-15.414V16.482z"/>
	<path d="M295.969,0.58h34.497c17.86,0,23.243,13.211,23.243,23.242c0,9.053-2.569,17.126-11.254,19.817
		c5.383,1.224,11.744,7.585,11.744,21.53c0,12.478-4.893,24.955-23.732,24.955h-34.497V0.58z M330.466,38.746
		c9.175,0,14.19-4.893,14.19-14.924c0-11.866-7.829-14.19-14.19-14.19h-25.322v29.114H330.466z M330.466,81.072
		c5.872,0,14.68-1.59,14.68-16.147c0-9.052-4.404-17.126-14.68-17.126h-25.322v33.273H330.466z"/>
	<path d="M399.458,0.58h9.297l47.708,72.663V0.58h9.052v89.545h-9.052l-47.831-72.664v72.664h-9.174V0.58z"/>
	<path d="M488.266,0.58l23.12,46.975L536.953,0.58h9.909l-30.95,57.739v31.806h-9.052V58.319L478.357,0.58H488.266z"/>
	<path d="M560.071,0.58h12.478l23.854,74.498l23.12-74.498h12.355l6.851,89.545h-9.052l-5.505-73.153l-22.998,73.153h-9.298
		l-23.731-73.153l-4.894,73.153H554.2L560.071,0.58z"/>
	<path d="M652.795,16.482c0-11.988,7.218-16.27,15.414-15.902l38.656,1.957v7.095h-38.656c-6.361,0-6.361,3.548-6.361,6.851v24.466
		l40.124,1.224v7.218l-40.124,1.223v24.466c0.122,6.483,4.037,6.361,7.584,6.361h37.434v6.973l-37.434,2.08
		c-8.073,0.489-16.637-1.591-16.637-15.414V16.482z"/>
	<path d="M727.78,0.58l23.121,46.975L776.467,0.58h9.909l-30.949,57.739v31.806h-9.053V58.319L717.872,0.58H727.78z"/>
	<path d="M794.326,16.482c0-11.988,7.218-16.27,15.414-15.902l38.656,1.957v7.095H809.74c-6.361,0-6.361,3.548-6.361,6.851v24.466
		l40.124,1.224v7.218l-40.124,1.223v24.466c0.122,6.483,4.037,6.361,7.584,6.361h37.434v6.973l-37.434,2.08
		c-8.073,0.489-16.637-1.591-16.637-15.414V16.482z"/>
	<path d="M861.237,0.58h38.167c11.621,0,20.674,6.605,20.674,26.912c0,23.242-12.111,25.2-15.536,25.689l18.839,36.943h-9.786
		l-18.839-36.576l-24.466-1.713v38.289h-9.053V0.58z M899.404,43.762c5.627,0,11.499,0,11.499-16.27
		c0-16.025-6.116-17.738-11.499-17.738H870.29v34.008H899.404z"/>
</g>
</svg>
